<svg width="512" height="512" viewBox="0 0 512 512" fill="none" xmlns="http://www.w3.org/2000/svg">
<path fill-rule="evenodd" clip-rule="evenodd" d="M184.72 342.106V350.172C184.72 365.688 210.178 383.941 229.539 364.335L419.046 155.313C423.786 150.523 427.905 143.879 434.808 142.035C434.808 163.245 432.167 436.502 436.489 450.137C446.645 482.128 488.055 469.642 488.055 446.982V64.5858C488.055 56.3344 478.793 43.9458 465.974 42H459.047C452.274 43.0193 444.884 47.1334 437.546 56.0333C434.673 59.5127 431.894 61.7643 428.725 64.9611L360.981 140.812C337.094 167.934 307.961 197.126 284.278 225.461L190.761 328.781C187.717 332.437 184.72 336.036 184.72 342.106Z" fill="#8EC74B"/>
<path fill-rule="evenodd" clip-rule="evenodd" d="M50.8035 372.762C63.4423 372.762 67.7139 368.156 75.4926 358.728C78.467 355.129 81.1727 353.164 84.3046 349.787L314.188 95.6355C327.767 80.2309 328.319 80.4254 328.319 64.5853C328.319 50.1814 307.387 34.0772 287.558 46.4148L107.701 244.108C100.27 251.48 95.6276 257.655 88.2843 265.031L31.8315 327.97C13.2857 348.364 30.9605 372.762 50.8035 372.762Z" fill="#8EC74B"/>
</svg>
