<svg width="16" height="16" viewBox="0 0 16 16" fill="none" xmlns="http://www.w3.org/2000/svg">
<path fill-rule="evenodd" clip-rule="evenodd" d="M5.77249 10.6908V10.9429C5.77249 11.4277 6.56806 11.9982 7.1731 11.3855L13.0952 4.85354C13.2433 4.70384 13.372 4.49622 13.5877 4.4386C13.5877 5.10141 13.5052 13.6407 13.6403 14.0668C13.9577 15.0665 15.2517 14.6763 15.2517 13.9682V2.0183C15.2517 1.76045 14.9623 1.37331 14.5617 1.3125H14.3452C14.1336 1.34435 13.9026 1.47292 13.6733 1.75104C13.5835 1.85977 13.4967 1.93013 13.3976 2.03003L11.2807 4.40038C10.5342 5.24792 9.6238 6.16018 8.88368 7.04566L5.96128 10.2744C5.86616 10.3886 5.77249 10.5011 5.77249 10.6908Z" fill="#8EC74B"/>
<path fill-rule="evenodd" clip-rule="evenodd" d="M1.58761 11.649C1.98257 11.649 2.11606 11.5051 2.35915 11.2105C2.45209 11.098 2.53665 11.0366 2.63452 10.9311L9.81838 2.98885C10.2427 2.50746 10.26 2.51354 10.26 2.01853C10.26 1.56841 9.60584 1.06516 8.98618 1.45071L3.36566 7.62863C3.13343 7.85898 2.98836 8.05197 2.75888 8.28246L0.994734 10.2493C0.415178 10.8866 0.967516 11.649 1.58761 11.649Z" fill="#8EC74B"/>
</svg>
