<svg width="24" height="24" viewBox="0 0 24 24" fill="none" xmlns="http://www.w3.org/2000/svg">
<path fill-rule="evenodd" clip-rule="evenodd" d="M4.79989 22.3499C4.39307 22.3501 3.99019 22.2701 3.6143 22.1145C3.2384 21.9589 2.89686 21.7308 2.60919 21.4431C2.32152 21.1554 2.09337 20.8139 1.93777 20.438C1.78218 20.0621 1.7022 19.6592 1.70239 19.2524V4.85238C1.7022 4.44556 1.78218 4.04268 1.93777 3.66679C2.09337 3.29089 2.32152 2.94935 2.60919 2.66168C2.89686 2.37401 3.2384 2.14586 3.6143 1.99026C3.99019 1.83467 4.39307 1.75469 4.79989 1.75488H19.1999C19.6067 1.75469 20.0096 1.83467 20.3855 1.99026C20.7614 2.14586 21.1029 2.37401 21.3906 2.66168C21.6783 2.94935 21.9064 3.29089 22.062 3.66679C22.2176 4.04268 22.2976 4.44556 22.2974 4.85238V19.2524C22.2976 19.6592 22.2176 20.0621 22.062 20.438C21.9064 20.8139 21.6783 21.1554 21.3906 21.4431C21.1029 21.7308 20.7614 21.9589 20.3855 22.1145C20.0096 22.2701 19.6067 22.3501 19.1999 22.3499H4.79989ZM17.3849 13.6499H15.2099V20.8499H19.2149C19.4249 20.8499 19.6328 20.8085 19.8268 20.7282C20.0208 20.6478 20.1971 20.53 20.3456 20.3815C20.494 20.2331 20.6118 20.0568 20.6922 19.8628C20.7725 19.6688 20.8139 19.4609 20.8139 19.2509V4.85088C20.8139 4.4268 20.6454 4.02009 20.3456 3.72022C20.0457 3.42035 19.639 3.25188 19.2149 3.25188H4.81489C4.39081 3.25188 3.9841 3.42035 3.68423 3.72022C3.38436 4.02009 3.21589 4.4268 3.21589 4.85088V19.2509C3.21589 19.675 3.38436 20.0817 3.68423 20.3815C3.9841 20.6814 4.39081 20.8499 4.81489 20.8499H12.8099V13.6499H10.4099V11.2499H12.8099V9.96138C12.8099 7.51638 13.9994 6.45138 16.0199 6.45138C16.9724 6.45138 17.4839 6.52038 17.7299 6.55488H17.7449V8.84988H16.3619C15.6644 8.84988 15.3344 9.14988 15.2354 9.74988C15.2113 9.90722 15.1998 10.0662 15.2009 10.2254V11.2499H17.7209L17.3789 13.6499H17.3849Z" fill="white"/>
</svg>
