<svg width="50" height="50" viewBox="0 0 50 50" fill="none" xmlns="http://www.w3.org/2000/svg">
<path d="M24.7067 49.9855C24.8075 49.9947 24.9033 49.9997 24.9992 49.9997C25.0958 49.9997 25.1925 49.9947 25.295 49.9847C27.5683 49.7688 47.5 47.0488 47.5 18.4688V10.0905C47.5 8.64216 46.4725 7.36549 45.055 7.05716C34.2392 4.69799 28.9125 1.93799 26.7 0.503828C25.6667 -0.165339 24.3317 -0.165339 23.3 0.503828C21.0875 1.93883 15.7608 4.69799 4.945 7.05716C3.52833 7.36549 2.5 8.64133 2.5 10.0905V18.4688C2.5 47.0488 22.4317 49.7697 24.7067 49.9855ZM4.16667 10.0905C4.16667 9.41966 4.64333 8.82883 5.29917 8.68466C16.3733 6.27049 21.8992 3.39799 24.2058 1.90133C24.4508 1.74383 24.725 1.66383 24.9992 1.66383C25.2733 1.66383 25.5475 1.74299 25.7925 1.90133C28.1 3.39799 33.625 6.26966 44.6992 8.68466C45.355 8.82883 45.8317 9.41966 45.8317 10.0905V18.4688C45.8317 45.5747 27.2542 48.1247 25.1383 48.3255C25.0433 48.3355 24.9575 48.3347 24.8608 48.3255C22.7425 48.1238 4.165 45.5738 4.165 18.468V10.0897L4.16667 10.0905Z" fill="#6BD340"/>
<path d="M24.9117 46.6556C24.9409 46.6589 24.9701 46.6606 24.9992 46.6606C25.0284 46.6606 25.0584 46.6589 25.0876 46.6556C26.3617 46.5189 30.8592 45.7973 35.2034 42.2339C41.1509 37.3556 44.1667 29.3598 44.1667 18.4681V10.9423C44.1667 10.5523 43.8967 10.2156 43.5167 10.1289C33.2626 7.81475 27.7851 5.07225 25.4334 3.64309C25.1667 3.48225 24.8342 3.48225 24.5676 3.64309C22.2142 5.07225 16.7359 7.81559 6.48423 10.1289C6.10423 10.2148 5.83423 10.5523 5.83423 10.9423V18.4681C5.83423 43.8973 22.9592 46.4481 24.9126 46.6548L24.9117 46.6556ZM7.50006 11.6073C16.6009 9.49892 21.9892 7.08059 25.0001 5.32559C28.0092 7.08059 33.3976 9.49809 42.5001 11.6073V18.4689C42.5001 28.8364 39.6901 36.3998 34.1476 40.9456C30.1859 44.1939 26.0076 44.8698 24.9984 44.9898C23.9509 44.8664 19.5826 44.1573 15.5317 40.6323C10.2017 35.9939 7.50006 28.5373 7.50006 18.4698V11.6081V11.6073Z" fill="#6BD340"/>
<path d="M25.0001 38.3337C32.3517 38.3337 38.3334 32.352 38.3334 25.0003C38.3334 17.6487 32.3517 11.667 25.0001 11.667C17.6484 11.667 11.6667 17.6487 11.6667 25.0003C11.6667 32.352 17.6484 38.3337 25.0001 38.3337ZM25.0001 13.3337C31.4334 13.3337 36.6667 18.567 36.6667 25.0003C36.6667 31.4337 31.4334 36.667 25.0001 36.667C18.5667 36.667 13.3334 31.4337 13.3334 25.0003C13.3334 18.567 18.5667 13.3337 25.0001 13.3337Z" fill="#6BD340"/>
<path d="M22.8967 30.553C23.05 30.7263 23.2684 30.8271 23.5 30.833H23.5192C23.7434 30.833 23.9575 30.743 24.115 30.5821L32.2625 22.2488C32.585 21.9196 32.5784 21.3921 32.2492 21.0705C31.92 20.748 31.3925 20.7555 31.0709 21.0838L23.5484 28.778L18.9559 23.613C18.65 23.268 18.1225 23.2371 17.78 23.5438C17.4359 23.8488 17.405 24.3763 17.7109 24.7196L22.8967 30.553Z" fill="#6BD340"/>
</svg>
