<svg width="40" height="40" viewBox="0 0 40 40" fill="none" xmlns="http://www.w3.org/2000/svg">
<g clip-path="url(#clip0_90_125)">
<path d="M20 40C31.0457 40 40 31.0457 40 20C40 8.9543 31.0457 0 20 0C8.9543 0 0 8.9543 0 20C0 31.0457 8.9543 40 20 40Z" fill="#635BFF"/>
<path d="M30.5341 20.1469C30.5341 18.6488 29.8083 17.4664 28.4216 17.4664C27.0349 17.4664 26.186 18.6484 26.186 20.1352C26.186 21.8965 27.181 22.7863 28.6079 22.7863C29.3044 22.7863 29.831 22.6301 30.229 22.4059V21.234C29.831 21.4328 29.3747 21.5559 28.7954 21.5559C28.2278 21.5559 27.7243 21.357 27.6603 20.6664H30.522C30.5224 20.5914 30.5341 20.2871 30.5341 20.1469ZM27.6435 19.591C27.6435 18.9297 28.0474 18.6535 28.4161 18.6535C28.7731 18.6535 29.1536 18.927 29.1536 19.591H27.6435ZM23.9271 17.4664C23.5001 17.4648 23.0892 17.6285 22.7802 17.923L22.704 17.5602H21.4149V24.3836L22.8778 24.0734L22.8837 22.4172C23.0942 22.5695 23.4044 22.7859 23.9196 22.7859C24.9673 22.7859 25.9212 21.9434 25.9212 20.0883C25.9165 18.391 24.9509 17.4664 23.9271 17.4664ZM23.5755 21.4984C23.2302 21.4984 23.0255 21.3754 22.8849 21.225L22.879 19.0539C23.0313 18.8844 23.2419 18.7672 23.5755 18.7672C24.1079 18.7672 24.4767 19.3641 24.4767 20.1309C24.4771 20.9133 24.1142 21.4984 23.5759 21.4984H23.5755ZM19.4032 17.1211L20.872 16.8051V15.6172L19.4032 15.9273V17.1211ZM19.4032 17.566H20.872V22.6867H19.4032V17.566ZM17.829 17.9988L17.7345 17.566H16.4712V22.6863H17.9341V19.216C18.2794 18.7652 18.8646 18.8473 19.0458 18.9117V17.566C18.8591 17.4957 18.1743 17.3668 17.829 17.9988ZM14.9028 16.2961L13.4767 16.602L13.4708 21.2895C13.4708 22.1555 14.1204 22.7934 14.9864 22.7934C15.4661 22.7934 15.8173 22.7055 16.0106 22.6004V21.4109C15.8235 21.4871 14.8989 21.7563 14.8989 20.8902V18.8125H16.0106V17.566H14.897L14.9028 16.2961ZM10.947 19.0523C10.947 18.8242 11.1341 18.7363 11.4442 18.7363C11.9505 18.747 12.4473 18.8752 12.8954 19.1109V17.7348C12.4338 17.5529 11.9415 17.4618 11.4454 17.4664C10.2575 17.4664 9.46729 18.0867 9.46729 19.1227C9.46729 20.7379 11.6911 20.4805 11.6911 21.1766C11.6911 21.4457 11.4567 21.5336 11.1294 21.5336C10.6438 21.5336 10.0231 21.3348 9.53174 21.0648V22.4578C10.0362 22.6761 10.5797 22.7896 11.1294 22.7914C12.3466 22.7914 13.1833 22.1887 13.1833 21.141C13.1767 19.3977 10.947 19.7078 10.947 19.0523Z" fill="white"/>
</g>
<defs>
<clipPath id="clip0_90_125">
<rect width="40" height="40" fill="white"/>
</clipPath>
</defs>
</svg>
