<svg width="51" height="50" viewBox="0 0 51 50" fill="none" xmlns="http://www.w3.org/2000/svg">
<g clip-path="url(#clip0_90_155)">
<path d="M25.2548 6.06348C18.1091 6.06348 12.302 11.8706 12.302 19.0162C12.302 26.1619 18.1091 31.969 25.2548 31.969C32.4004 31.969 38.2075 26.1619 38.2075 19.0162C38.2075 11.8804 32.4004 6.06348 25.2548 6.06348ZM25.2548 30.3548C19.0048 30.3548 13.926 25.2761 13.926 19.0261C13.926 12.7761 19.0048 7.68749 25.2548 7.68749C31.5048 7.68749 36.5835 12.7662 36.5835 19.0162C36.5835 25.2662 31.5048 30.3548 25.2548 30.3548Z" fill="#6BD340"/>
<path d="M40.3432 29.8228C40.5794 29.124 40.7172 28.3858 40.7172 27.6083C40.7172 26.2008 41.2684 24.8819 42.2625 23.8878C43.5617 22.5886 44.2802 20.8563 44.2802 19.0256C44.2802 17.1949 43.5617 15.4626 42.2625 14.1634C41.2684 13.1693 40.7172 11.8504 40.7172 10.4429C40.7172 6.65354 37.6266 3.56299 33.8373 3.56299C32.4298 3.56299 31.1109 3.01181 30.1168 2.01772C28.8176 0.718504 27.0951 0 25.2546 0C23.414 0 21.6916 0.718504 20.3924 2.01772C19.3983 3.01181 18.0794 3.56299 16.6719 3.56299C12.8826 3.56299 9.792 6.65354 9.792 10.4429C9.792 11.8504 9.24082 13.1693 8.24672 14.1634C6.94751 15.4528 6.23885 17.185 6.23885 19.0157C6.23885 20.8465 6.95735 22.5787 8.25657 23.878C9.25066 24.872 9.80184 26.1909 9.80184 27.5984C9.80184 28.435 9.95932 29.2421 10.2349 29.9902L1.94751 44.3307L8.73885 43.8976L11.7605 50L20.0184 35.689C21.6326 37.3327 23.414 38.0709 25.2546 38.0413C28.6109 37.9823 30.4318 35.7382 30.5991 35.6102L38.9062 50L41.9278 43.8976L48.7192 44.3307L40.3432 29.8228ZM11.8688 46.5748L9.71326 42.2146L4.8609 42.5295L11.1306 31.6732C12.3806 33.376 14.3983 34.4882 16.6719 34.4882C17.3511 34.4882 18.0203 34.6161 18.6306 34.8622L11.8688 46.5748ZM28.9652 34.872C27.981 35.876 26.6621 36.4173 25.2546 36.4173C23.8471 36.4173 22.5282 35.8661 21.5341 34.872C20.2349 33.5728 18.5026 32.8543 16.6719 32.8543C13.7684 32.8543 11.416 30.4921 11.416 27.5984C11.416 25.7579 10.6975 24.0354 9.3983 22.7362C7.35105 20.689 7.35105 17.3425 9.3983 15.2953C10.6975 13.9961 11.416 12.2638 11.416 10.4331C11.416 7.52953 13.7782 5.17717 16.6719 5.17717C18.5125 5.17717 20.2349 4.45866 21.5341 3.15945C22.5282 2.16535 23.8471 1.61417 25.2546 1.61417C26.6621 1.61417 27.981 2.16535 28.9751 3.15945C30.2743 4.45866 32.0066 5.17717 33.8373 5.17717C36.7408 5.17717 39.0932 7.53937 39.0932 10.4331C39.0932 12.2736 39.8117 13.9961 41.1109 15.2953C42.105 16.2894 42.6562 17.6083 42.6562 19.0157C42.6562 20.4232 42.105 21.7421 41.1109 22.7362C39.8117 24.0354 39.0932 25.7677 39.0932 27.5984C39.0932 30.502 36.731 32.8543 33.8274 32.8543C31.9869 32.8543 30.2644 33.5728 28.9652 34.872ZM40.9534 42.2146L38.7979 46.5748L32.0066 34.8228C32.5873 34.6063 33.1975 34.4882 33.8373 34.4882C36.1601 34.4882 38.2172 33.3268 39.4672 31.5453L45.8058 42.5295L40.9534 42.2146Z" fill="#6BD340"/>
</g>
<defs>
<clipPath id="clip0_90_155">
<rect width="50" height="50" fill="white" transform="translate(0.333496)"/>
</clipPath>
</defs>
</svg>
