<svg width="35" height="35" viewBox="0 0 35 35" fill="none" xmlns="http://www.w3.org/2000/svg">
<path d="M24.7916 26.2503C25.5651 26.2503 26.307 26.5576 26.854 27.1046C27.401 27.6516 27.7083 28.3934 27.7083 29.167C27.7083 29.9405 27.401 30.6824 26.854 31.2294C26.307 31.7764 25.5651 32.0837 24.7916 32.0837C24.018 32.0837 23.2762 31.7764 22.7292 31.2294C22.1822 30.6824 21.8749 29.9405 21.8749 29.167C21.8749 27.5482 23.1728 26.2503 24.7916 26.2503ZM1.45825 2.91699H6.227L7.59784 5.83366H29.1666C29.5534 5.83366 29.9243 5.9873 30.1978 6.26079C30.4713 6.53429 30.6249 6.90522 30.6249 7.29199C30.6249 7.53991 30.552 7.78783 30.4499 8.02116L25.2291 17.4566C24.7332 18.3462 23.7708 18.9587 22.677 18.9587H11.8124L10.4999 21.3357L10.4562 21.5107C10.4562 21.6074 10.4946 21.7002 10.563 21.7685C10.6313 21.8369 10.7241 21.8753 10.8208 21.8753H27.7083V24.792H10.2083C9.4347 24.792 8.69284 24.4847 8.14586 23.9377C7.59888 23.3907 7.29158 22.6489 7.29158 21.8753C7.29158 21.3649 7.42283 20.8837 7.64158 20.4753L9.62492 16.9024L4.37492 5.83366H1.45825V2.91699ZM10.2083 26.2503C10.9818 26.2503 11.7237 26.5576 12.2706 27.1046C12.8176 27.6516 13.1249 28.3934 13.1249 29.167C13.1249 29.9405 12.8176 30.6824 12.2706 31.2294C11.7237 31.7764 10.9818 32.0837 10.2083 32.0837C9.4347 32.0837 8.69284 31.7764 8.14586 31.2294C7.59888 30.6824 7.29158 29.9405 7.29158 29.167C7.29158 27.5482 8.5895 26.2503 10.2083 26.2503ZM23.3333 16.042L27.3874 8.75033H8.95408L12.3958 16.042H23.3333Z" fill="white"/>
</svg>
