<svg width="40" height="40" viewBox="0 0 40 40" fill="none" xmlns="http://www.w3.org/2000/svg">
<g clip-path="url(#clip0_90_87)">
<path d="M20 40C31.0457 40 40 31.0457 40 20C40 8.9543 31.0457 0 20 0C8.9543 0 0 8.9543 0 20C0 31.0457 8.9543 40 20 40Z" fill="#F4F4F4"/>
<path fill-rule="evenodd" clip-rule="evenodd" d="M3.46167 8.75H36.5383C32.9383 3.46807 26.8742 0 20 0C13.1258 0 7.06161 3.46807 3.46167 8.75Z" fill="#227FBB"/>
<path fill-rule="evenodd" clip-rule="evenodd" d="M36.5383 31.25H3.46167C7.06161 36.5319 13.1258 40 20 40C26.8742 40 32.9383 36.5319 36.5383 31.25Z" fill="#E87E04"/>
<path fill-rule="evenodd" clip-rule="evenodd" d="M28.0001 14.8398C27.4455 14.6279 26.5764 14.4004 25.4911 14.4004C22.725 14.4004 20.7766 15.8195 20.76 17.8533C20.7444 19.3567 22.151 20.1953 23.2128 20.6959C24.3025 21.2087 24.6688 21.5358 24.6636 21.9937C24.6567 22.6951 23.7934 23.0155 22.9888 23.0155C21.8684 23.0155 21.2731 22.8569 20.3537 22.4663L19.993 22.3L19.6001 24.6422C20.2539 24.9342 21.463 25.1873 22.7184 25.2004C25.6611 25.2004 27.5714 23.7976 27.5931 21.6257C27.6036 20.4355 26.8578 19.5297 25.2428 18.783C24.2643 18.299 23.665 17.976 23.6714 17.4859C23.6714 17.051 24.1786 16.5859 25.2745 16.5859C26.1899 16.5715 26.853 16.7748 27.3697 16.9868L27.6206 17.1075L28.0001 14.8398Z" fill="#265697"/>
<path fill-rule="evenodd" clip-rule="evenodd" d="M34.9462 14.4004H32.7943C32.1278 14.4004 31.6289 14.5857 31.3361 15.2634L27.2002 24.8004H30.1245C30.1245 24.8004 30.6026 23.5181 30.7108 23.2365C31.0303 23.2365 33.8712 23.241 34.2773 23.241C34.3606 23.6053 34.6161 24.8004 34.6161 24.8004H37.2002L34.9462 14.4004ZM31.6002 21.2004C31.8393 20.5858 32.7521 18.2185 32.7521 18.2185C32.735 18.2469 32.9894 17.6009 33.1355 17.2004L33.3309 18.1201C33.3309 18.1201 33.8845 20.6663 34.0002 21.2003L31.6002 21.2004Z" fill="#265697"/>
<path fill-rule="evenodd" clip-rule="evenodd" d="M14.8 24.8004L16.4927 14.4004H19.2L17.5062 24.8004H14.8Z" fill="#265697"/>
<path fill-rule="evenodd" clip-rule="evenodd" d="M12.5973 14.4004L9.82188 21.5037L9.52618 20.0602C9.00951 18.3961 7.39974 16.5932 5.6001 15.6906L8.13785 24.8004L11.1372 24.797L15.6001 14.4004H12.5973Z" fill="#265697"/>
<path fill-rule="evenodd" clip-rule="evenodd" d="M7.34965 14.4004H2.83578L2.80005 14.6146C6.31179 15.4667 8.63549 17.526 9.60005 20.0004L8.61854 15.2695C8.44909 14.6176 7.95763 14.4231 7.34965 14.4004Z" fill="#CE6F2D"/>
</g>
<defs>
<clipPath id="clip0_90_87">
<rect width="40" height="40" fill="white"/>
</clipPath>
</defs>
</svg>
