<svg width="50" height="50" viewBox="0 0 50 50" fill="none" xmlns="http://www.w3.org/2000/svg">
<g clip-path="url(#clip0_90_313)">
<path d="M33.9863 15.1514C33.4462 15.1514 33.0078 15.5878 33.0078 16.1275C33.0078 16.6669 33.4462 17.1041 33.9863 17.1041C34.5275 17.1041 34.9648 16.6669 34.9648 16.1275C34.9648 15.5878 34.5275 15.1514 33.9863 15.1514Z" fill="#6BD340"/>
<path d="M16.208 32.8945C15.6667 32.8945 15.2295 33.3321 15.2295 33.8711C15.2295 34.4113 15.6667 34.8477 16.208 34.8477C16.748 34.8477 17.1864 34.4113 17.1864 33.8711C17.1864 33.3321 16.748 32.8945 16.208 32.8945Z" fill="#6BD340"/>
<path d="M48.9293 6.00786C48.5991 5.93119 48.252 6.03075 48.0135 6.27108L43.9571 10.3517H42.0123L39.8716 8.13799V6.16999L43.8699 2.11992C44.1065 1.88036 44.2028 1.53589 44.1245 1.20821C44.0465 0.880907 43.8049 0.61693 43.4854 0.509355C42.4809 0.171373 41.4299 9.26482e-05 40.3608 9.26482e-05C37.1739 9.26482e-05 34.2786 1.48325 32.4172 4.06923C30.6751 6.49004 30.138 9.45673 30.9074 12.296L23.7 19.4894L11.6923 7.47767V5.12018C11.6923 4.77724 11.5119 4.4591 11.2172 4.28286L4.29869 0.139329C3.91342 -0.0914601 3.42074 -0.0308064 3.1035 0.286195L0.336255 3.04766C0.0190152 3.36466 -0.0417571 3.85637 0.189102 4.24089L4.33997 11.1459C4.51655 11.44 4.83494 11.6197 5.17855 11.62L7.53988 11.6208L19.5487 23.6325L12.3688 30.7985C9.52397 30.0309 6.54994 30.5677 4.12325 32.3075C1.53374 34.1642 0.0488281 37.053 0.0488281 40.2337C0.0488281 41.3003 0.220443 42.3497 0.559087 43.3519C0.667254 43.6727 0.934423 43.9149 1.26466 43.9912C1.59528 44.0679 1.94195 43.9683 2.18083 43.728L6.23691 39.6478H8.19233L10.4203 41.8714V43.823L6.33208 47.8711C6.09128 48.1096 5.99153 48.4556 6.06835 48.7855C6.14479 49.1151 6.3875 49.3818 6.70895 49.4897C7.71303 49.8277 8.76451 49.999 9.83318 49.999C13.0201 49.999 15.9142 48.5166 17.7749 45.9321C19.5182 43.5102 20.0559 40.5423 19.2869 37.7031L25.0534 31.9478L26.3744 33.3799L25.7682 33.9845C25.3859 34.366 25.3859 34.9843 25.7682 35.3658C26.1504 35.7469 26.7696 35.7469 27.1522 35.3658L27.701 34.818L40.0948 48.2541C40.1039 48.2641 40.1135 48.2736 40.1231 48.2831C42.4164 50.5719 46.1319 50.5727 48.4263 48.2827C50.7143 45.9981 50.7143 42.2807 48.4263 39.9961C48.4164 39.9862 48.4061 39.9766 48.3957 39.9671L34.9123 27.6212L35.455 27.0795C35.8373 26.6984 35.8373 26.08 35.455 25.6986C35.0728 25.3171 34.4536 25.3171 34.071 25.6986L33.4691 26.2998L32.0315 24.9829L37.8259 19.1999C38.6496 19.4196 39.4997 19.531 40.3608 19.531C45.7562 19.531 50.1451 15.1502 50.1451 9.76572C50.1451 8.69875 49.9735 7.64971 49.6349 6.64721C49.5267 6.32639 49.2596 6.08416 48.9293 6.00786ZM8.63837 9.95455C8.45491 9.77106 8.20609 9.6776 7.94618 9.6776L5.73315 9.67684L2.26033 3.88994L3.94705 2.20651L9.73533 5.67331V7.88202C9.73533 8.14066 9.83815 8.38862 10.0212 8.57172L22.3164 20.8707L20.9324 22.2516L8.63837 9.95455ZM33.5271 29.0036L47.0565 41.3911C48.5677 42.9155 48.5632 45.3836 47.0423 46.9022C45.518 48.4235 43.0504 48.4281 41.5201 46.9156L29.0858 33.4356L33.5271 29.0036ZM32.0839 27.6818L27.7591 31.9974L26.4382 30.5654L30.6464 26.365L32.0839 27.6818ZM40.3608 17.5778C39.505 17.5778 38.6634 17.4409 37.86 17.1708C37.5079 17.0529 37.1188 17.1437 36.8559 17.4058C31.9505 22.3016 21.3807 32.8504 17.4886 36.7353C17.2256 36.9977 17.1343 37.3861 17.2531 37.7378C18.0665 40.1483 17.6774 42.7194 16.1852 44.7927C14.6973 46.8599 12.3818 48.0459 9.83318 48.0459C9.5469 48.0459 9.26215 48.0302 8.98007 48.0001L12.0879 44.9224C12.2729 44.7393 12.3772 44.4898 12.3772 44.2292V41.4666C12.3772 41.2076 12.274 40.9593 12.0906 40.7762L9.28929 37.9804C9.10582 37.7973 8.857 37.6943 8.59748 37.6943H5.82947C5.56841 37.6943 5.31844 37.7984 5.1346 37.9831L2.05126 41.0848C2.02068 40.8033 2.00539 40.5191 2.00539 40.2333C2.00539 37.6893 3.19332 35.3788 5.26493 33.8937C7.3419 32.4044 9.91842 32.0157 12.334 32.8279C12.686 32.9465 13.0751 32.8553 13.3381 32.5929C13.392 32.5395 32.6916 13.2772 32.7054 13.2634C32.9683 13.001 33.0593 12.613 32.9408 12.2613C32.1271 9.85079 32.5154 7.28045 34.0064 5.20868C35.4956 3.13959 37.8114 1.95322 40.3604 1.95322C40.6555 1.95322 40.9486 1.96962 41.2391 2.00167L38.1959 5.08432C38.0155 5.26705 37.9146 5.5131 37.9146 5.76944V8.53205C37.9146 8.78535 38.0128 9.02834 38.189 9.2103L40.8925 12.0061C41.0767 12.1968 41.3309 12.3044 41.5965 12.3044H44.3645C44.6252 12.3044 44.8751 12.2006 45.059 12.0156L48.1423 8.91428C48.1729 9.19581 48.1882 9.48 48.1882 9.76572C48.1882 14.0733 44.6768 17.5778 40.3608 17.5778Z" fill="#6BD340"/>
<path d="M30.5273 18.1992L18.283 30.4196C17.9011 30.8007 17.9011 31.419 18.283 31.8005C18.6652 32.182 19.2847 32.182 19.667 31.8005L31.9113 19.5801C32.2935 19.199 32.2935 18.5807 31.9113 18.1992C31.529 17.8177 30.9095 17.8177 30.5273 18.1992Z" fill="#6BD340"/>
<path d="M42.8919 44.1405C43.2741 44.5208 43.8937 44.5208 44.2759 44.1382C44.6574 43.7563 44.6562 43.138 44.2736 42.7572L35.454 33.9831C35.0714 33.6024 34.4514 33.6035 34.0704 33.9853C33.6885 34.3676 33.6897 34.9856 34.0723 35.3663L42.8919 44.1405Z" fill="#6BD340"/>
</g>
<defs>
<clipPath id="clip0_90_313">
<rect width="50" height="50" fill="white"/>
</clipPath>
</defs>
</svg>
