<svg width="50" height="50" viewBox="0 0 50 50" fill="none" xmlns="http://www.w3.org/2000/svg">
<g clip-path="url(#clip0_90_245)">
<path d="M30.1538 27.2202V20.3096" stroke="#6BD340" stroke-width="1.72119" stroke-miterlimit="10" stroke-linecap="round" stroke-linejoin="round"/>
<path d="M30.1542 33.0072C28.5585 33.0072 27.2605 31.7091 27.2605 30.1135C27.2605 28.5179 28.5586 27.2197 30.1542 27.2197C31.7499 27.2197 33.048 28.5179 33.048 30.1135C33.048 31.7091 31.7499 33.0072 30.1542 33.0072Z" stroke="#6BD340" stroke-width="1.72119" stroke-miterlimit="10" stroke-linecap="round" stroke-linejoin="round"/>
<path d="M33.799 11.0675V8.95918C33.799 7.9502 34.617 7.13223 35.626 7.13223C37.3703 7.13223 38.7976 5.70498 38.7976 3.96064C38.7976 2.21631 37.3703 0.789062 35.626 0.789062H24.6823C22.938 0.789062 21.5107 2.21631 21.5107 3.96064C21.5107 5.70498 22.938 7.13223 24.6823 7.13223C25.6913 7.13223 26.5093 7.9502 26.5093 8.95918V11.0675" stroke="#6BD340" stroke-width="1.72119" stroke-miterlimit="10" stroke-linecap="round" stroke-linejoin="round"/>
<path d="M11.4399 26.1889C11.6053 25.3931 11.8201 24.6154 12.081 23.8594" stroke="#6BD340" stroke-width="1.72119" stroke-miterlimit="10" stroke-linecap="round" stroke-linejoin="round"/>
<path d="M13.9794 40.2862C12.4129 37.8047 11.4017 34.9376 11.1204 31.8594" stroke="#6BD340" stroke-width="1.72119" stroke-miterlimit="10" stroke-linecap="round" stroke-linejoin="round"/>
<path d="M13.8799 20.0671C17.2468 14.6159 23.276 10.9834 30.1536 10.9834C40.7099 10.9834 49.2674 19.5409 49.2674 30.0972C49.2674 40.6534 40.7099 49.2109 30.1536 49.2109C26.1223 49.2109 22.3825 47.9629 19.2995 45.8321" stroke="#6BD340" stroke-width="1.72119" stroke-miterlimit="10" stroke-linecap="round" stroke-linejoin="round"/>
<path d="M9.70801 12.2383H3.42676C1.93877 12.2383 0.732422 13.4445 0.732422 14.9326C0.732422 16.4206 1.93867 17.627 3.42676 17.627H9.70801C11.196 17.627 12.4023 16.4207 12.4023 14.9326C12.4023 13.4445 11.1961 12.2383 9.70801 12.2383Z" stroke="#6BD340" stroke-width="1.72119" stroke-miterlimit="10" stroke-linecap="round" stroke-linejoin="round"/>
<path d="M16.9604 26.1867C17.2131 25.3357 17.546 24.5189 17.9504 23.7451" stroke="#6BD340" stroke-width="1.72119" stroke-miterlimit="10" stroke-linecap="round" stroke-linejoin="round"/>
<path d="M20.8126 40.1905C18.4814 38.0315 16.8971 35.0773 16.4951 31.7637" stroke="#6BD340" stroke-width="1.72119" stroke-miterlimit="10" stroke-linecap="round" stroke-linejoin="round"/>
<path d="M41.0673 21.7266C42.8513 24.0471 43.913 26.9504 43.913 30.097C43.913 37.6838 37.7406 43.8561 30.1539 43.8561C29.0378 43.8561 27.9523 43.7225 26.9126 43.4705" stroke="#6BD340" stroke-width="1.72119" stroke-miterlimit="10" stroke-linecap="round" stroke-linejoin="round"/>
<path d="M20.6853 20.1229C23.1538 17.7783 26.4887 16.3379 30.1539 16.3379C33.4963 16.3379 36.5643 17.5359 38.9508 19.5252" stroke="#6BD340" stroke-width="1.72119" stroke-miterlimit="10" stroke-linecap="round" stroke-linejoin="round"/>
<path d="M24.1316 40.3965H3.42676C1.93877 40.3965 0.732422 41.6027 0.732422 43.0908C0.732422 44.5788 1.93867 45.7852 3.42676 45.7852H24.1316C25.6135 45.7852 26.826 44.5728 26.826 43.0908C26.826 41.609 25.6135 40.3965 24.1316 40.3965Z" stroke="#6BD340" stroke-width="1.72119" stroke-miterlimit="10" stroke-linecap="round" stroke-linejoin="round"/>
<path d="M6.76514 34.3008H2.48271C1.51602 34.3008 0.732422 35.0844 0.732422 36.0511C0.732422 37.0178 1.51602 37.8014 2.48271 37.8014H6.76514C7.72783 37.8014 8.51543 37.0138 8.51543 36.0511C8.51543 35.0884 7.72783 34.3008 6.76514 34.3008Z" stroke="#6BD340" stroke-width="1.72119" stroke-miterlimit="10" stroke-linecap="round" stroke-linejoin="round"/>
<path d="M8.08916 31.7061H19.2489C20.7308 31.7061 21.9433 30.4937 21.9433 29.0117C21.9433 27.5299 20.7309 26.3174 19.2489 26.3174H3.42676C1.93877 26.3174 0.732422 27.5236 0.732422 29.0117C0.732422 30.4997 1.93867 31.7061 3.42676 31.7061H5.06182" stroke="#6BD340" stroke-width="1.72119" stroke-miterlimit="10" stroke-linecap="round" stroke-linejoin="round"/>
<path d="M24.6478 20.2217H2.48271C1.51602 20.2217 0.732422 21.0054 0.732422 21.9721C0.732422 22.9388 1.51602 23.7224 2.48271 23.7224H24.6881C25.7076 23.7224 26.5308 22.839 26.43 21.7999C26.3425 20.8966 25.5553 20.2217 24.6478 20.2217Z" stroke="#6BD340" stroke-width="1.72119" stroke-miterlimit="10" stroke-linecap="round" stroke-linejoin="round"/>
<path d="M24.0557 35.7578V36.9297" stroke="#6BD340" stroke-width="1.72119" stroke-miterlimit="10" stroke-linecap="round" stroke-linejoin="round"/>
<path d="M36.2527 35.7578V36.9297" stroke="#6BD340" stroke-width="1.72119" stroke-miterlimit="10" stroke-linecap="round" stroke-linejoin="round"/>
<path d="M28.5464 36.8945C28.9373 37.3432 29.5124 37.6271 30.1542 37.6271C30.796 37.6271 31.3711 37.3432 31.762 36.8945" stroke="#6BD340" stroke-width="1.72119" stroke-miterlimit="10" stroke-linecap="round" stroke-linejoin="round"/>
</g>
<defs>
<clipPath id="clip0_90_245">
<rect width="50" height="50" fill="white"/>
</clipPath>
</defs>
</svg>
