<svg width="18" height="19" viewBox="0 0 18 19" fill="none" xmlns="http://www.w3.org/2000/svg">
<path d="M16.5 10.748H10.25V16.998C10.25 17.3296 10.1183 17.6475 9.88388 17.8819C9.64946 18.1164 9.33152 18.248 9 18.248C8.66848 18.248 8.35054 18.1164 8.11612 17.8819C7.8817 17.6475 7.75 17.3296 7.75 16.998V10.748H1.5C1.16848 10.748 0.850537 10.6164 0.616117 10.3819C0.381696 10.1475 0.25 9.82957 0.25 9.49805C0.25 9.16653 0.381696 8.84859 0.616117 8.61416C0.850537 8.37974 1.16848 8.24805 1.5 8.24805H7.75V1.99805C7.75 1.66653 7.8817 1.34858 8.11612 1.11416C8.35054 0.879743 8.66848 0.748047 9 0.748047C9.33152 0.748047 9.64946 0.879743 9.88388 1.11416C10.1183 1.34858 10.25 1.66653 10.25 1.99805V8.24805H16.5C16.8315 8.24805 17.1495 8.37974 17.3839 8.61416C17.6183 8.84859 17.75 9.16653 17.75 9.49805C17.75 9.82957 17.6183 10.1475 17.3839 10.3819C17.1495 10.6164 16.8315 10.748 16.5 10.748Z" fill="#131517"/>
</svg>
