<svg width="50" height="51" viewBox="0 0 50 51" fill="none" xmlns="http://www.w3.org/2000/svg">
<g clip-path="url(#clip0_90_323)">
<path d="M25.0002 8.78516C22.7886 8.78516 20.9893 10.5845 20.9893 12.7961C20.9893 15.0077 22.7886 16.807 25.0002 16.807C27.2118 16.807 29.0111 15.0077 29.0111 12.7961C29.0111 10.5845 27.2118 8.78516 25.0002 8.78516ZM25.0002 15.2027C23.6733 15.2027 22.5937 14.1229 22.5937 12.7962C22.5937 11.4694 23.6734 10.3896 25.0002 10.3896C26.3271 10.3896 27.4067 11.4694 27.4067 12.7962C27.4067 14.1229 26.3271 15.2027 25.0002 15.2027Z" fill="#6BD340"/>
<path d="M41.8462 17.6101C41.8462 9.94512 35.5795 3.50752 27.2239 2.51035C26.9383 2.22236 26.6463 1.94004 26.3382 1.67129L25.0001 0.5L23.6621 1.67119C23.3548 1.93994 23.0621 2.22227 22.7764 2.51025C14.4208 3.50742 8.15405 9.9458 8.15405 17.6101C8.15405 22.8845 11.2152 27.8132 16.176 30.5808V40.8737C16.176 41.7586 16.8956 42.4781 17.7804 42.4781H18.1647L23.0805 49.5006C23.5185 50.1262 24.2357 50.5 25.0001 50.5C25.7646 50.5 26.4818 50.1262 26.9198 49.5005L31.8356 42.478H32.2199C33.1047 42.478 33.8243 41.7585 33.8243 40.8736V30.5807C38.7851 27.8131 41.8462 22.8845 41.8462 17.6101ZM24.7186 2.87852L25.0001 2.63223L25.2817 2.87852C26.205 3.68633 27.0176 4.59521 27.7164 5.57705H22.2839C22.9827 4.59521 23.7945 3.68711 24.7186 2.87852ZM27.3128 21.621H29.0568L28.4551 23.2254H27.1123L27.3128 21.621ZM31.1233 20.68C31.2116 20.4441 31.2781 20.2019 31.3559 19.9636C31.915 21.0225 32.2199 22.2073 32.2199 23.4202V24.0243C31.5765 23.6625 30.8713 23.4267 30.1366 23.3111L31.1233 20.68ZM29.6537 20.0166H27.2839C26.9832 19.0893 26.1208 18.4122 25.0939 18.4122H24.9062C23.8793 18.4122 23.0178 19.0893 22.7162 20.0166H20.3464C19.7111 18.2871 19.3846 16.4766 19.3846 14.6322C19.3846 11.9994 20.0529 9.44443 21.2818 7.18145H28.7173C29.9471 9.44443 30.6153 11.9994 30.6153 14.6322C30.6155 16.4765 30.289 18.2871 29.6537 20.0166ZM25.8023 20.7249C25.8023 20.7538 25.8007 20.7826 25.7966 20.8123L25.1059 26.341C25.0922 26.4478 24.9078 26.4478 24.8941 26.341L24.2034 20.8115C24.1994 20.7826 24.1978 20.7538 24.1978 20.7249C24.1978 20.3343 24.5155 20.0166 24.9061 20.0166H25.0938C25.4847 20.0166 25.8023 20.3343 25.8023 20.7249ZM18.877 20.68L19.8637 23.3111C19.129 23.4267 18.4238 23.6625 17.7804 24.0243V23.4202C17.7804 22.2073 18.0852 21.0232 18.6444 19.9636C18.7222 20.2019 18.7879 20.4434 18.877 20.68ZM21.5451 23.2254L20.9434 21.621H22.6874L22.8879 23.2254H21.5451ZM17.7804 36.0605H32.2199V37.6648H17.7804V36.0605ZM24.3953 48.5812L23.4928 47.292H26.5075L25.605 48.5812C25.3291 48.9758 24.6712 48.9758 24.3953 48.5812ZM27.6305 45.6868H22.3697L20.1235 42.478H29.8774L27.6305 45.6868ZM17.7804 40.8736V39.2692H32.2199V40.8736H17.7804ZM32.6515 29.391L32.22 29.6156V34.4561H25.8024V29.6429H24.198V34.4561H17.7804V29.6156L17.3489 29.391C12.6665 26.9499 9.75854 22.436 9.75854 17.61C9.75854 11.3304 14.5211 5.97334 21.1296 4.42988C18.9733 7.36191 17.7805 10.9293 17.7805 14.6322C17.7805 15.7265 17.8904 16.8086 18.0942 17.8739C16.8596 19.4559 16.1761 21.406 16.1761 23.4203V25.6319C16.1761 25.9561 16.3718 26.2488 16.671 26.3731C16.7706 26.4141 16.8748 26.4341 16.9783 26.4341C17.1869 26.4341 17.3922 26.3522 17.5455 26.199C18.4287 25.3158 19.6023 24.8297 20.8521 24.8297H23.0894L23.3028 26.5399C23.4095 27.3942 24.1395 28.0385 25.0002 28.0385C25.861 28.0385 26.591 27.3943 26.6977 26.5399L26.9111 24.8297H29.1484C30.3974 24.8297 31.5718 25.3158 32.455 26.199C32.6083 26.3522 32.8136 26.4341 33.0222 26.4341C33.1257 26.4341 33.23 26.4141 33.3294 26.3731C33.6287 26.2488 33.8244 25.956 33.8244 25.6319V23.4203C33.8244 21.4068 33.1409 19.4559 31.9063 17.8739C32.11 16.8086 32.22 15.7265 32.22 14.6322C32.22 10.9293 31.0271 7.36191 28.8708 4.42988C35.4793 5.97334 40.2419 11.3304 40.2419 17.61C40.2418 22.436 37.3339 26.95 32.6515 29.391Z" fill="#6BD340"/>
<path d="M27.4067 26.4346H29.0111V32.8521H27.4067V26.4346Z" fill="#6BD340"/>
<path d="M20.9893 26.4346H22.5937V32.8521H20.9893V26.4346Z" fill="#6BD340"/>
<path d="M4.94526 30.4456C4.94526 29.1188 3.86548 28.0391 2.53872 28.0391C1.21196 28.0391 0.13208 29.1188 0.13208 30.4456C0.13208 31.7725 1.21187 32.8521 2.53862 32.8521C3.86538 32.8521 4.94526 31.7725 4.94526 30.4456ZM1.73647 30.4456C1.73647 30.0028 2.09663 29.6435 2.53862 29.6435C2.98062 29.6435 3.34077 30.0028 3.34077 30.4456C3.34077 30.8884 2.98062 31.2478 2.53862 31.2478C2.09663 31.2478 1.73647 30.8885 1.73647 30.4456Z" fill="#6BD340"/>
<path d="M6.54976 38.4671C6.54976 37.1402 5.46997 36.0605 4.14321 36.0605C2.81646 36.0605 1.73657 37.1402 1.73657 38.4671C1.73657 39.7939 2.81636 40.8736 4.14312 40.8736C5.46987 40.8736 6.54976 39.7939 6.54976 38.4671ZM3.34097 38.4671C3.34097 38.0243 3.70112 37.6649 4.14312 37.6649C4.58511 37.6649 4.94526 38.0243 4.94526 38.4671C4.94526 38.9099 4.58511 39.2692 4.14312 39.2692C3.70112 39.2692 3.34097 38.9099 3.34097 38.4671Z" fill="#6BD340"/>
<path d="M5.74736 44.082C4.42051 44.082 3.34082 45.1618 3.34082 46.4886C3.34082 47.8153 4.42061 48.8951 5.74736 48.8951C7.07412 48.8951 8.15391 47.8153 8.15391 46.4886C8.15391 45.1618 7.07412 44.082 5.74736 44.082ZM5.74736 47.2908C5.30537 47.2908 4.94522 46.9314 4.94522 46.4887C4.94522 46.0459 5.30537 45.6865 5.74736 45.6865C6.18936 45.6865 6.54951 46.0459 6.54951 46.4887C6.54951 46.9314 6.18936 47.2908 5.74736 47.2908Z" fill="#6BD340"/>
<path d="M11.3627 29.6426H6.54956V31.247H9.75835V36.0601H14.5715V34.4557H11.3627V29.6426Z" fill="#6BD340"/>
<path d="M8.15405 37.665H14.5716V39.2694H8.15405V37.665Z" fill="#6BD340"/>
<path d="M11.3629 45.6862H9.75854V47.2906H12.9673V42.4774H14.5717V40.873H11.3629V45.6862Z" fill="#6BD340"/>
<path d="M47.4615 28.0391C46.1346 28.0391 45.0549 29.1188 45.0549 30.4456C45.0549 31.7724 46.1347 32.8521 47.4615 32.8521C48.7882 32.8521 49.868 31.7724 49.868 30.4456C49.868 29.1188 48.7883 28.0391 47.4615 28.0391ZM47.4615 31.2479C47.0195 31.2479 46.6593 30.8885 46.6593 30.4457C46.6593 30.0029 47.0195 29.6436 47.4615 29.6436C47.9035 29.6436 48.2636 30.0029 48.2636 30.4457C48.2637 30.8884 47.9035 31.2479 47.4615 31.2479Z" fill="#6BD340"/>
<path d="M45.8572 36.0605C44.5304 36.0605 43.4507 37.1403 43.4507 38.4671C43.4507 39.7938 44.5305 40.8736 45.8572 40.8736C47.184 40.8736 48.2638 39.7938 48.2638 38.4671C48.2638 37.1403 47.1841 36.0605 45.8572 36.0605ZM45.8572 39.2693C45.4152 39.2693 45.0551 38.91 45.0551 38.4672C45.0551 38.0244 45.4152 37.665 45.8572 37.665C46.2992 37.665 46.6594 38.0244 46.6594 38.4672C46.6595 38.91 46.2993 39.2693 45.8572 39.2693Z" fill="#6BD340"/>
<path d="M44.2527 44.082C42.9259 44.082 41.8462 45.1618 41.8462 46.4886C41.8462 47.8153 42.926 48.8951 44.2527 48.8951C45.5796 48.8951 46.6593 47.8153 46.6593 46.4886C46.6593 45.1618 45.5796 44.082 44.2527 44.082ZM44.2527 47.2908C43.8107 47.2908 43.4506 46.9314 43.4506 46.4887C43.4506 46.0459 43.8107 45.6865 44.2527 45.6865C44.6947 45.6865 45.0549 46.0459 45.0549 46.4887C45.055 46.9314 44.6948 47.2908 44.2527 47.2908Z" fill="#6BD340"/>
<path d="M43.4507 29.6426H38.6375V34.4557H35.4287V36.0601H40.2419V31.247H43.4507V29.6426Z" fill="#6BD340"/>
<path d="M35.4287 37.665H41.8463V39.2694H35.4287V37.665Z" fill="#6BD340"/>
<path d="M38.6375 40.873H35.4287V42.4774H37.0331V47.2906H40.2419V45.6862H38.6375V40.873Z" fill="#6BD340"/>
</g>
<defs>
<clipPath id="clip0_90_323">
<rect width="50" height="50" fill="white" transform="translate(0 0.5)"/>
</clipPath>
</defs>
</svg>
