<svg width="28" height="27" viewBox="0 0 28 27" fill="none" xmlns="http://www.w3.org/2000/svg">
<path d="M10.3556 19.9715C7.46136 19.9715 5.01212 19.0047 3.00791 17.0711C1.0037 15.1374 0.00106296 12.7756 8.42948e-07 9.98577C-0.00106127 7.1959 1.00157 4.83414 3.00791 2.90048C5.01424 0.966828 7.46348 0 10.3556 0C13.2478 0 15.6975 0.966828 17.7049 2.90048C19.7123 4.83414 20.7144 7.1959 20.7112 9.98577C20.7112 11.1124 20.5254 12.175 20.1536 13.1735C19.7819 14.1721 19.2774 15.0555 18.6401 15.8236L27.5619 24.4267C27.854 24.7084 28 25.0669 28 25.5021C28 25.9374 27.854 26.2959 27.5619 26.5775C27.2698 26.8592 26.8981 27 26.4467 27C25.9953 27 25.6235 26.8592 25.3314 26.5775L16.4097 17.9744C15.6131 18.5889 14.697 19.0754 13.6615 19.4339C12.6259 19.7923 11.5239 19.9715 10.3556 19.9715ZM10.3556 16.899C12.3471 16.899 14.0401 16.2271 15.4347 14.8834C16.8292 13.5397 17.526 11.9071 17.5249 9.98577C17.5238 8.06441 16.8271 6.43238 15.4347 5.08967C14.0422 3.74697 12.3492 3.07459 10.3556 3.07255C8.36203 3.0705 6.66955 3.74287 5.27818 5.08967C3.88681 6.43647 3.18953 8.06851 3.18634 9.98577C3.18316 11.903 3.88044 13.5356 5.27818 14.8834C6.67592 16.2312 8.3684 16.9031 10.3556 16.899Z" fill="#121820"/>
</svg>
