<svg width="88" height="87" viewBox="0 0 88 87" fill="none" xmlns="http://www.w3.org/2000/svg">
<path fill-rule="evenodd" clip-rule="evenodd" d="M13.0322 1.19336H75.0576C81.3428 1.19336 86.4846 6.33519 86.4846 12.6204V74.6458C86.4846 80.931 81.3428 86.0728 75.0576 86.0728H13.0322C6.74699 86.0728 1.60516 80.931 1.60516 74.6458V12.6181C1.60741 6.33519 6.74924 1.19336 13.0322 1.19336Z" fill="#4CAF50"/>
<path fill-rule="evenodd" clip-rule="evenodd" d="M71.322 58.6556H34.2397C32.6246 58.6556 31.196 57.5707 30.7624 56.0162L21.2829 21.9867H15.8289C13.8341 21.9867 12.2168 20.3716 12.2168 18.3746C12.2168 16.3821 13.8364 14.7625 15.8289 14.7625H23.5135C25.4836 14.484 27.2492 15.8565 27.5906 17.7164L36.6882 50.3914C36.8589 51.0047 37.4228 51.4337 38.0607 51.4337H71.3197C73.31 51.4337 74.9296 53.0533 74.9296 55.0436C74.9318 57.0338 73.3122 58.6556 71.322 58.6556ZM22.1141 19.801C22.606 19.801 23.0351 20.129 23.1676 20.6007L32.8672 55.4277C33.0379 56.0387 33.6018 56.47 34.2397 56.47H71.322C72.1082 56.47 72.7462 55.8298 72.7462 55.0458C72.7462 54.2596 72.106 53.6216 71.322 53.6216H38.0607C36.4456 53.6216 35.017 52.5367 34.5834 50.9822C25.0388 16.6854 25.4746 18.2893 25.4454 18.141C25.3218 17.393 24.5985 16.8 23.7786 16.937C23.6056 16.9684 24.0324 16.9482 15.8266 16.9527C14.5664 16.9527 13.924 18.4892 14.818 19.3855C15.0876 19.655 15.4448 19.8033 15.8266 19.8033H22.1141V19.801Z" fill="white"/>
<path fill-rule="evenodd" clip-rule="evenodd" d="M69.489 48.0436H34.5969C33.9926 48.0436 33.5052 47.5539 33.5052 46.9519C33.5052 46.3476 33.9949 45.8602 34.5969 45.8602H68.6264L73.3998 25.7264H28.4105C27.8062 25.7264 27.3188 25.2367 27.3188 24.6347C27.3188 24.0304 27.8085 23.543 28.4105 23.543H74.7813C75.4821 23.543 76.01 24.1989 75.846 24.8885L70.556 47.2102C70.4369 47.6954 69.9966 48.0436 69.489 48.0436Z" fill="white"/>
<path fill-rule="evenodd" clip-rule="evenodd" d="M73.0718 32.9354H30.3895C29.7852 32.9354 29.2978 32.4457 29.2978 31.8437C29.2978 31.2417 29.7875 30.752 30.3895 30.752H73.0718C73.6761 30.752 74.1636 31.2417 74.1636 31.8437C74.1658 32.4457 73.6761 32.9354 73.0718 32.9354Z" fill="white"/>
<path fill-rule="evenodd" clip-rule="evenodd" d="M71.2007 40.8338H32.5887C31.9866 40.8338 31.4969 40.3441 31.4969 39.7421C31.4969 39.1401 31.9866 38.6504 32.5887 38.6504H71.1984C71.8004 38.6504 72.2901 39.1401 72.2901 39.7421C72.2901 40.3441 71.8027 40.8338 71.2007 40.8338Z" fill="white"/>
<path fill-rule="evenodd" clip-rule="evenodd" d="M41.8053 47.2166L40.0038 40.006C39.997 39.979 36.2277 24.8994 36.2277 24.8972C36.0817 24.3132 36.4366 23.7179 37.0229 23.5719C37.6069 23.4259 38.2022 23.7808 38.3482 24.3671C38.4291 24.6928 43.836 46.3293 43.9258 46.6865C44.0718 47.2705 43.7169 47.8658 43.1306 48.0118C42.5646 48.1601 41.9558 47.8142 41.8053 47.2166Z" fill="white"/>
<path fill-rule="evenodd" clip-rule="evenodd" d="M60.3263 48.0471C60.2387 48.0471 60.1488 48.0358 60.0612 48.0156C59.4772 47.8696 59.12 47.2743 59.266 46.6903C59.3469 46.3646 64.756 24.728 64.8436 24.3708C64.9896 23.7868 65.5849 23.4296 66.169 23.5756C66.753 23.7217 67.1102 24.3169 66.9642 24.901C66.8765 25.2581 61.4674 46.8947 61.3865 47.2204C61.263 47.7146 60.816 48.0471 60.3263 48.0471Z" fill="white"/>
<path fill-rule="evenodd" clip-rule="evenodd" d="M51.597 48.0442C50.9928 48.0442 50.5053 47.5545 50.5053 46.9525V24.6308C50.5053 24.0288 50.995 23.5391 51.597 23.5391C52.2013 23.5391 52.6887 24.0288 52.6887 24.6308V46.9525C52.6887 47.5545 52.199 48.0442 51.597 48.0442Z" fill="white"/>
<path fill-rule="evenodd" clip-rule="evenodd" d="M38.802 72.5333C35.473 72.5333 32.7639 69.8242 32.7639 66.4951C32.7639 63.1661 35.473 60.457 38.802 60.457C42.1311 60.457 44.8401 63.1661 44.8401 66.4951C44.8401 69.8242 42.1311 72.5333 38.802 72.5333ZM38.802 62.6427C36.6793 62.6427 34.9473 64.3701 34.9473 66.4974C34.9473 68.6202 36.6748 70.3521 38.802 70.3521C40.9248 70.3521 42.6567 68.6247 42.6567 66.4974C42.6545 64.3724 40.9248 62.6427 38.802 62.6427Z" fill="white"/>
<path fill-rule="evenodd" clip-rule="evenodd" d="M66.7597 72.5333C63.4307 72.5333 60.7216 69.8242 60.7216 66.4951C60.7216 63.1661 63.4307 60.457 66.7597 60.457C70.0888 60.457 72.7978 63.1661 72.7978 66.4951C72.7978 69.8242 70.0888 72.5333 66.7597 72.5333ZM66.7597 62.6427C64.637 62.6427 62.905 64.3701 62.905 66.4974C62.905 68.6202 64.6325 70.3521 66.7597 70.3521C68.8847 70.3521 70.6144 68.6247 70.6144 66.4974C70.6122 64.3724 68.8825 62.6427 66.7597 62.6427Z" fill="white"/>
</svg>
