<svg width="51" height="50" viewBox="0 0 51 50" fill="none" xmlns="http://www.w3.org/2000/svg">
<path d="M29.0732 38.3517L25.0073 40.8792C24.6776 41.099 24.6227 41.4836 24.7875 41.8133C24.8974 42.033 25.282 42.2528 25.7216 42.033L29.7875 39.5056C30.1172 39.2858 30.1721 38.9012 30.0073 38.5715C29.7875 38.2418 29.4029 38.1869 29.0732 38.3517Z" fill="#6BD340"/>
<path d="M30.8864 34.3957L25.0073 37.9671C24.6776 38.1869 24.6227 38.5715 24.7875 38.9012C24.8974 39.1209 25.337 39.3957 25.7216 39.1759L31.6007 35.5495C31.9304 35.3297 31.9853 34.9451 31.8205 34.6155C31.6007 34.2858 31.2161 34.2308 30.8864 34.3957Z" fill="#6BD340"/>
<path d="M43.7985 28.8462L40.8315 31.7033L39.8974 30.989C39.5678 30.7692 39.1831 30.8791 38.9634 31.1539C38.7436 31.4835 38.8535 31.8681 39.1282 32.0879L40.5568 33.1319C40.8864 33.2967 41.271 33.1868 41.4908 32.967L44.7326 29.7802C44.9524 29.5055 45.0073 29.1209 44.7326 28.8462C44.4579 28.6264 44.0732 28.5714 43.7985 28.8462Z" fill="#6BD340"/>
<path d="M41.7108 23.9562L41.6009 14.2859C41.6009 14.0661 41.491 13.8463 41.2712 13.7364C41.2163 13.6815 22.3152 2.96718 22.3152 2.96718C22.0954 2.85729 21.8756 2.85729 21.6559 2.96718C21.6559 2.96718 2.64487 13.8463 2.58992 13.9012C2.37014 14.0111 2.26025 14.2309 2.26025 14.4507L2.48003 36.5386C2.48003 36.7584 2.58992 36.9782 2.8097 37.0881L21.7657 47.8573C21.9855 47.9672 22.3152 47.9672 22.4251 47.9122L36.491 39.7254C37.7548 40.4947 39.2932 40.9342 40.8866 40.9342C45.6119 40.9342 49.4031 37.0881 49.4031 32.4177C49.4031 28.0221 45.9965 24.3408 41.7108 23.9562ZM33.524 10.9342L16.1064 21.2089L9.513 17.4727L27.2603 7.2529L33.524 10.9342ZM15.7767 30.165L14.513 28.5716L12.6449 29.176L10.557 26.4837L9.40311 27.0331L9.23828 18.8463L10.557 19.6155L15.6119 22.5276L15.7767 30.165ZM21.9855 4.23092L25.9965 6.48367L8.24926 16.7584L4.23828 14.4507L21.9855 4.23092ZM3.79872 36.0991L3.57894 15.6045L7.86465 18.0771L8.08443 29.0661L10.0625 28.132L12.0405 30.7144L13.9636 30.11L17.0954 33.9562L16.9306 23.2419L21.2163 25.7144L21.4361 46.154L3.79872 36.0991ZM21.8756 24.5056L17.3701 21.9232L34.9526 11.5386L39.6229 14.176L21.8756 24.5056ZM22.7548 46.154L22.535 25.6595L40.3372 15.4397L40.3921 23.9013C35.9416 24.176 32.3701 27.9122 32.3701 32.4177C32.3701 35.0002 33.524 37.3078 35.3372 38.9013L22.7548 46.154ZM46.491 36.9232L45.6668 36.0991L44.7328 37.0331L45.557 37.8573C44.458 38.7914 43.1394 39.3958 41.6559 39.5606V38.2969H40.3372V39.5606C38.8537 39.4507 37.48 38.9012 36.3811 37.9672L37.3152 37.0331L36.3811 36.0991L35.4471 37.0331C34.513 35.9342 33.9086 34.5606 33.7438 33.0771H35.1174V31.7584H33.7438C33.8537 30.2199 34.513 28.8463 35.4471 27.7474L36.4361 28.7364L37.3701 27.8023L36.3811 26.8133C37.48 25.8793 38.8537 25.3298 40.3921 25.2199V26.5386H41.7108V25.2199C43.1943 25.3848 44.5679 25.9892 45.6668 26.9232L44.7877 27.8023L45.7218 28.7364L46.6009 27.8573C47.48 28.9562 48.0295 30.2749 48.1394 31.7584H46.9855V33.0771H48.1394C47.9196 34.5056 47.3152 35.8243 46.491 36.9232Z" fill="#6BD340"/>
</svg>
