<svg width="24" height="24" viewBox="0 0 24 24" fill="none" xmlns="http://www.w3.org/2000/svg">
<path d="M21.557 2.86636C21.4167 2.72573 21.25 2.61416 21.0665 2.53804C20.8829 2.46191 20.6862 2.42273 20.4875 2.42273C20.2889 2.42273 20.0921 2.46191 19.9086 2.53804C19.7251 2.61416 19.5584 2.72573 19.4181 2.86636L12 10.2693L4.58194 2.85119C4.4415 2.71075 4.27476 2.59934 4.09126 2.52333C3.90776 2.44732 3.71109 2.4082 3.51247 2.4082C3.31385 2.4082 3.11717 2.44732 2.93367 2.52333C2.75017 2.59934 2.58344 2.71075 2.44299 2.85119C2.30255 2.99164 2.19114 3.15837 2.11513 3.34187C2.03912 3.52537 2 3.72205 2 3.92067C2 4.11929 2.03912 4.31596 2.11513 4.49946C2.19114 4.68297 2.30255 4.8497 2.44299 4.99014L9.86105 12.4082L2.44299 19.8263C2.30255 19.9667 2.19114 20.1334 2.11513 20.3169C2.03912 20.5004 2 20.6971 2 20.8957C2 21.0944 2.03912 21.291 2.11513 21.4745C2.19114 21.658 2.30255 21.8248 2.44299 21.9652C2.58344 22.1057 2.75017 22.2171 2.93367 22.2931C3.11717 22.3691 3.31385 22.4082 3.51247 22.4082C3.71109 22.4082 3.90776 22.3691 4.09126 22.2931C4.27476 22.2171 4.4415 22.1057 4.58194 21.9652L12 14.5472L19.4181 21.9652C19.5585 22.1057 19.7252 22.2171 19.9087 22.2931C20.0922 22.3691 20.2889 22.4082 20.4875 22.4082C20.6862 22.4082 20.8828 22.3691 21.0663 22.2931C21.2498 22.2171 21.4166 22.1057 21.557 21.9652C21.6975 21.8248 21.8089 21.658 21.8849 21.4745C21.9609 21.291 22 21.0944 22 20.8957C22 20.6971 21.9609 20.5004 21.8849 20.3169C21.8089 20.1334 21.6975 19.9667 21.557 19.8263L14.1389 12.4082L21.557 4.99014C22.1335 4.41369 22.1335 3.44282 21.557 2.86636Z" fill="#E41D2C"/>
</svg>
