<svg width="50" height="50" viewBox="0 0 50 50" fill="none" xmlns="http://www.w3.org/2000/svg">
<g clip-path="url(#clip0_90_271)">
<path fill-rule="evenodd" clip-rule="evenodd" d="M15.2721 28.8272H11.4474C11.0142 28.8272 10.663 28.4761 10.663 28.0429V18.7379C10.663 18.3048 11.0142 17.9536 11.4474 17.9536H15.32C16.0662 17.4116 16.8837 16.8956 17.5319 16.2643C18.1175 15.6939 18.5557 15.0213 18.5557 14.0845V11.2598C18.5557 10.8265 18.9069 10.4755 19.34 10.4755C21.6343 10.4755 23.5124 12.3535 23.5124 14.6478V16.8387C23.5124 16.8746 23.5099 16.9104 23.505 16.9459C23.4816 17.116 23.4348 17.3095 23.3625 17.5164C23.4775 17.4969 23.5956 17.4868 23.7159 17.4868H27.0697C28.2415 17.4868 29.2 18.4454 29.2 19.6171C29.2 19.9826 29.1067 20.3273 28.9429 20.6288C29.4437 21.0194 29.7673 21.6282 29.7673 22.309C29.7673 23.1125 29.3167 23.8157 28.6556 24.1784C28.7626 24.4317 28.8218 24.7098 28.8218 25.001C28.8218 25.7594 28.422 26.4274 27.8233 26.8056C27.9488 27.0765 28.019 27.3779 28.019 27.6949C28.019 28.8666 27.0605 29.8251 25.8887 29.8251H23.7159C23.5635 29.8251 23.4148 29.8089 23.2714 29.7781C19.5802 30.4136 17.4402 30.7421 15.2721 28.8272ZM14.7935 19.5222H12.2317V27.2586H14.7935V19.5222ZM21.2754 23.3206C20.9934 23.5348 20.7283 23.7032 20.5213 23.8221C20.1459 24.0376 19.6662 23.9079 19.4506 23.5325C19.235 23.1571 19.3647 22.6774 19.7401 22.4618C20.4348 22.0628 22.4 20.8444 21.1416 19.0083C20.928 18.6968 20.9669 18.2773 21.2339 18.0103C21.6458 17.5984 21.8818 17.1234 21.9437 16.7778V14.6478C21.9437 13.489 21.1761 12.5005 20.1243 12.1656V14.0845C20.1243 15.4955 19.5083 16.5289 18.6263 17.388C17.9606 18.0364 17.1327 18.5778 16.3625 19.1344C16.3671 23.8975 16.3678 26.7523 16.3649 27.6979C17.3595 28.5465 18.3572 28.7681 19.5947 28.7112C20.2385 28.6815 20.94 28.5826 21.7256 28.4524C21.6352 28.2167 21.5856 27.9613 21.5856 27.6949C21.5856 27.1852 21.767 26.7159 22.0683 26.3482C21.767 25.9801 21.5856 25.5105 21.5856 25.001C21.5856 24.6355 21.6788 24.2907 21.8428 23.9893C21.6107 23.8084 21.4168 23.5806 21.2754 23.3206ZM23.5563 28.2332C23.6069 28.2484 25.8887 28.2565 25.8887 28.2565C26.1977 28.2565 26.4504 28.0038 26.4504 27.6949C26.4504 27.3859 26.1977 27.1332 25.8887 27.1332H25.8878H23.7194C23.7182 27.1332 23.7171 27.1332 23.7159 27.1332C23.407 27.1332 23.1542 27.3859 23.1542 27.6949C23.1542 27.9401 23.3134 28.1498 23.5335 28.226C23.5411 28.2284 23.5487 28.2309 23.5563 28.2332ZM23.7159 25.5646H26.6915C27.0007 25.5646 27.2531 25.3111 27.2531 25.001C27.2531 24.692 27.0004 24.4393 26.6915 24.4393H23.7159C23.407 24.4393 23.1542 24.692 23.1542 25.001C23.1542 25.309 23.4047 25.5626 23.7124 25.5646H23.7159ZM23.1485 22.8707H27.6371C27.946 22.8707 28.1986 22.618 28.1986 22.309C28.1986 22.0001 27.946 21.7474 27.6371 21.7474H23.1485C22.8396 21.7474 22.5869 22.0001 22.5869 22.309C22.5869 22.618 22.8396 22.8707 23.1485 22.8707ZM27.0697 20.1788C27.3786 20.1788 27.6314 19.9261 27.6314 19.6171C27.6314 19.3082 27.3786 19.0555 27.0697 19.0555H23.7159C23.407 19.0555 23.1542 19.3082 23.1542 19.6171C23.1542 19.9261 23.407 20.1788 23.7159 20.1788H27.0697ZM31.3613 40.9827L30.5288 40.6264C29.3354 40.1149 28.6463 38.9214 28.7986 37.6336L28.7987 37.6326L28.9864 36.0632C28.9865 36.0624 28.9866 36.0615 28.9867 36.0608C29.0197 35.7911 28.976 35.5528 28.8554 35.3113C28.8554 35.3113 28.143 33.9023 28.1436 33.9036C27.5556 32.7456 27.7946 31.3877 28.7422 30.4983L29.8943 29.4174L29.8958 29.4161C30.0935 29.2315 30.2137 29.0221 30.2747 28.7601L30.2751 28.7585C30.2751 28.7585 30.6363 27.2214 30.6367 27.2197C30.9308 25.9564 31.9868 25.07 33.2828 24.9974L33.2834 24.9973L34.8612 24.9102C35.1315 24.8954 35.3591 24.8137 35.5734 24.6522C35.574 24.6517 35.5746 24.6514 35.5751 24.6509L36.8408 23.7023L36.8423 23.7012C37.8829 22.9252 39.2573 22.9252 40.2979 23.7012L40.2995 23.7023L41.5646 24.6506C41.7813 24.8126 42.0079 24.8953 42.2791 24.9102L43.8568 24.9973L43.8574 24.9974C45.1534 25.07 46.2095 25.9564 46.5031 27.2181L46.8651 28.7585L46.8655 28.7601C46.9265 29.0221 47.0467 29.2315 47.2444 29.4161L47.2459 29.4174L48.398 30.4983C49.3456 31.3877 49.5847 32.7456 48.9972 33.9023C48.9972 33.9023 48.2848 35.3113 48.2839 35.3129C48.164 35.554 48.1206 35.7916 48.1536 36.0608C48.1537 36.0615 48.1538 36.0624 48.1539 36.0632L48.3415 37.6326L48.3416 37.6336C48.494 38.9216 47.8079 40.1152 46.6111 40.6265L45.7789 40.9827C46.4834 42.4966 48.038 45.8371 48.04 45.8414C48.2064 46.1883 48.1616 46.5617 47.9346 46.8503C47.71 47.1479 47.366 47.2841 46.9948 47.217L44.7027 46.8172C44.7027 46.8172 43.5334 48.8251 43.5322 48.8271C43.3521 49.1425 43.0252 49.327 42.6536 49.3133C42.2845 49.2997 41.9784 49.1024 41.8144 48.7606C41.813 48.7578 41.8118 48.7551 41.8105 48.7522L39.5872 43.9771L38.9498 43.7847C38.9484 43.7843 38.9472 43.7839 38.9459 43.7835C38.6905 43.7049 38.4498 43.7049 38.1944 43.7835C38.193 43.7839 38.1918 43.7843 38.1904 43.7847L37.553 43.9771C37.0344 45.0912 35.3322 48.7471 35.3327 48.7461C35.1775 49.0901 34.8606 49.2995 34.4866 49.3133C34.1154 49.327 33.7888 49.1428 33.609 48.8289L32.4397 46.8172L30.1454 47.2171C29.7724 47.2842 29.4275 47.1466 29.2066 46.8514C28.9794 46.56 28.9349 46.1903 29.0976 45.8471L31.3613 40.9827ZM44.473 41.8945L43.7118 43.0586C43.1978 43.8453 42.3808 44.3082 41.4974 44.3634C41.8914 45.2098 42.3893 46.2791 42.7498 47.0535L43.6219 45.5561C43.7871 45.2725 44.1112 45.1217 44.4344 45.1781L46.1396 45.4756L44.473 41.8945ZM35.6428 44.3634C34.7595 44.3083 33.9425 43.8454 33.4286 43.0589L32.6672 41.8945L31.0005 45.4758L32.7085 45.1781C33.032 45.1217 33.3563 45.2728 33.5213 45.5566L34.3909 47.0525L35.6428 44.3634ZM39.3603 24.9587L39.3587 24.9575C38.8831 24.6039 38.2557 24.6042 37.7803 24.9584C37.7803 24.9584 36.5194 25.9035 36.5177 25.9048C36.0449 26.2612 35.5434 26.4437 34.9474 26.4764L33.3706 26.5636C32.7801 26.5966 32.2984 26.9998 32.1645 27.5753L32.1641 27.5769C32.1641 27.5769 31.8029 29.114 31.8026 29.1157C31.6679 29.6938 31.4025 30.1556 30.9676 30.5614L29.8157 31.6419C29.384 32.0472 29.2743 32.6657 29.5423 33.1933L29.5429 33.1946L30.2563 34.6055C30.2569 34.6065 30.2574 34.6075 30.2578 34.6086C30.5227 35.1382 30.6161 35.6606 30.5438 36.2494L30.3564 37.818C30.2869 38.4061 30.6018 38.9511 31.1468 39.1846C31.1468 39.1846 32.5919 39.8032 32.5944 39.8043C33.1426 40.0366 33.5499 40.3806 33.8766 40.8779L33.8775 40.8792L34.7417 42.2006C35.0662 42.6974 35.656 42.9103 36.224 42.7398L37.7364 42.2832C38.303 42.1095 38.8373 42.1095 39.4039 42.2832L40.9163 42.7398C41.4842 42.9103 42.074 42.6974 42.3986 42.2006L43.2627 40.8792L43.2636 40.8779C43.5904 40.3806 43.9977 40.0366 44.5432 39.8054L45.9937 39.1845L45.9942 39.1843C46.5407 38.9508 46.8533 38.4059 46.7838 37.818C46.7838 37.818 46.597 36.2542 46.5967 36.2518C46.5241 35.6606 46.6176 35.1382 46.8824 34.6086C46.8829 34.6075 46.8834 34.6065 46.8839 34.6055L47.5974 33.1946L47.5979 33.1933C47.8659 32.6657 47.7562 32.0472 47.3245 31.6419C47.3245 31.6419 46.1756 30.5642 46.1741 30.5628C45.7379 30.1556 45.4723 29.6938 45.3381 29.1173L44.9761 27.5769L44.9758 27.5753C44.8418 26.9998 44.3601 26.5966 43.7697 26.5636L42.1931 26.4764C41.5978 26.4438 41.1005 26.2622 40.6249 25.9065L40.6243 25.9061L39.3603 24.9587ZM38.5715 40.0505C35.0983 40.0505 32.265 37.217 32.265 33.744C32.265 30.271 35.0983 27.4375 38.5715 27.4375C42.0416 27.4375 44.8752 30.2708 44.8752 33.744C44.8752 37.2171 42.0416 40.0505 38.5715 40.0505ZM38.5715 38.4818C41.1782 38.4818 43.3066 36.3531 43.3066 33.744C43.3066 31.1349 41.1782 29.0062 38.5715 29.0062C35.9623 29.0062 33.8336 31.1348 33.8336 33.744C33.8336 36.3532 35.9623 38.4818 38.5715 38.4818ZM35.4354 34.4453C35.1363 34.1324 35.1476 33.6355 35.4604 33.3364C35.7733 33.0373 36.2702 33.0485 36.5693 33.3615L37.5271 34.3633L40.5979 31.4489C40.912 31.1509 41.4087 31.1639 41.7068 31.4779C42.0047 31.7918 41.9918 32.2887 41.6777 32.5866L38.04 36.0391C37.7266 36.3365 37.2317 36.3245 36.9331 36.0121L35.4354 34.4453ZM28.0564 42.6087C28.4258 42.3831 28.9089 42.4999 29.1344 42.8694C29.36 43.2388 29.2432 43.7219 28.8737 43.9475C26.5184 45.3855 23.8727 46.4079 21.0312 46.9027L20.3501 47.0237C20.2594 47.0399 20.1665 47.0399 20.0758 47.0237L19.3947 46.9027C8.63893 45.0287 0.686279 35.5879 0.686279 24.6599V9.50714C0.686279 9.19341 0.87324 8.90988 1.16148 8.78635L19.9038 0.749979C20.1012 0.665371 20.3246 0.665371 20.522 0.749979L39.2688 8.78625C39.5572 8.90988 39.7441 9.19341 39.7441 9.50714V21.1432C39.7441 21.5762 39.3927 21.9275 38.9598 21.9275C38.527 21.9275 38.1755 21.5762 38.1755 21.1432V10.0243L20.2129 2.3242C17.8137 3.35292 2.25491 10.0242 2.25491 10.0242V24.6599C2.25491 34.8293 9.65608 43.6145 19.6655 45.3577C19.6664 45.3578 19.6673 45.358 19.6681 45.3581L20.2129 45.4549L20.7578 45.3581C20.7587 45.358 20.7596 45.3578 20.7605 45.3576C23.4039 44.8975 25.8652 43.9464 28.0564 42.6087ZM34.3597 22.5761C34.3597 23.0089 34.0082 23.3604 33.5754 23.3604C33.1425 23.3604 32.7911 23.0089 32.7911 22.5761V13.5691L20.213 8.17978L7.63932 13.5691V24.6599C7.63932 32.0871 12.9683 38.5361 20.2131 39.9871C22.6589 39.4975 24.8859 38.4386 26.7633 36.9652C27.1039 36.698 27.5974 36.7575 27.8646 37.098C28.1319 37.4386 28.0724 37.932 27.7318 38.1992C25.6237 39.8535 23.1153 41.0326 20.3595 41.5568C20.2627 41.5752 20.1631 41.5752 20.0663 41.5567C12.0129 40.0241 6.07069 32.8872 6.07069 24.6599V13.0519C6.07069 12.7382 6.25765 12.4546 6.54608 12.3311L19.9039 6.60557C20.1013 6.52096 20.3246 6.52096 20.5219 6.60557L33.8842 12.331C34.1726 12.4546 34.3597 12.7381 34.3597 13.0519V22.5761Z" fill="#6BD340"/>
</g>
<defs>
<clipPath id="clip0_90_271">
<rect width="50" height="50" fill="white"/>
</clipPath>
</defs>
</svg>
