<svg width="24" height="24" viewBox="0 0 24 24" fill="none" xmlns="http://www.w3.org/2000/svg">
<path d="M14.4 7C13.075 7 12 8.12 12 9.5C12 9.712 12.0243 9.91633 12.073 10.113C11.9488 10.1209 11.8244 10.1249 11.7 10.125C9.68 10.125 7.904 8.717 6.892 7.065C6.69745 7.75586 6.59919 8.47027 6.6 9.188C6.6 11.255 7.402 13.438 8.7 14.795C8.7 15.53 6.9 15.903 6 15.998C7.08602 16.6544 8.33103 17.0009 9.6 17C13.489 17 16.657 13.79 16.795 9.774L18 7.313L15.988 7.625C15.5562 7.22419 14.9891 7.001 14.4 7Z" stroke="white" stroke-width="1.5" stroke-linecap="round" stroke-linejoin="round"/>
<path d="M2.5 12C2.5 7.522 2.5 5.282 3.891 3.891C5.282 2.5 7.521 2.5 12 2.5C16.478 2.5 18.718 2.5 20.109 3.891C21.5 5.282 21.5 7.521 21.5 12C21.5 16.478 21.5 18.718 20.109 20.109C18.718 21.5 16.479 21.5 12 21.5C7.522 21.5 5.282 21.5 3.891 20.109C2.5 18.718 2.5 16.479 2.5 12Z" stroke="white" stroke-width="1.5" stroke-linecap="round" stroke-linejoin="round"/>
</svg>
