<svg width="40" height="40" viewBox="0 0 40 40" fill="none" xmlns="http://www.w3.org/2000/svg">
<path d="M37.2687 8.00879H2.73125C1.39609 8.00879 0.313721 9.09115 0.313721 10.4263V30.7631C0.313721 32.0983 1.39609 33.1806 2.73125 33.1806H37.2687C38.6039 33.1806 39.6863 32.0983 39.6863 30.7631V10.4263C39.6863 9.09115 38.6039 8.00879 37.2687 8.00879Z" fill="url(#paint0_linear_90_100)"/>
<path fill-rule="evenodd" clip-rule="evenodd" d="M10.8146 20.3548L10.9899 19.6628C11.6635 19.4598 13.0384 19.3675 13.2967 20.0964C13.4444 20.5209 13.0199 22.2833 12.9369 22.8L12.2817 22.8092C12.1341 22.6247 12.254 22.9661 12.1525 22.514C11.5251 23.0768 10.1871 22.9846 10.2886 21.8496C10.3901 20.7239 11.3682 20.8715 12.4294 20.7054C12.4109 19.9857 11.5066 20.1795 10.8054 20.3456L10.8146 20.3548ZM15.7512 20.2441C15.1514 20.2441 15.0591 20.1149 14.5332 20.3456C14.5978 21.0007 14.9392 20.7423 15.4098 21.0561C16.3048 21.6466 15.3452 23.4736 13.2137 22.6893L13.3336 22.0249C13.9334 22.1449 14.2379 22.2648 14.6993 22.0065C14.81 21.0745 13.1583 21.6835 13.6197 20.1887C13.8688 19.3767 14.9668 19.4874 15.8711 19.5705L15.7419 20.2441H15.7512ZM6.56085 18.8323L7.97261 18.8784L8.12025 21.093L8.88611 19.3214C9.14447 18.6847 8.96915 18.8231 10.5931 18.8415L9.86419 22.8L9.07065 22.7908L9.50433 19.9488L8.33247 22.8092L7.38207 22.7816C7.35439 22.2279 7.30825 20.281 7.16062 19.9119L6.6808 22.7908L5.85035 22.7816L6.56085 18.8323ZM20.0234 27.2383L20.4109 26.7769C19.6358 26.6755 19.4974 26.8969 19.1468 26.2695L20.9276 26.251C21.0384 26.0665 21.2229 25.8911 21.3152 25.6789C19.2852 25.5405 18.7131 26.0572 18.3901 25.1714H21.6474L22.0072 24.6086L17.9841 24.5901L17.7996 24.1195L22.1364 24.1011C22.3855 23.9626 22.3855 23.8058 22.4501 23.5197L18.344 23.5105C17.6058 23.5197 17.5597 23.6858 17.4213 23.0122H22.5885L22.7546 22.4402L21.2414 22.4217L21.1675 22.8092L20.3002 22.7723L20.8446 19.552L21.6658 19.6628C21.6658 19.6812 21.6843 19.7458 21.6843 19.7735C21.6843 19.7919 21.6935 19.8196 21.6935 19.8289L21.7396 19.9949C21.9703 19.7181 22.1179 19.5151 22.6531 19.5336L22.3763 20.281C22.2194 20.484 21.7581 20.2533 21.5643 20.8069L22.4686 20.8438C22.5701 20.2625 22.6808 20.0872 22.8469 19.6166L22.8561 19.3398L17.1998 19.349L17.1814 19.552C17.4859 19.552 17.4766 19.4967 17.652 19.6443L17.5689 20.1887C16.9968 20.3271 17.0153 19.9857 16.9599 20.7331C17.043 20.8715 16.9415 20.7977 17.1168 20.8438L17.4766 20.8531C18.058 18.9615 19.7927 19.3767 20.1895 19.9673C20.4017 20.281 20.6139 21.3144 20.088 21.3975L18.3256 21.4159C18.4086 22.3479 19.479 22.1541 20.171 21.9234C20.1433 22.311 20.171 22.6247 19.8111 22.7539C19.5251 22.8554 18.9253 22.8277 18.6116 22.7539C17.8365 22.5786 17.5043 22.191 17.449 21.3513L17.1168 21.3421C16.8123 21.2037 17.0522 21.3421 16.8953 20.9638C16.7662 21.7389 16.4155 22.2372 17.3751 22.1264C17.3198 22.5878 17.3844 22.7447 16.8769 22.8C15.4005 22.9753 15.8803 21.988 16.1202 20.6685C16.4986 18.5647 16.2033 18.8231 17.2736 18.8415L22.7731 18.8508L22.6623 18.2787L17.3475 18.2602L17.449 17.7989L22.4778 17.7712C22.3486 16.9869 22.3209 17.1806 20.4939 17.1806C19.562 17.1806 18.6393 17.1806 17.7073 17.1806C17.9011 16.5071 17.7996 16.6916 19.6081 16.6916H22.0534L21.795 16.1103L18.2517 16.1011L18.4916 15.6212L21.4536 15.6028C21.0753 14.8277 21.0937 15.0492 18.9991 15.0122C19.2667 14.3479 19.7373 14.514 20.5585 14.514C20.3279 14.1449 20.1618 14.1726 20.0234 13.8588C19.682 13.6835 19.3775 13.3698 19.036 13.1299C16.4247 11.2844 12.8815 11.0907 10.0395 12.4748C7.48357 13.7112 4.97377 16.5716 5.00145 20.5301C5.03836 26.1864 10.0026 30.311 15.622 29.3513C18.261 28.8992 18.9253 27.8289 20.0141 27.2291L20.0234 27.2383Z" fill="#E41D2C"/>
<path fill-rule="evenodd" clip-rule="evenodd" d="M26.0487 19.6347C28.9091 19.0533 28.4385 20.4651 28.2078 21.6093C28.134 21.9507 28.134 22.6243 27.8664 22.8088C27.8018 22.8088 27.4235 22.818 27.3866 22.7996C27.1282 22.6981 27.2482 23.0026 27.2113 22.532C26.4362 22.9749 25.209 23.0764 25.3566 21.84C25.4766 20.8526 26.4731 20.6958 27.4881 20.7419C27.4512 20.013 26.7868 20.1329 25.8641 20.3636L26.0579 19.6347H26.0487ZM28.8722 19.5516L29.6381 19.5608C29.6473 19.5793 29.6565 19.607 29.6565 19.6254L29.7765 19.9668C29.9149 19.7546 30.1732 19.5701 30.5792 19.5608L30.4685 20.216L30.0902 20.3636C29.3336 20.6127 29.3797 21.5631 29.1767 22.8088H28.3186L28.8722 19.5516ZM32.9414 18.8503H33.7257L33.0521 22.818C32.1755 22.8273 32.3878 22.8734 32.1109 22.5412C31.5389 23.3901 29.8226 22.6058 30.3485 20.8526C30.7361 19.5424 32.0464 19.1917 32.6923 19.9668L32.9506 18.8411L32.9414 18.8503ZM20.0325 13.8676C20.1709 14.1814 20.3462 14.1537 20.5677 14.5228C19.7465 14.5228 19.2759 14.3475 19.0083 15.021C21.1029 15.058 21.0844 14.8365 21.4627 15.6116L18.5008 15.63L18.2609 16.1099L21.8041 16.1191L22.0625 16.7004C21.2505 16.7004 20.4385 16.7004 19.6173 16.7004C17.818 16.7004 17.9103 16.5251 17.7165 17.1894H20.5031C22.3301 17.1894 22.3578 16.9957 22.487 17.78L17.4581 17.8077L17.3566 18.269L22.6715 18.2875L22.7822 18.8596L17.2828 18.8503L17.209 19.3671L22.8653 19.3578L22.856 19.6347C23.2805 19.2287 23.2067 19.0164 24.0002 18.7858C24.6554 18.6012 25.0706 18.7396 25.7165 18.878L25.5781 19.7269C24.4708 19.3947 23.7511 19.4778 23.4927 20.622C23.2067 21.8492 24.1755 22.3105 25.1998 21.8215C25.1075 22.7165 24.9598 22.938 23.9079 22.7996C23.179 22.7073 22.9575 22.3567 22.6346 21.923H21.3151L21.2413 22.4305L22.7545 22.449L22.5885 23.021H17.4212C17.5596 23.6946 17.6058 23.5285 18.3439 23.5193L22.45 23.5285C22.3762 23.8054 22.3855 23.9714 22.1363 24.1099L17.7995 24.1283L17.9841 24.5989L22.0071 24.6174L21.6473 25.1802H18.3901C18.713 26.0568 19.2851 25.5493 21.3151 25.6877C21.2228 25.8999 21.0383 26.0753 20.9276 26.2598L19.1467 26.2783C19.4881 26.8965 19.6357 26.6843 20.4108 26.7858L20.0233 27.2471C21.3428 28.216 22.367 29.028 24.4985 29.3971C26.4362 29.7292 28.457 29.3601 30.0164 28.5943C36.7707 25.2633 36.5861 15.667 29.961 12.4928C27.5804 11.3578 24.4247 11.2563 21.961 12.5482C20.7707 13.1664 20.4846 13.6093 20.0417 13.8769L20.0325 13.8676Z" fill="#F8B02B"/>
<path fill-rule="evenodd" clip-rule="evenodd" d="M5.85034 22.7915L6.68079 22.8007L7.16061 19.9218C7.30824 20.2909 7.35438 22.2379 7.38206 22.7915L8.33246 22.8192L9.50432 19.9587L9.07064 22.8007L9.86418 22.8099L10.5931 18.8515C8.96914 18.833 9.14446 18.6946 8.8861 19.3313L8.12024 21.1029L7.9726 18.8884L6.56084 18.8422L5.85034 22.7915Z" fill="#FEFEFE"/>
<path fill-rule="evenodd" clip-rule="evenodd" d="M31.5576 22.0617C30.8656 21.3512 31.4561 20.1701 32.102 20.3269C32.7387 20.4838 32.6187 22.0432 31.5576 22.0617ZM32.6833 19.9671C32.0374 19.192 30.7364 19.5426 30.3396 20.8529C29.8137 22.5968 31.5299 23.3904 32.102 22.5415C32.3788 22.8737 32.1666 22.8183 33.0432 22.8183L33.7168 18.8506H32.9325L32.6741 19.9763L32.6833 19.9671Z" fill="#FEFEFE"/>
<path fill-rule="evenodd" clip-rule="evenodd" d="M26.3441 22.0714C26.2149 21.4531 26.787 21.2132 27.3314 21.324C27.3591 21.9514 26.9162 22.2928 26.3441 22.0714ZM26.0488 19.6446L25.8551 20.3736C26.7778 20.1521 27.4514 20.0322 27.4791 20.7519C26.4641 20.7057 25.4675 20.8626 25.3476 21.8499C25.1907 23.0864 26.4272 22.9849 27.2023 22.542C27.2392 23.0125 27.1192 22.7081 27.3776 22.8095C27.4145 22.828 27.7928 22.8188 27.8574 22.8188C28.1342 22.6435 28.1342 21.9606 28.1988 21.6192C28.4387 20.4658 28.9001 19.0633 26.0396 19.6446H26.0488Z" fill="#FEFEFE"/>
<path fill-rule="evenodd" clip-rule="evenodd" d="M12.2818 21.2961C12.3003 21.6099 12.2449 21.8498 12.0419 22.0066C11.9035 22.1081 11.4883 22.2281 11.3222 22.0712C10.8055 21.6006 11.7743 21.2869 12.2726 21.2961H12.2818ZM10.8147 20.355C11.516 20.1889 12.4202 19.9951 12.4387 20.7148C11.3776 20.8809 10.3995 20.7333 10.298 21.859C10.1873 22.9939 11.5252 23.0862 12.1619 22.5234C12.2634 22.9755 12.1434 22.6341 12.2911 22.8186L12.9462 22.8094C13.0292 22.2834 13.4537 20.5303 13.3061 20.1058C13.0477 19.3676 11.6821 19.4599 10.9992 19.6721L10.8239 20.3642L10.8147 20.355Z" fill="#FEFEFE"/>
<path fill-rule="evenodd" clip-rule="evenodd" d="M18.464 20.8166C18.5839 20.3461 18.7869 20.1523 19.3313 20.2261C19.5251 20.5029 19.5251 20.4199 19.562 20.8166H18.464ZM17.4859 20.8628L17.449 21.361C17.5043 22.2007 17.8457 22.579 18.6116 22.7636C18.9253 22.8374 19.5251 22.8651 19.8111 22.7636C20.171 22.6436 20.1433 22.3207 20.171 21.9331C19.479 22.1638 18.4086 22.3576 18.3256 21.4256L20.088 21.4072C20.6139 21.3241 20.4017 20.2999 20.1895 19.977C19.7927 19.3864 18.058 18.9712 17.4767 20.8628H17.4859Z" fill="#FEFEFE"/>
<path fill-rule="evenodd" clip-rule="evenodd" d="M22.8561 19.6353C22.69 20.1059 22.5793 20.2812 22.4778 20.8625V21.37L22.6346 21.9329C22.9576 22.3665 23.1791 22.7172 23.908 22.8095C24.9599 22.9479 25.1075 22.7264 25.1998 21.8314C24.1664 22.3204 23.2067 21.859 23.4928 20.6318C23.7604 19.4784 24.4801 19.4046 25.5781 19.7368L25.7165 18.8879C25.0706 18.7587 24.6554 18.6203 24.0003 18.7956C23.2067 19.0171 23.2806 19.2385 22.8561 19.6445V19.6353Z" fill="#FEFEFE"/>
<path fill-rule="evenodd" clip-rule="evenodd" d="M15.8713 19.5706C14.967 19.4968 13.869 19.3768 13.6199 20.1888C13.1585 21.6836 14.8009 21.0746 14.6994 22.0066C14.2289 22.2649 13.9336 22.145 13.3338 22.025L13.2139 22.6894C15.3454 23.4737 16.2958 21.6559 15.4099 21.0562C14.9394 20.7425 14.598 21.01 14.5334 20.3457C15.0593 20.1058 15.1424 20.2442 15.7514 20.2442L15.8805 19.5706H15.8713Z" fill="#FEFEFE"/>
<path fill-rule="evenodd" clip-rule="evenodd" d="M16.9046 20.9736L16.9692 20.7522C17.0245 20.0047 17.0061 20.3462 17.5782 20.2077L17.6612 19.6633C17.4859 19.5157 17.4951 19.5711 17.1906 19.5711L17.2091 19.3681L17.2829 18.8513C16.2125 18.8329 16.5078 18.5745 16.1295 20.6783C15.8896 21.9978 15.4098 22.9851 16.8861 22.8098C17.3844 22.7545 17.329 22.5976 17.3844 22.1362C16.434 22.247 16.7846 21.7487 16.9046 20.9736Z" fill="#FEFEFE"/>
<path fill-rule="evenodd" clip-rule="evenodd" d="M21.2415 22.441L21.3153 21.9335L21.4076 21.3799L21.5737 20.8263C21.7767 20.2726 22.2381 20.5033 22.3857 20.3003L22.6625 19.5529C22.1181 19.5345 21.9705 19.7375 21.749 20.0143L21.7029 19.8482C21.7029 19.839 21.6937 19.8113 21.6937 19.7928C21.6937 19.7744 21.6752 19.7006 21.6752 19.6821L20.854 19.5714L20.3096 22.7917L21.1769 22.8286L21.2507 22.441H21.2415Z" fill="#FEFEFE"/>
<path fill-rule="evenodd" clip-rule="evenodd" d="M28.3186 22.809H29.1767C29.3797 21.5633 29.3336 20.6129 30.0902 20.3638L30.4685 20.2161L30.5793 19.561C30.1733 19.5702 29.9149 19.7548 29.7765 19.967L29.6566 19.6256C29.6473 19.6071 29.6473 19.5794 29.6381 19.561L28.8722 19.5518L28.3186 22.809Z" fill="#FEFEFE"/>
<path fill-rule="evenodd" clip-rule="evenodd" d="M31.5574 22.0614C32.6277 22.0429 32.7477 20.4835 32.1018 20.3267C31.4466 20.1698 30.8653 21.3509 31.5574 22.0614Z" fill="#F8B02B"/>
<path fill-rule="evenodd" clip-rule="evenodd" d="M12.2817 21.2961C11.7834 21.2869 10.8145 21.6006 11.3313 22.0712C11.4973 22.2188 11.9126 22.0989 12.051 22.0066C12.254 21.859 12.3001 21.6098 12.2909 21.2961H12.2817Z" fill="#E41D2C"/>
<path fill-rule="evenodd" clip-rule="evenodd" d="M21.3149 21.9238L22.6344 21.933L22.4776 21.3701H21.4072L21.3149 21.9238Z" fill="#E41D2C"/>
<path fill-rule="evenodd" clip-rule="evenodd" d="M26.3439 22.0707C26.9252 22.283 27.3589 21.9508 27.3312 21.3233C26.7776 21.2218 26.2147 21.4617 26.3439 22.0707Z" fill="#F8B02B"/>
<path fill-rule="evenodd" clip-rule="evenodd" d="M21.4072 21.37H22.4776V20.8625L21.5733 20.8164L21.4072 21.37Z" fill="#F8B02B"/>
<path fill-rule="evenodd" clip-rule="evenodd" d="M18.4639 20.8158H19.5619C19.5342 20.4282 19.525 20.502 19.3312 20.2252C18.7868 20.1514 18.5838 20.3452 18.4639 20.8158Z" fill="#E41D2C"/>
<path fill-rule="evenodd" clip-rule="evenodd" d="M16.9045 20.9729C17.0614 21.3512 16.8215 21.2128 17.126 21.3512L17.4582 21.3604L17.4951 20.8621L17.1352 20.8529C16.9507 20.816 17.0522 20.8806 16.9784 20.7422L16.9138 20.9636L16.9045 20.9729Z" fill="#F8B02B"/>
<defs>
<linearGradient id="paint0_linear_90_100" x1="19.9996" y1="8.0123" x2="19.9996" y2="33.1861" gradientUnits="userSpaceOnUse">
<stop stop-color="#1D4C80"/>
<stop offset="1" stop-color="#173A63"/>
</linearGradient>
</defs>
</svg>
