<svg width="40" height="40" viewBox="0 0 40 40" fill="none" xmlns="http://www.w3.org/2000/svg">
<g clip-path="url(#clip0_90_72)">
<path d="M30.3932 7.25176C29.5126 6.41341 28.2358 6.14078 27.0896 6.54636C26.7655 6.65468 26.5294 6.93566 26.4787 7.27358L26.2242 9.02263C25.8382 11.6644 23.5778 13.6264 20.908 13.637H17.2717C16.8545 13.6371 16.4909 13.9212 16.3899 14.326L13.6627 25.2347C13.5412 25.7219 13.8376 26.2152 14.3248 26.3368C14.3966 26.3546 14.4704 26.3638 14.5445 26.3638H19.0897C19.507 26.3637 19.8706 26.0795 19.9715 25.6747L21.617 19.0913H25.1623C27.8838 19.1004 30.258 17.2454 30.9075 14.6024L31.5784 11.9134C32.0507 10.2594 31.598 8.47933 30.3932 7.25176Z" fill="#03A9F4"/>
<path d="M0.90883 37.2721C0.406775 37.272 -0.000170395 36.8649 5.35244e-08 36.3628C5.35244e-08 36.2888 0.00911903 36.2149 0.0270161 36.1431L0.936101 32.5251V32.4869L1.84519 28.8707C1.94618 28.4659 2.30974 28.1817 2.727 28.1816H5.03964C6.29482 28.1814 7.31248 29.1986 7.31282 30.4538C7.31282 30.6397 7.29007 30.8249 7.24507 31.0052L7.01778 31.9143C6.76492 32.9263 5.85558 33.6362 4.81243 33.6361H2.52877L1.79243 36.5832C1.69127 36.9885 1.32668 37.2728 0.90883 37.2721ZM2.98327 31.8177H4.81226C5.02081 31.8171 5.20216 31.6747 5.25227 31.4723L5.47957 30.5632C5.54187 30.3211 5.39596 30.0743 5.15384 30.0121C5.11651 30.0025 5.07816 29.9977 5.03956 29.9979H3.43777L2.98327 31.8177Z" fill="#283593"/>
<path d="M10.6302 37.2717H9.33569C7.94398 37.272 6.81553 36.1441 6.81519 34.7524C6.8151 34.5462 6.84041 34.3408 6.89035 34.1409L7.01035 33.6572C7.2794 32.5718 8.25564 31.8111 9.37387 31.8154H10.6683C12.06 31.8178 13.1863 32.948 13.1839 34.3397C13.1836 34.5448 13.1582 34.7491 13.1083 34.948L12.9883 35.4317C12.719 36.5144 11.7458 37.2737 10.6302 37.2717ZM8.65568 34.5827C8.56228 34.9589 8.79153 35.3395 9.16771 35.4329C9.22268 35.4465 9.27901 35.4534 9.33569 35.4536H10.6302C10.9105 35.4543 11.1551 35.2638 11.2229 34.9917L11.3429 34.5081C11.4363 34.1319 11.207 33.7513 10.8309 33.6579C10.7759 33.6443 10.7196 33.6374 10.6629 33.6372H9.36841C9.08811 33.6364 8.84352 33.827 8.77568 34.099L8.65568 34.5827Z" fill="#283593"/>
<path d="M11.8175 37.2716C11.3155 37.2715 10.9086 36.8644 10.9087 36.3623C10.9087 36.2882 10.9178 36.2144 10.9357 36.1426L11.8448 32.5063C11.9663 32.0189 12.4599 31.7221 12.9475 31.8436C13.435 31.9652 13.7317 32.4588 13.6102 32.9463L12.7011 36.5826C12.6 36.9881 12.2354 37.2724 11.8175 37.2716Z" fill="#283593"/>
<path d="M22.7262 37.2722C22.2242 37.272 21.8173 36.8649 21.8174 36.3628C21.8174 36.2888 21.8265 36.2149 21.8444 36.1431L22.7535 32.5251V32.4869L23.6626 28.8707C23.7636 28.4659 24.1271 28.1817 24.5444 28.1816H26.857C28.1122 28.1814 29.1299 29.1986 29.1302 30.4538C29.1302 30.6397 29.1074 30.8249 29.0625 31.0052L28.8352 31.9143C28.5823 32.9263 27.673 33.6362 26.6298 33.6361H24.3462L23.6099 36.5832C23.5087 36.9886 23.1441 37.2729 22.7262 37.2722ZM24.8007 31.8178H26.6315C26.8401 31.8172 27.0214 31.6748 27.0715 31.4724L27.2988 30.5633C27.361 30.3212 27.2152 30.0744 26.9731 30.0122C26.9358 30.0025 26.8973 29.9978 26.8588 29.9979H25.2552L24.8007 31.8178Z" fill="#03A9F4"/>
<path d="M32.4475 37.2717H31.1531C29.7614 37.272 28.6329 36.1441 28.6326 34.7524C28.6325 34.5462 28.6578 34.3408 28.7077 34.1409L28.8277 33.6572C29.0968 32.5718 30.073 31.8111 31.1913 31.8154H32.4857C33.8774 31.8151 35.0059 32.943 35.0062 34.3348C35.0063 34.5409 34.981 34.7463 34.9311 34.9462L34.8111 35.4299C34.542 36.5153 33.5658 37.276 32.4475 37.2717ZM30.4731 34.5827C30.3797 34.9589 30.6089 35.3395 30.9851 35.4329C31.0401 35.4465 31.0964 35.4534 31.1531 35.4536H32.4475C32.7278 35.4543 32.9724 35.2638 33.0403 34.9917L33.1603 34.5081C33.2537 34.1319 33.0244 33.7513 32.6482 33.6579C32.5933 33.6443 32.5369 33.6374 32.4803 33.6372H31.1858C30.9055 33.6364 30.6609 33.827 30.5931 34.099L30.4731 34.5827Z" fill="#03A9F4"/>
<path d="M33.6349 37.2726C33.1328 37.2724 32.726 36.8653 32.7261 36.3633C32.7261 36.2892 32.7352 36.2154 32.7531 36.1436L33.6622 32.5073C33.7837 32.0198 34.2773 31.7231 34.7649 31.8446C35.2524 31.9661 35.5491 32.4598 35.4276 32.9473L34.5185 36.5836C34.4173 36.9891 34.0528 37.2734 33.6349 37.2726Z" fill="#03A9F4"/>
<path d="M17.2718 36.3628C16.9678 36.3627 16.684 36.2105 16.5155 35.9574L14.6974 33.2303C14.4187 32.8126 14.5315 32.248 14.9492 31.9694C15.367 31.6907 15.9314 31.8034 16.2101 32.2212L18.0282 34.9484C18.3073 35.3657 18.1953 35.9302 17.7781 36.2094C17.6282 36.3096 17.452 36.3629 17.2718 36.3628Z" fill="#283593"/>
<path d="M15.4537 39.0903C14.9516 39.0901 14.5448 38.6829 14.5449 38.1809C14.545 37.9684 14.6195 37.7627 14.7555 37.5994L19.3008 32.1451C19.6226 31.7595 20.196 31.7078 20.5816 32.0296C20.9672 32.3514 21.0189 32.9249 20.6971 33.3104L16.1518 38.7647C15.9789 38.9714 15.7231 39.0906 15.4537 39.0903Z" fill="#283593"/>
<path d="M37.2711 37.2721C36.7691 37.2719 36.3622 36.8648 36.3623 36.3627C36.3623 36.2887 36.3714 36.2149 36.3893 36.143L38.2074 28.8706C38.3289 28.3831 38.8226 28.0864 39.3101 28.2079C39.7976 28.3294 40.0944 28.823 39.9728 29.3106L38.1547 36.583C38.0537 36.9885 37.6891 37.2728 37.2711 37.2721Z" fill="#03A9F4"/>
<path d="M27.3914 2.4828C26.5179 1.48235 25.2542 0.90888 23.9261 0.910158H13.6355C13.1959 0.910158 12.8193 1.22481 12.741 1.6574L9.10477 21.6566C9.01537 22.1506 9.34348 22.6235 9.83753 22.7129C9.89088 22.7226 9.94508 22.7274 9.99928 22.7274H15.4536C15.8709 22.7273 16.2344 22.4432 16.3354 22.0384L17.9826 15.455H20.908C24.4838 15.4409 27.511 12.812 28.0259 9.27345L28.4804 6.16627C28.6678 4.83873 28.2706 3.49509 27.3914 2.4828Z" fill="#283593"/>
</g>
<defs>
<clipPath id="clip0_90_72">
<rect width="40" height="40" fill="white"/>
</clipPath>
</defs>
</svg>
