<svg width="50" height="50" viewBox="0 0 50 50" fill="none" xmlns="http://www.w3.org/2000/svg">
<g clip-path="url(#clip0_90_277)">
<path d="M49.2884 13.1291C49.2883 13.1291 49.2883 13.1291 49.2882 13.1291L49.2865 13.1275L46.0592 12.667C45.6056 12.6024 45.2902 12.1823 45.3548 11.7287C45.3858 11.5107 45.5023 11.3141 45.6784 11.182L48.2868 9.22563C48.6534 8.95071 48.7277 8.43072 48.4527 8.06412L45.466 4.08179C45.1911 3.71519 44.6711 3.64093 44.3045 3.91586L41.6969 5.87218C41.3318 6.14918 40.8114 6.07783 40.5344 5.71278C40.3999 5.53555 40.3423 5.31165 40.3744 5.09148L40.8357 1.86413C40.9007 1.41052 40.5858 0.990197 40.1323 0.925069C40.132 0.925069 40.1316 0.924966 40.1313 0.924966L35.2065 0.221421C34.753 0.156293 34.3325 0.471146 34.2674 0.924758C34.2674 0.924862 34.2674 0.924862 34.2674 0.924966L33.8061 4.15231C33.7415 4.60592 33.3213 4.92129 32.8677 4.85669C32.6497 4.82568 32.4531 4.70922 32.321 4.53312L30.3655 1.9247C30.0906 1.55809 29.5706 1.48384 29.204 1.75877L26.7109 3.62963C25.583 3.50975 24.4455 3.50975 23.3176 3.62963C15.931 4.4739 10.1385 10.3646 9.41845 17.7644C9.39605 17.9992 9.38775 18.2323 9.37614 18.4655H9.12724C8.73357 18.4662 8.39456 18.7435 8.31584 19.1292L7.74256 21.8554L5.44608 20.2716C5.1165 20.0442 4.67139 20.0847 4.38827 20.3679L1.89932 22.8568C1.61662 23.1398 1.57617 23.5843 1.80308 23.9138L3.37942 26.2061L0.652352 26.7794C0.27092 26.863 -0.000583615 27.2012 0.000246037 27.5916V30.9102C3.86239e-05 31.3027 0.274964 31.6416 0.658989 31.7225L3.38605 32.2958L1.80972 34.5881C1.58281 34.9176 1.62325 35.362 1.90596 35.6451L4.39491 38.134C4.67803 38.4171 5.12314 38.4577 5.45272 38.2303L7.74504 36.6498L8.31833 39.3768C8.39705 39.7625 8.73606 40.0398 9.12973 40.0406H12.4483C12.8408 40.0408 13.1797 39.7658 13.2606 39.3818L13.8339 36.6548L16.1262 38.2311C16.4557 38.458 16.9001 38.4176 17.1832 38.1348L18.4716 36.8423V39.2068C18.4753 40.387 19.1076 41.4759 20.1309 42.0641V46.6736C20.1309 48.5064 21.6167 49.9922 23.4495 49.9922H26.7681C28.6009 49.9922 30.0867 48.5064 30.0867 46.6736V42.0641C31.11 41.4759 31.7423 40.387 31.746 39.2068V35.923C31.7685 34.5413 32.4914 33.2657 33.665 32.5364C34.3535 32.0897 35.0065 31.5903 35.618 31.043L34.5113 29.8068C33.9642 30.2971 33.3797 30.744 32.7632 31.1434C31.1158 32.1773 30.1074 33.9781 30.0867 35.923V39.2068C30.0867 40.1232 29.3439 40.8661 28.4274 40.8661H21.7902C20.8738 40.8661 20.1309 40.1232 20.1309 39.2068V35.8541C20.1117 33.946 19.1192 32.18 17.4993 31.1716C10.9235 27.0397 8.94234 18.3596 13.0742 11.7839C15.6378 7.70395 20.1119 5.2207 24.9305 5.20348C24.9181 5.23304 24.9072 5.26322 24.8981 5.29391C24.8673 5.5117 24.9243 5.7329 25.0566 5.90868L27.012 8.51628C27.2182 8.78312 27.238 9.14961 27.0618 9.43719C26.8922 9.72653 26.5641 9.88437 26.2322 9.83626L23.0048 9.37497C22.5512 9.30995 22.1309 9.6249 22.0658 10.0784C22.0658 10.0787 22.0657 10.079 22.0657 10.0793L21.3613 15.0066C21.2963 15.4602 21.6112 15.8806 22.0647 15.9457C22.065 15.9457 22.0654 15.9458 22.0657 15.9458L25.293 16.4071C25.7466 16.4717 26.062 16.8918 25.9974 17.3454C25.9664 17.5634 25.8499 17.7601 25.6738 17.8922L23.0662 19.8477C22.6996 20.1226 22.6254 20.6426 22.9003 21.0092L25.887 24.9915C26.162 25.3581 26.682 25.4324 27.0486 25.1574L29.657 23.2019C30.0239 22.9275 30.5439 23.0025 30.8183 23.3695C30.9496 23.5451 31.0061 23.7656 30.9753 23.9826L30.5148 27.21C30.4497 27.6635 30.7646 28.084 31.2182 28.1492C31.2183 28.1492 31.2183 28.1492 31.2184 28.1492L36.1465 28.8535C36.1853 28.8585 36.2244 28.861 36.2635 28.861C36.6766 28.8615 37.027 28.5581 37.0857 28.1492L37.5461 24.9218C37.6107 24.4682 38.0309 24.1528 38.4845 24.2174C38.7025 24.2484 38.8991 24.3649 39.0312 24.541L40.9875 27.1486C41.2625 27.5152 41.7824 27.5895 42.149 27.3145L46.1314 24.3278C46.498 24.0529 46.5722 23.5329 46.2973 23.1663L44.3418 20.5587C44.1366 20.2914 44.1168 19.9255 44.292 19.6378C44.4581 19.3446 44.7891 19.1857 45.1217 19.2395L48.349 19.7C48.8025 19.7651 49.2231 19.4502 49.2882 18.9966C49.2882 18.9965 49.2882 18.9965 49.2882 18.9964L49.9917 14.0683C50.0569 13.6147 49.742 13.1943 49.2884 13.1291ZM21.7902 42.5254H28.4274V44.1847H21.7902V42.5254ZM21.7902 45.844H28.4274V46.6736C28.4274 47.5901 27.6846 48.3329 26.7681 48.3329H23.4495C22.5331 48.3329 21.7902 47.5901 21.7902 46.6736V45.844ZM15.1854 31.5366C15.6384 31.9071 16.1117 32.252 16.6032 32.5695C17.3872 33.0649 17.9772 33.8144 18.275 34.6926L16.4954 36.4689L14.7722 35.2808C14.0176 34.7609 12.9844 34.9511 12.4643 35.7056C12.3397 35.8866 12.2521 36.0905 12.2069 36.3055L11.7722 38.3771H9.80009L9.36535 36.3088C9.17661 35.412 8.29666 34.838 7.39991 35.0268C7.18493 35.072 6.98104 35.1595 6.80007 35.2842L5.07606 36.4689L3.56443 34.9606L4.75166 33.2382C5.27216 32.484 5.08259 31.4507 4.32833 30.9302C4.14726 30.8052 3.94317 30.7175 3.72787 30.6721L1.65955 30.2366V28.2653L3.72787 27.8297C4.62431 27.6397 5.19698 26.7589 5.00688 25.8623C4.96177 25.6496 4.87538 25.4479 4.75249 25.2686L3.56443 23.5413L5.07606 22.033L6.8009 23.221C7.55578 23.7405 8.58901 23.5497 9.10847 22.7948C9.23292 22.614 9.32024 22.4104 9.36535 22.1956L9.51054 21.5053C9.6435 22.4613 9.86366 23.4029 10.1685 24.3187C7.43859 24.6441 5.48943 27.121 5.81486 29.8509C6.14029 32.5807 8.61722 34.5299 11.3471 34.2045C12.9904 34.0085 14.4289 33.0086 15.1854 31.5366ZM13.8969 30.3676C13.2774 32.0897 11.3792 32.9834 9.65718 32.364C7.93514 31.7445 7.0414 29.8463 7.66083 28.1243C8.13477 26.8069 9.38558 25.9294 10.7856 25.9323C10.7964 25.9323 10.8064 25.9323 10.8171 25.9323C11.5801 27.5774 12.622 29.078 13.8969 30.3676ZM47.7583 17.9378L45.3523 17.5943C43.9915 17.4 42.7308 18.3457 42.5365 19.7064C42.4432 20.3599 42.6132 21.0237 43.0094 21.5518L44.4671 23.4956L41.8122 25.4868L40.3537 23.5438C39.529 22.444 37.9689 22.2209 36.8692 23.0456C36.3412 23.4415 35.992 24.0311 35.8984 24.6845L35.5624 27.0938L32.2778 26.6243L32.6213 24.2183C32.8162 22.8575 31.871 21.5965 30.5103 21.4017C29.8564 21.3081 29.1923 21.4781 28.6639 21.8745L26.72 23.3322L24.7288 20.6773L26.6719 19.2188C27.7717 18.3941 27.9948 16.8341 27.1701 15.7344C26.7741 15.2063 26.1846 14.8571 25.5311 14.7636L23.1251 14.4201L23.5947 11.1355L26.0007 11.479C27.3614 11.6738 28.6225 10.7286 28.8173 9.36792C28.9109 8.71405 28.7408 8.04991 28.3445 7.52153L26.8818 5.57599L29.5367 3.58483L30.9952 5.5287C31.8199 6.62851 33.3799 6.85158 34.4796 6.02691C35.0077 5.63096 35.3569 5.04139 35.4504 4.38793L35.7939 1.98194L39.0785 2.4507L38.735 4.85669C38.5407 6.21752 39.4863 7.47818 40.8471 7.67252C41.5006 7.76586 42.1644 7.59578 42.6925 7.19962L44.6363 5.74192L46.6275 8.39681L44.6836 9.85534C43.5838 10.68 43.3607 12.2401 44.1854 13.3398C44.5814 13.8678 45.1709 14.217 45.8244 14.3106L48.2304 14.654L47.7583 17.9378Z" fill="#6BD340"/>
<path d="M35.6748 7.90039C32.0092 7.90039 29.0376 10.872 29.0376 14.5376C29.0376 18.2032 32.0092 21.1748 35.6748 21.1748C39.3404 21.1748 42.312 18.2032 42.312 14.5376C42.3079 10.8737 39.3388 7.90444 35.6748 7.90039ZM35.6748 19.5155C32.9256 19.5155 30.6969 17.2869 30.6969 14.5376C30.6969 11.7883 32.9256 9.55969 35.6748 9.55969C38.4241 9.55969 40.6527 11.7883 40.6527 14.5376C40.6495 17.2855 38.4227 19.5123 35.6748 19.5155Z" fill="#6BD340"/>
<path d="M25.9384 36.7188H24.2791V39.2077H25.9384V36.7188Z" fill="#6BD340"/>
<path d="M21.4798 28.5705C16.3583 26.5698 13.8283 20.796 15.8292 15.6745C16.6045 13.69 17.9959 12.0065 19.7989 10.8715L18.912 9.46777C13.4845 12.8871 11.8564 20.0589 15.2757 25.4865C16.5999 27.5885 18.5633 29.2106 20.8775 30.1145C22.9259 30.8993 24.2785 32.8656 24.2791 35.0592H25.9384C25.941 32.1811 24.1674 29.6 21.4798 28.5705Z" fill="#6BD340"/>
<path d="M46.6799 30.9111H40.8723V32.5704H46.6799V30.9111Z" fill="#6BD340"/>
<path d="M40.5738 35.2496L39.5117 36.5244L44.49 40.672L45.5521 39.3972L40.5738 35.2496Z" fill="#6BD340"/>
<path d="M37.5533 37.5479H35.894V43.3554H37.5533V37.5479Z" fill="#6BD340"/>
<path d="M7.48417 12.6818L0.847412 14.3408L1.24959 15.9497L7.88635 14.2907L7.48417 12.6818Z" fill="#6BD340"/>
<path d="M3.18925 4.51769L2.22534 5.86719L8.03245 10.015L8.99635 8.66552L3.18925 4.51769Z" fill="#6BD340"/>
<path d="M10.9413 0.00695925L9.33374 0.417969L11.0306 7.05467L12.6381 6.64366L10.9413 0.00695925Z" fill="#6BD340"/>
</g>
<defs>
<clipPath id="clip0_90_277">
<rect width="50" height="50" fill="white"/>
</clipPath>
</defs>
</svg>
