<svg width="35" height="41" viewBox="0 0 35 41" fill="none" xmlns="http://www.w3.org/2000/svg">
<path d="M4.97904 4.99584C8.23356 1.7905 12.6194 -0.00426296 17.1874 7.60376e-06C21.7624 7.60376e-06 26.154 1.79376 29.3957 4.99584C32.3311 7.89167 33.8603 11.1333 34.2645 14.5C34.6665 17.8375 33.9478 21.1875 32.577 24.3292C29.8561 30.5792 24.4478 36.2625 19.2603 39.9604C18.6557 40.393 17.9308 40.6256 17.1874 40.6256C16.4439 40.6256 15.7191 40.393 15.1145 39.9604C9.92696 36.2625 4.51863 30.5771 1.79571 24.3292C0.42696 21.1875 -0.289707 17.8375 0.110293 14.4979C0.51446 11.1333 2.04363 7.89376 4.97904 4.99584ZM11.4582 16.1458C11.4582 14.6264 12.0618 13.1691 13.1362 12.0947C14.2107 11.0203 15.6679 10.4167 17.1874 10.4167C18.7068 10.4167 20.1641 11.0203 21.2385 12.0947C22.3129 13.1691 22.9165 14.6264 22.9165 16.1458C22.9165 17.6653 22.3129 19.1225 21.2385 20.197C20.1641 21.2714 18.7068 21.875 17.1874 21.875C15.6679 21.875 14.2107 21.2714 13.1362 20.197C12.0618 19.1225 11.4582 17.6653 11.4582 16.1458Z" fill="#6BD340"/>
<path fill-rule="evenodd" clip-rule="evenodd" d="M17.1868 9.64206C16.6817 9.19154 15.8947 9.23061 15.4381 9.72904L3.50546 22.7524C3.04877 23.2509 3.08847 24.0273 3.5936 24.4779C4.09874 24.9287 4.88561 24.8896 5.3424 24.391L17.2749 11.3678C17.7316 10.8693 17.692 10.0929 17.1868 9.64206Z" fill="white"/>
<path d="M25.1818 10.4831C25.181 10.467 25.1781 10.4511 25.1768 10.4349C25.1715 10.3717 25.164 10.3094 25.1492 10.2492C25.1449 10.2315 25.1378 10.2147 25.1328 10.1972C25.1162 10.1411 25.0986 10.0854 25.0743 10.0329C25.0608 10.0033 25.0428 9.97574 25.0268 9.94695C25.0053 9.90871 24.9851 9.86995 24.9595 9.83427C24.9351 9.79983 24.9058 9.76837 24.8773 9.73608C24.8531 9.70863 24.8301 9.68046 24.8033 9.65527C24.794 9.64633 24.7872 9.63564 24.7774 9.6269C24.7523 9.60438 24.7237 9.58875 24.6973 9.5686C24.6693 9.54742 24.6422 9.52594 24.6124 9.50712C24.5735 9.48276 24.5335 9.4625 24.4927 9.44276C24.4603 9.42693 24.4283 9.4111 24.3945 9.39804C24.3546 9.38293 24.3144 9.37172 24.2735 9.36082C24.2356 9.35044 24.198 9.34016 24.1586 9.33337C24.1172 9.32638 24.076 9.32381 24.0342 9.32093C24.0078 9.31908 23.9827 9.31343 23.9562 9.3125H23.9447C23.935 9.31312 23.9257 9.31548 23.9158 9.31569C23.8716 9.31682 23.8282 9.32319 23.7844 9.32885C23.7485 9.33357 23.7122 9.33645 23.6773 9.34437C23.6267 9.35537 23.5779 9.37285 23.5288 9.39012C23.5047 9.39886 23.4795 9.40513 23.4562 9.41521C23.3966 9.4405 23.3401 9.47268 23.2846 9.50743C23.2743 9.51411 23.263 9.51915 23.2528 9.52604C23.1974 9.56305 23.1463 9.60654 23.0966 9.65322C23.0876 9.66165 23.0778 9.66905 23.069 9.67779C23.0562 9.69064 23.0412 9.7001 23.0289 9.71357L11.0964 22.7369C10.6396 23.2353 10.6793 24.0118 11.1844 24.4623C11.6895 24.913 12.4764 24.8739 12.9332 24.3756L22.2941 14.1592L22.3352 14.1143C22.4363 14.0103 22.6914 13.7887 22.7107 14.1808C22.7109 14.1852 22.7109 14.1933 22.7109 14.1933V28.0908C22.7109 28.7628 23.268 29.3125 23.949 29.3125C24.6301 29.3125 25.1872 28.7628 25.1872 28.0908V10.5341C25.1872 10.5166 25.1827 10.5003 25.182 10.483L25.1818 10.4831Z" fill="white"/>
</svg>
