<svg width="84" height="29" viewBox="0 0 84 29" fill="none" xmlns="http://www.w3.org/2000/svg">
<path d="M63.9619 1.41309V16.6015H67.048V10.229H69.7249V16.6015H72.7975V1.41309H69.7272V7.464H67.048V1.41309H63.9619Z" fill="#ED1C24"/>
<path d="M40.1479 1.41309V16.6015H42.9755V6.94542L44.6366 16.6015H46.5179L48.2059 6.94542V16.6015H51.0424V1.41309H46.837L45.5941 8.71404L44.3533 1.41309H40.1479Z" fill="#ED1C24"/>
<path d="M22.396 1.41309L24.2773 8.19998L26.1564 1.41309H29.2267L25.9159 11.6172V16.6015H22.6365V11.6172L19.3257 1.41309H22.396Z" fill="#ED1C24"/>
<path d="M35.738 1.41309H31.6608L28.9771 16.6015H32.0294L32.5441 12.9782H34.8502L35.3649 16.6015H38.4353L35.738 1.41309ZM33.6972 4.84616L34.4614 10.229H32.9352L33.6972 4.84616Z" fill="#ED1C24"/>
<path d="M59.541 1.41309H55.4547L52.771 16.6015H55.8233L56.3381 12.9782H58.6442L59.1589 16.6015H62.2292L59.541 1.41309ZM57.4911 4.84616L58.2553 10.229H56.7291L57.4911 4.84616Z" fill="#ED1C24"/>
<path d="M81.3117 1.41309H77.2277L74.5439 16.6015H77.5963L78.1088 12.9782H80.4171L80.9318 16.6015H83.9999L81.3117 1.41309ZM79.2641 4.84616L80.017 10.229H78.4909L79.2641 4.84616Z" fill="#ED1C24"/>
<path d="M2.83284e-07 8.98837C-0.000444288 7.2106 0.522386 5.47263 1.50237 3.99426C2.48235 2.51588 3.87547 1.36351 5.50553 0.682876C7.13559 0.00224411 8.92938 -0.176072 10.66 0.170478C12.3907 0.517028 13.9805 1.37288 15.2283 2.62979C16.4762 3.8867 17.326 5.48821 17.6704 7.23179C18.0148 8.97536 17.8383 10.7827 17.1632 12.4252C16.488 14.0676 15.3446 15.4715 13.8775 16.4592C12.4104 17.447 10.6855 17.9742 8.92101 17.9742C6.5554 17.9742 4.28665 17.0275 2.6137 15.3424C0.940749 13.6573 0.000596305 11.3718 2.83284e-07 8.98837Z" fill="url(#paint0_radial_138_910)"/>
<path d="M8.92118 0.631841C10.0515 0.63065 11.1711 0.853937 12.2157 1.28894C13.2604 1.72393 14.2097 2.36211 15.0094 3.16699C15.8091 3.97187 16.4435 4.92765 16.8764 5.97971C17.3092 7.03177 17.532 8.15946 17.532 9.29833C17.532 10.4371 17.3092 11.5647 16.8763 12.6166C16.4435 13.6685 15.809 14.6242 15.0093 15.4289C14.2095 16.2336 13.2602 16.8715 12.2156 17.3063C11.1709 17.741 10.0514 17.964 8.92118 17.9625C7.79167 17.9628 6.67318 17.739 5.62956 17.3037C4.58595 16.8684 3.63768 16.2302 2.83889 15.4257C2.04011 14.6211 1.40647 13.6658 0.974156 12.6145C0.541845 11.5632 0.319336 10.4363 0.319336 9.29833C0.319336 6.99983 1.2256 4.79548 2.83876 3.1702C4.45191 1.54491 6.63983 0.631841 8.92118 0.631841ZM3.05475 13.327C3.70588 14.2899 4.58077 15.0777 5.60325 15.622C6.62572 16.1663 7.76476 16.4505 8.92118 16.4498C10.0773 16.4505 11.216 16.1663 12.2381 15.622C13.2602 15.0777 14.1347 14.2898 14.7854 13.327L14.8011 13.3043L16.0148 13.5761H16.0306C16.0552 13.5764 16.0795 13.5701 16.1008 13.5578C16.1222 13.5454 16.1398 13.5275 16.1519 13.5059C16.1651 13.484 16.1721 13.459 16.1722 13.4334C16.1714 13.4041 16.162 13.3758 16.1452 13.3519L15.3046 12.428V12.403C15.7678 11.4347 16.0076 10.3733 16.0058 9.29833C16.0068 7.49427 15.3306 5.75657 14.1129 4.43392C12.8952 3.11128 11.226 2.30155 9.44039 2.16721H9.41566L9.04929 0.969261C9.03823 0.94416 9.02031 0.922745 8.99763 0.907509C8.97494 0.892274 8.94843 0.883846 8.92118 0.883207C8.89384 0.883488 8.86714 0.891488 8.84409 0.9063C8.82104 0.921112 8.80259 0.942141 8.79081 0.966996L8.41545 2.16495H8.39073C6.6045 2.29928 4.93478 3.10925 3.71663 4.43232C2.49848 5.75539 1.82203 7.49367 1.82303 9.29833C1.82131 10.3733 2.06106 11.4347 2.5243 12.403V12.428L1.69716 13.361C1.67865 13.3858 1.66842 13.4159 1.66794 13.447C1.6683 13.4718 1.67529 13.4961 1.68817 13.5172C1.70028 13.5388 1.71794 13.5567 1.7393 13.5691C1.76065 13.5814 1.78492 13.5878 1.80954 13.5874H1.82303L3.03902 13.3157L3.05475 13.3383V13.327Z" fill="#230000"/>
<path d="M9.50777 15.4428V11.242L8.91888 10.9001L8.33449 11.242V15.4428H7.5433V11.6994L6.869 12.0912C6.66382 12.2105 6.43158 12.2744 6.1947 12.2769C6.00831 12.2773 5.82387 12.2387 5.65301 12.1637C5.54561 12.1179 5.43024 12.094 5.31361 12.0935C5.16433 12.0932 5.01768 12.1331 4.8888 12.209C4.7734 12.276 4.67511 12.3693 4.60175 12.4813C4.5284 12.5934 4.482 12.7211 4.46624 12.8544V12.8815L1.87243 13.4884H1.85445C1.84002 13.4883 1.82585 13.4845 1.81327 13.4774C1.8007 13.4703 1.79012 13.46 1.78252 13.4477C1.77952 13.4343 1.77952 13.4203 1.78252 13.4069C1.78352 13.3907 1.78896 13.375 1.79825 13.3616L3.61213 11.4096H3.6346C3.74285 11.4552 3.85891 11.4791 3.97625 11.4798C4.12539 11.479 4.27178 11.4392 4.40106 11.3643C4.51596 11.2972 4.61389 11.2042 4.6872 11.0926C4.76051 10.9811 4.8072 10.8539 4.82362 10.7212C4.84937 10.5083 4.92364 10.3043 5.04062 10.1252C5.15759 9.94605 5.31411 9.79659 5.49792 9.68851L6.17222 9.29901L2.94906 7.42848L3.34465 6.74911L6.9679 8.8325L7.55454 8.49056V7.81119L3.9313 5.7142L4.32689 5.03483L7.5433 6.90536V6.11503C7.54295 5.90051 7.59236 5.68888 7.68758 5.49701C7.7828 5.30515 7.92119 5.13835 8.09174 5.00992C8.19661 4.93069 8.28197 4.8282 8.34122 4.71039C8.40046 4.59258 8.432 4.46261 8.43338 4.33055C8.4364 4.19388 8.40697 4.05846 8.34755 3.93557C8.28812 3.81267 8.20042 3.70585 8.09174 3.62401H8.06926L8.84246 1.05599C8.84703 1.03866 8.85729 1.0234 8.87158 1.0127C8.88587 1.00201 8.90334 0.996514 8.92113 0.997115C8.93874 0.997272 8.95585 1.00306 8.96998 1.01364C8.98412 1.02422 8.99456 1.03905 8.9998 1.05599L9.77075 3.62401L9.74827 3.63986C9.64135 3.71988 9.55453 3.82406 9.49481 3.94401C9.43509 4.06396 9.40411 4.19635 9.40438 4.33055C9.40568 4.46287 9.43742 4.59308 9.49708 4.71095C9.55675 4.82883 9.64273 4.93117 9.74827 5.00992C9.91881 5.13835 10.0572 5.30515 10.1524 5.49701C10.2476 5.68888 10.2971 5.90051 10.2967 6.11503V6.89404L13.5131 5.02351L13.9087 5.70288L10.2967 7.81572V8.49508L10.8833 8.8325L14.4954 6.73099L14.8887 7.41036L11.6723 9.29901L12.3466 9.68851C12.5307 9.79682 12.6874 9.94663 12.8044 10.1262C12.9213 10.3057 12.9955 10.5102 13.0209 10.7234C13.037 10.8563 13.0835 10.9836 13.1569 11.0952C13.2302 11.2068 13.3283 11.2997 13.4434 11.3666C13.5726 11.4417 13.7191 11.4815 13.8683 11.482C13.9849 11.4817 14.1003 11.4579 14.2077 11.4118H14.2324L16.044 13.3616C16.0513 13.3691 16.057 13.378 16.0609 13.3877C16.0647 13.3974 16.0666 13.4078 16.0665 13.4182C16.0705 13.4315 16.0705 13.4457 16.0665 13.459C16.0596 13.4715 16.0495 13.4819 16.0372 13.4891C16.0249 13.4962 16.011 13.4999 15.9968 13.4998H15.9586L13.3828 12.8838V12.8566C13.3667 12.7235 13.3201 12.5959 13.2468 12.4839C13.1735 12.3719 13.0754 12.2786 12.9602 12.2112C12.8313 12.1353 12.6847 12.0954 12.5354 12.0957C12.4188 12.0963 12.3034 12.1201 12.196 12.1659C12.0246 12.2389 11.8404 12.2766 11.6543 12.2769C11.4136 12.2764 11.1772 12.2124 10.9688 12.0912L10.2945 11.7017V15.4428H9.50777ZM10.2967 10.0984V10.7778L11.3599 11.396C11.4485 11.4481 11.5494 11.4755 11.6521 11.4753C11.7552 11.4753 11.8566 11.4481 11.9461 11.3965C12.0356 11.3449 12.1101 11.2705 12.1623 11.1809C12.2133 11.0904 12.2404 10.9882 12.2409 10.8842C12.2408 10.7804 12.2135 10.6784 12.1618 10.5885C12.1101 10.4987 12.0359 10.4241 11.9465 10.3724L10.8833 9.75418L10.2967 10.0939V10.0984ZM5.89351 10.3769C5.80398 10.4285 5.72958 10.503 5.67787 10.5929C5.62615 10.6828 5.59897 10.7848 5.59907 10.8887C5.59857 10.9929 5.62573 11.0953 5.67774 11.1854C5.72971 11.2747 5.80389 11.3488 5.89297 11.4005C5.98205 11.4521 6.08295 11.4794 6.18571 11.4798C6.28909 11.4801 6.39069 11.4527 6.48016 11.4005L7.5433 10.7823V10.1029L6.9679 9.75871L5.90475 10.3769H5.89351ZM8.33449 8.95706V9.63643L8.91888 9.97611L9.50777 9.63416V8.95479L8.91888 8.60605L8.33449 8.948V8.95706ZM8.33449 7.35601L8.91888 7.70022L9.50777 7.35827V6.11503C9.50777 6.03741 9.4926 5.96055 9.46312 5.88884C9.43363 5.81713 9.39042 5.75198 9.33595 5.69709C9.28147 5.64221 9.2168 5.59867 9.14563 5.56897C9.07445 5.53927 8.99817 5.52398 8.92113 5.52398C8.76554 5.52398 8.61633 5.58625 8.50631 5.69709C8.39629 5.80794 8.33449 5.95827 8.33449 6.11503V7.35374V7.35601Z" fill="#230000"/>
<path d="M8.92086 0.532227C7.22704 0.531779 5.57113 1.03742 4.16255 1.9852C2.75397 2.93299 1.656 4.28034 1.0075 5.85686C0.358992 7.43338 0.189082 9.16825 0.519258 10.8421C0.849434 12.5159 1.66486 14.0534 2.86242 15.2603C4.05997 16.4672 5.58586 17.2892 7.24711 17.6223C8.90835 17.9553 10.6303 17.7846 12.1953 17.1317C13.7602 16.4787 15.0978 15.3728 16.0389 13.9539C16.9799 12.535 17.4822 10.8668 17.4822 9.16021C17.4822 6.87232 16.5803 4.6781 14.9748 3.06011C13.3693 1.44211 11.1917 0.532827 8.92086 0.532227ZM16.01 13.4765L14.8165 13.2093C14.1618 14.177 13.2824 14.9689 12.2547 15.5162C11.227 16.0635 10.0822 16.3496 8.91974 16.3496C7.75732 16.3496 6.61249 16.0635 5.5848 15.5162C4.55712 14.9689 3.67768 14.177 3.02297 13.2093L1.8317 13.4742C1.79675 13.4789 1.76119 13.473 1.72957 13.4573C1.69794 13.4416 1.67168 13.4167 1.65414 13.3859C1.63554 13.3565 1.62566 13.3223 1.62566 13.2874C1.62566 13.2525 1.63554 13.2183 1.65414 13.1889L2.47903 12.283C1.97498 11.2268 1.73467 10.0625 1.779 8.89134C1.82334 7.7202 2.15098 6.5777 2.73342 5.5632C3.31587 4.54871 4.13549 3.69293 5.121 3.07029C6.10651 2.44766 7.22808 2.07702 8.38816 1.99061L8.76577 0.817562C8.78034 0.785359 8.80373 0.758019 8.8332 0.738761C8.86266 0.719504 8.89698 0.70913 8.9321 0.708863C8.96646 0.708675 9.00012 0.718662 9.02889 0.737585C9.05766 0.756508 9.08028 0.783531 9.09393 0.815297L9.46255 1.99061C10.6207 2.08045 11.7396 2.45358 12.7222 3.07764C13.7049 3.7017 14.5216 4.55785 15.1015 5.57184C15.6814 6.58583 16.0071 7.72705 16.0503 8.89653C16.0934 10.066 15.8528 11.2285 15.3492 12.283L16.1741 13.1889C16.1947 13.2171 16.2067 13.2507 16.2087 13.2857C16.2107 13.3207 16.2026 13.3555 16.1853 13.3859C16.1683 13.4167 16.1425 13.4418 16.1113 13.4579C16.0801 13.474 16.0449 13.4805 16.01 13.4765Z" fill="#230000"/>
<path d="M16.017 13.2415L14.2188 11.3076C14.0913 11.3614 13.9532 11.3848 13.8153 11.376C13.6773 11.3673 13.5433 11.3266 13.4234 11.2571C13.3036 11.1877 13.2013 11.0913 13.1245 10.9756C13.0476 10.8598 12.9983 10.7278 12.9804 10.5897C12.9566 10.3815 12.8846 10.1819 12.7702 10.0069C12.6558 9.83182 12.5022 9.6863 12.3218 9.582L11.598 9.16079L14.8347 7.27668L14.4773 6.65392L10.881 8.74638L10.2584 8.37952V7.65486L13.8547 5.5624L13.4973 4.93965L10.2584 6.82377V5.98135C10.258 5.77137 10.2093 5.56434 10.1161 5.37653C10.0228 5.18872 9.8877 5.02522 9.72123 4.89889C9.61127 4.81435 9.52215 4.70539 9.4608 4.58049C9.39946 4.45559 9.36755 4.31811 9.36755 4.17876C9.36755 4.0394 9.39946 3.90192 9.4608 3.77702C9.52215 3.65212 9.61127 3.54316 9.72123 3.45862L8.96152 0.929107C8.95788 0.921616 8.95205 0.915429 8.94482 0.91138C8.93758 0.90733 8.92929 0.905614 8.92106 0.906461C8.91134 0.905677 8.90168 0.908453 8.89383 0.914277C8.88598 0.920102 8.88049 0.928584 8.87835 0.938165L8.11414 3.46089C8.22411 3.54542 8.31323 3.65438 8.37457 3.77928C8.43592 3.90419 8.46783 4.04166 8.46783 4.18102C8.46783 4.32038 8.43592 4.45785 8.37457 4.58276C8.31323 4.70766 8.22411 4.81662 8.11414 4.90115C7.94767 5.02749 7.81253 5.19098 7.71932 5.3788C7.62612 5.56661 7.57738 5.77363 7.57695 5.98361V6.82829L4.3403 4.93965L3.98292 5.5624L7.5792 7.65712V8.37952L6.96783 8.74638L3.37156 6.65392L3.01418 7.27668L6.25532 9.16079L5.52932 9.582C5.34897 9.68694 5.19548 9.83292 5.08113 10.0083C4.96678 10.1837 4.89473 10.3836 4.87075 10.592C4.85279 10.7301 4.80346 10.8621 4.72661 10.9779C4.64977 11.0936 4.54747 11.19 4.42766 11.2594C4.30786 11.3288 4.17377 11.3695 4.03583 11.3783C3.89788 11.387 3.75979 11.3636 3.63229 11.3099L1.83415 13.2415C1.82864 13.2495 1.82568 13.259 1.82568 13.2687C1.82568 13.2784 1.82864 13.2879 1.83415 13.2959C1.83914 13.3042 1.84664 13.3106 1.85554 13.3143C1.86444 13.318 1.87428 13.3186 1.8836 13.3163L4.44145 12.7184C4.46058 12.5831 4.50985 12.4539 4.58557 12.3405C4.66129 12.2271 4.76151 12.1325 4.8787 12.0636C4.99589 11.9948 5.12702 11.9535 5.26227 11.943C5.39753 11.9325 5.53339 11.9529 5.65969 12.0028C5.85138 12.0847 6.05929 12.1208 6.26713 12.1083C6.47498 12.0957 6.67711 12.0348 6.8577 11.9304L7.58369 11.5091V15.2683H8.29845V11.0811L8.92106 10.7188L9.54591 11.0811V15.2683H10.2607V11.4978L10.9867 11.919C11.1661 12.0249 11.3674 12.0876 11.5748 12.1021C11.7822 12.1167 11.9902 12.0827 12.1824 12.0028C12.3101 11.9495 12.4484 11.9265 12.5863 11.9357C12.7243 11.945 12.8583 11.9861 12.9779 12.056C13.0975 12.1259 13.1994 12.2226 13.2759 12.3387C13.3523 12.4548 13.4012 12.587 13.4187 12.7252L15.9765 13.3231C15.9858 13.3254 15.9957 13.3247 16.0046 13.3211C16.0135 13.3174 16.021 13.311 16.026 13.3027C16.0324 13.2932 16.0351 13.2817 16.0334 13.2703C16.0317 13.259 16.0259 13.2487 16.017 13.2415ZM8.91881 9.88772L8.29621 9.52539V8.79846L8.91881 8.43387L9.54366 8.79846V9.52539L8.91881 9.88772ZM8.29621 5.98135C8.2911 5.89565 8.30344 5.80981 8.33248 5.72909C8.36151 5.64838 8.40663 5.5745 8.46505 5.512C8.52347 5.4495 8.59396 5.3997 8.67218 5.36566C8.75041 5.33162 8.83472 5.31406 8.91994 5.31406C9.00515 5.31406 9.08946 5.33162 9.16769 5.36566C9.24591 5.3997 9.3164 5.4495 9.37482 5.512C9.43324 5.5745 9.47836 5.64838 9.50739 5.72909C9.53643 5.80981 9.54877 5.89565 9.54366 5.98135V7.24724L8.91881 7.60957L8.29621 7.24724V5.98135ZM6.49807 11.2963C6.35521 11.372 6.18882 11.389 6.03376 11.3439C5.87869 11.2988 5.74698 11.1949 5.66621 11.0541C5.58544 10.9133 5.56188 10.7465 5.60047 10.5886C5.63906 10.4307 5.7368 10.2939 5.87322 10.207L6.96783 9.57747L7.59268 9.9398V10.6667L6.49807 11.2963ZM12.1937 11.0698C12.1525 11.1411 12.0978 11.2035 12.0328 11.2534C11.9677 11.3034 11.8934 11.3399 11.8143 11.361C11.7352 11.382 11.6528 11.3871 11.5717 11.376C11.4906 11.3649 11.4125 11.3378 11.3418 11.2963L10.2584 10.6667V9.9398L10.8833 9.57747L11.9667 10.207C12.1094 10.2908 12.2135 10.4281 12.256 10.5889C12.2985 10.7498 12.2761 10.9211 12.1937 11.0653V11.0698Z" fill="#230000"/>
<path d="M8.92086 0.360352C7.22704 0.359904 5.57113 0.865546 4.16255 1.81333C2.75397 2.76111 1.656 4.10846 1.0075 5.68498C0.358992 7.2615 0.189082 8.99637 0.519258 10.6702C0.849434 12.344 1.66486 13.8816 2.86242 15.0884C4.05997 16.2953 5.58586 17.1173 7.24711 17.4504C8.90835 17.7835 10.6303 17.6127 12.1953 16.9598C13.7602 16.3068 15.0978 15.2009 16.0389 13.782C16.9799 12.3631 17.4822 10.6949 17.4822 8.98834C17.4822 6.70045 16.5803 4.50623 14.9748 2.88823C13.3693 1.27024 11.1917 0.360952 8.92086 0.360352ZM16.01 13.3023L14.8165 13.0374C14.1618 14.0051 13.2824 14.7971 12.2547 15.3444C11.227 15.8917 10.0822 16.1777 8.91974 16.1777C7.75732 16.1777 6.61249 15.8917 5.5848 15.3444C4.55712 14.7971 3.67768 14.0051 3.02297 13.0374L1.8317 13.3023C1.79686 13.3073 1.76133 13.3017 1.72963 13.2863C1.69793 13.2709 1.67149 13.2464 1.65367 13.2158C1.63585 13.1852 1.62744 13.15 1.62953 13.1146C1.63161 13.0792 1.64409 13.0452 1.66538 13.017L2.49027 12.1112C1.98501 11.0555 1.74339 9.89139 1.78642 8.72017C1.82945 7.54895 2.15583 6.40605 2.73717 5.39087C3.31851 4.3757 4.13722 3.51899 5.12208 2.89524C6.10694 2.2715 7.22814 1.89962 8.38816 1.81194L8.76577 0.645687C8.77977 0.61289 8.80297 0.584921 8.83251 0.565211C8.86205 0.5455 8.89667 0.534905 8.9321 0.534723C8.96665 0.535016 9.00036 0.545456 9.0291 0.564763C9.05785 0.58407 9.08038 0.611407 9.09393 0.643422L9.45131 1.81194C10.611 1.89977 11.7319 2.27165 12.7165 2.89526C13.7011 3.51887 14.5196 4.37534 15.1009 5.3902C15.6822 6.40507 16.0087 7.54762 16.052 8.71854C16.0952 9.88945 15.854 11.0533 15.3492 12.1089L16.1741 13.0147C16.1946 13.0434 16.2066 13.0774 16.2086 13.1127C16.2105 13.148 16.2025 13.1832 16.1853 13.214C16.1682 13.2447 16.1423 13.2694 16.1111 13.2852C16.0798 13.3009 16.0447 13.3069 16.01 13.3023Z" fill="url(#paint1_radial_138_910)"/>
<path d="M16.017 13.0668L14.2188 11.1351C14.0916 11.188 13.9539 11.2107 13.8165 11.2015C13.6792 11.1924 13.5457 11.1515 13.4265 11.0822C13.3073 11.0128 13.2054 10.9168 13.1289 10.8015C13.0523 10.6862 13.003 10.5548 12.9849 10.4173C12.9609 10.2088 12.8888 10.0089 12.7745 9.83355C12.6601 9.65818 12.5066 9.51219 12.3263 9.40726L11.598 8.98831L14.8347 7.10193L14.4773 6.47918L10.881 8.57163L10.2562 8.2093V7.47332L13.8525 5.38086L13.4996 4.75584L10.2584 6.65128V5.8066C10.2587 5.59682 10.2103 5.38988 10.117 5.20232C10.0237 5.01476 9.88819 4.85178 9.72124 4.7264C9.61128 4.64187 9.52216 4.53291 9.46081 4.40801C9.39947 4.28311 9.36756 4.14563 9.36756 4.00627C9.36756 3.86692 9.39947 3.72944 9.46081 3.60454C9.52216 3.47964 9.61128 3.37068 9.72124 3.28614L8.96153 0.75436C8.9591 0.745377 8.95384 0.73743 8.94655 0.731713C8.93925 0.725997 8.93031 0.722819 8.92107 0.722656C8.91153 0.722694 8.90226 0.725786 8.89458 0.731485C8.8869 0.737184 8.88123 0.745195 8.87837 0.75436L8.11416 3.28614C8.22412 3.37068 8.31324 3.47964 8.37458 3.60454C8.43593 3.72944 8.46784 3.86692 8.46784 4.00627C8.46784 4.14563 8.43593 4.28311 8.37458 4.40801C8.31324 4.53291 8.22412 4.64187 8.11416 4.7264C7.94721 4.85178 7.81169 5.01476 7.71841 5.20232C7.62514 5.38988 7.5767 5.59682 7.57696 5.8066V6.65128L4.34031 4.76717L3.98293 5.38992L7.57921 7.48238V8.2093L6.96784 8.57163L3.37157 6.47918L3.01419 7.10193L6.25533 8.98831L5.52933 9.40952C5.34675 9.51266 5.19079 9.6576 5.07404 9.83265C4.9573 10.0077 4.88305 10.208 4.85728 10.4173C4.83962 10.5555 4.79052 10.6878 4.7138 10.8039C4.63708 10.9199 4.53482 11.0165 4.41497 11.0862C4.29512 11.1559 4.16093 11.1967 4.02284 11.2056C3.88474 11.2145 3.74648 11.1912 3.61881 11.1374L1.82067 13.0691C1.81535 13.0767 1.8125 13.0858 1.8125 13.0951C1.8125 13.1044 1.81535 13.1135 1.82067 13.1211C1.82534 13.1298 1.83269 13.1368 1.84162 13.1408C1.85055 13.1449 1.86056 13.146 1.87012 13.1438L4.42797 12.5437C4.44543 12.4055 4.49428 12.2732 4.57073 12.1572C4.64718 12.0411 4.74917 11.9444 4.86877 11.8745C4.98837 11.8046 5.12235 11.7634 5.26031 11.7542C5.39827 11.745 5.53648 11.7679 5.66419 11.8213C5.85571 11.9035 6.06353 11.94 6.27138 11.9278C6.47922 11.9157 6.68144 11.8552 6.8622 11.7511L7.58146 11.3231V15.0936H8.29622V10.9087L8.91882 10.5441L9.54368 10.9087V15.0936H10.2584V11.3231L10.9844 11.7466C11.1652 11.8506 11.3674 11.9111 11.5753 11.9233C11.7831 11.9355 11.9909 11.899 12.1824 11.8168C12.3102 11.7634 12.4484 11.7404 12.5863 11.7497C12.7243 11.7589 12.8583 11.8001 12.9779 11.8699C13.0975 11.9398 13.1995 12.0366 13.2759 12.1526C13.3524 12.2687 13.4012 12.401 13.4187 12.5391L15.9743 13.1347C15.9838 13.1369 15.9938 13.1359 16.0028 13.1318C16.0117 13.1277 16.0191 13.1208 16.0237 13.1121C16.0267 13.1046 16.0276 13.0965 16.0264 13.0885C16.0253 13.0806 16.022 13.0731 16.017 13.0668ZM8.91882 9.71297L8.29622 9.35064V8.62372L8.91882 8.26139L9.54368 8.62372V9.35064L8.91882 9.71297ZM8.29622 5.8066C8.29111 5.7209 8.30345 5.63506 8.33249 5.55434C8.36152 5.47363 8.40664 5.39975 8.46506 5.33725C8.52348 5.27475 8.59397 5.22495 8.6722 5.19091C8.75042 5.15687 8.83474 5.13931 8.91995 5.13931C9.00516 5.13931 9.08947 5.15687 9.1677 5.19091C9.24593 5.22495 9.31641 5.27475 9.37484 5.33725C9.43325 5.39975 9.47837 5.47363 9.50741 5.55434C9.53644 5.63506 9.54878 5.7209 9.54368 5.8066V7.0657L8.91882 7.43029L8.29622 7.0657V5.8066ZM6.49808 11.1215C6.35522 11.1972 6.18884 11.2143 6.03377 11.1692C5.8787 11.124 5.74699 11.0202 5.66622 10.8794C5.58545 10.7386 5.56189 10.5718 5.60048 10.4138C5.63907 10.2559 5.73681 10.1192 5.87323 10.0323L6.96784 9.40273L7.5927 9.76732V10.492L6.49808 11.1215ZM12.1937 10.8951C12.1528 10.9666 12.0982 11.0292 12.0331 11.0793C11.9681 11.1294 11.8938 11.1661 11.8146 11.1871C11.7354 11.2082 11.6528 11.2132 11.5717 11.202C11.4905 11.1907 11.4124 11.1634 11.3418 11.1215L10.2584 10.492V9.76506L10.8833 9.40273L11.9667 10.0323C12.1096 10.1165 12.2137 10.2542 12.2562 10.4154C12.2987 10.5766 12.2763 10.7482 12.1937 10.8928V10.8951Z" fill="url(#paint2_radial_138_910)"/>
<g style="mix-blend-mode:lighten" opacity="0.4">
<path d="M8.92086 0.360352C7.22704 0.359904 5.57113 0.865546 4.16255 1.81333C2.75397 2.76111 1.656 4.10846 1.0075 5.68498C0.358992 7.2615 0.189082 8.99637 0.519258 10.6702C0.849434 12.344 1.66486 13.8816 2.86242 15.0884C4.05997 16.2953 5.58586 17.1173 7.24711 17.4504C8.90835 17.7835 10.6303 17.6127 12.1953 16.9598C13.7602 16.3068 15.0978 15.2009 16.0389 13.782C16.9799 12.3631 17.4822 10.6949 17.4822 8.98834C17.4822 6.70045 16.5803 4.50623 14.9748 2.88823C13.3693 1.27024 11.1917 0.360952 8.92086 0.360352ZM16.01 13.3023L14.8165 13.0374C14.1618 14.0051 13.2824 14.7971 12.2547 15.3444C11.227 15.8917 10.0822 16.1777 8.91974 16.1777C7.75732 16.1777 6.61249 15.8917 5.5848 15.3444C4.55712 14.7971 3.67768 14.0051 3.02297 13.0374L1.8317 13.3023C1.79686 13.3073 1.76133 13.3017 1.72963 13.2863C1.69793 13.2709 1.67149 13.2464 1.65367 13.2158C1.63585 13.1852 1.62744 13.15 1.62953 13.1146C1.63161 13.0792 1.64409 13.0452 1.66538 13.017L2.49027 12.1112C1.98501 11.0555 1.74339 9.89139 1.78642 8.72017C1.82945 7.54895 2.15583 6.40605 2.73717 5.39087C3.31851 4.3757 4.13722 3.51899 5.12208 2.89524C6.10694 2.2715 7.22814 1.89962 8.38816 1.81194L8.76577 0.645687C8.77977 0.61289 8.80297 0.584921 8.83251 0.565211C8.86205 0.5455 8.89667 0.534905 8.9321 0.534723C8.96665 0.535016 9.00036 0.545456 9.0291 0.564763C9.05785 0.58407 9.08038 0.611407 9.09393 0.643422L9.45131 1.81194C10.611 1.89977 11.7319 2.27165 12.7165 2.89526C13.7011 3.51887 14.5196 4.37534 15.1009 5.3902C15.6822 6.40507 16.0087 7.54762 16.052 8.71854C16.0952 9.88945 15.854 11.0533 15.3492 12.1089L16.1741 13.0147C16.1946 13.0434 16.2066 13.0774 16.2086 13.1127C16.2105 13.148 16.2025 13.1832 16.1853 13.214C16.1682 13.2447 16.1423 13.2694 16.1111 13.2852C16.0798 13.3009 16.0447 13.3069 16.01 13.3023Z" fill="white"/>
<g opacity="0.81">
<path d="M8.92086 0.360352C7.22704 0.359904 5.57113 0.865546 4.16255 1.81333C2.75397 2.76111 1.656 4.10846 1.0075 5.68498C0.358992 7.2615 0.189082 8.99637 0.519258 10.6702C0.849434 12.344 1.66486 13.8816 2.86242 15.0884C4.05997 16.2953 5.58586 17.1173 7.24711 17.4504C8.90835 17.7835 10.6303 17.6127 12.1953 16.9598C13.7602 16.3068 15.0978 15.2009 16.0389 13.782C16.9799 12.3631 17.4822 10.6949 17.4822 8.98834C17.4822 6.70045 16.5803 4.50623 14.9748 2.88823C13.3693 1.27024 11.1917 0.360952 8.92086 0.360352ZM16.01 13.3023L14.8165 13.0374C14.1618 14.0051 13.2824 14.7971 12.2547 15.3444C11.227 15.8917 10.0822 16.1777 8.91974 16.1777C7.75732 16.1777 6.61249 15.8917 5.5848 15.3444C4.55712 14.7971 3.67768 14.0051 3.02297 13.0374L1.8317 13.3023C1.79686 13.3073 1.76133 13.3017 1.72963 13.2863C1.69793 13.2709 1.67149 13.2464 1.65367 13.2158C1.63585 13.1852 1.62744 13.15 1.62953 13.1146C1.63161 13.0792 1.64409 13.0452 1.66538 13.017L2.49027 12.1112C1.98501 11.0555 1.74339 9.89139 1.78642 8.72017C1.82945 7.54895 2.15583 6.40605 2.73717 5.39087C3.31851 4.3757 4.13722 3.51899 5.12208 2.89524C6.10694 2.2715 7.22814 1.89962 8.38816 1.81194L8.76577 0.645687C8.77977 0.61289 8.80297 0.584921 8.83251 0.565211C8.86205 0.5455 8.89667 0.534905 8.9321 0.534723C8.96665 0.535016 9.00036 0.545456 9.0291 0.564763C9.05785 0.58407 9.08038 0.611407 9.09393 0.643422L9.45131 1.81194C10.611 1.89977 11.7319 2.27165 12.7165 2.89526C13.7011 3.51887 14.5196 4.37534 15.1009 5.3902C15.6822 6.40507 16.0087 7.54762 16.052 8.71854C16.0952 9.88945 15.854 11.0533 15.3492 12.1089L16.1741 13.0147C16.1946 13.0434 16.2066 13.0774 16.2086 13.1127C16.2105 13.148 16.2025 13.1832 16.1853 13.214C16.1682 13.2447 16.1423 13.2694 16.1111 13.2852C16.0798 13.3009 16.0447 13.3069 16.01 13.3023Z" fill="#303234"/>
</g>
</g>
<g style="mix-blend-mode:lighten" opacity="0.35">
<path d="M16.017 13.0668L14.2188 11.1351C14.0916 11.188 13.9539 11.2107 13.8165 11.2015C13.6792 11.1924 13.5457 11.1515 13.4265 11.0822C13.3073 11.0128 13.2054 10.9168 13.1289 10.8015C13.0523 10.6862 13.003 10.5548 12.9849 10.4173C12.9609 10.2088 12.8888 10.0089 12.7745 9.83355C12.6601 9.65818 12.5066 9.51219 12.3263 9.40726L11.598 8.98831L14.8347 7.10193L14.4773 6.47918L10.881 8.57163L10.2562 8.2093V7.47332L13.8525 5.38086L13.4996 4.75584L10.2584 6.65128V5.8066C10.2587 5.59682 10.2103 5.38988 10.117 5.20232C10.0237 5.01476 9.88819 4.85178 9.72124 4.7264C9.61128 4.64187 9.52216 4.53291 9.46081 4.40801C9.39947 4.28311 9.36756 4.14563 9.36756 4.00627C9.36756 3.86692 9.39947 3.72944 9.46081 3.60454C9.52216 3.47964 9.61128 3.37068 9.72124 3.28614L8.96153 0.75436C8.9591 0.745377 8.95384 0.73743 8.94655 0.731713C8.93925 0.725997 8.93031 0.722819 8.92107 0.722656C8.91153 0.722694 8.90226 0.725786 8.89458 0.731485C8.8869 0.737184 8.88123 0.745195 8.87837 0.75436L8.11416 3.28614C8.22412 3.37068 8.31324 3.47964 8.37458 3.60454C8.43593 3.72944 8.46784 3.86692 8.46784 4.00627C8.46784 4.14563 8.43593 4.28311 8.37458 4.40801C8.31324 4.53291 8.22412 4.64187 8.11416 4.7264C7.94721 4.85178 7.81169 5.01476 7.71841 5.20232C7.62514 5.38988 7.5767 5.59682 7.57696 5.8066V6.65128L4.34031 4.76717L3.98293 5.38992L7.57921 7.48238V8.2093L6.96784 8.57163L3.37157 6.47918L3.01419 7.10193L6.25533 8.98831L5.52933 9.40952C5.34675 9.51266 5.19079 9.6576 5.07404 9.83265C4.9573 10.0077 4.88305 10.208 4.85728 10.4173C4.83962 10.5555 4.79052 10.6878 4.7138 10.8039C4.63708 10.9199 4.53482 11.0165 4.41497 11.0862C4.29512 11.1559 4.16093 11.1967 4.02284 11.2056C3.88474 11.2145 3.74648 11.1912 3.61881 11.1374L1.82067 13.0691C1.81535 13.0767 1.8125 13.0858 1.8125 13.0951C1.8125 13.1044 1.81535 13.1135 1.82067 13.1211C1.82534 13.1298 1.83269 13.1368 1.84162 13.1408C1.85055 13.1449 1.86056 13.146 1.87012 13.1438L4.42797 12.5437C4.44543 12.4055 4.49428 12.2732 4.57073 12.1572C4.64718 12.0411 4.74917 11.9444 4.86877 11.8745C4.98837 11.8046 5.12235 11.7634 5.26031 11.7542C5.39827 11.745 5.53648 11.7679 5.66419 11.8213C5.85571 11.9035 6.06353 11.94 6.27138 11.9278C6.47922 11.9157 6.68144 11.8552 6.8622 11.7511L7.58146 11.3231V15.0936H8.29622V10.9087L8.91882 10.5441L9.54368 10.9087V15.0936H10.2584V11.3231L10.9844 11.7466C11.1652 11.8506 11.3674 11.9111 11.5753 11.9233C11.7831 11.9355 11.9909 11.899 12.1824 11.8168C12.3102 11.7634 12.4484 11.7404 12.5863 11.7497C12.7243 11.7589 12.8583 11.8001 12.9779 11.8699C13.0975 11.9398 13.1995 12.0366 13.2759 12.1526C13.3524 12.2687 13.4012 12.401 13.4187 12.5391L15.9743 13.1347C15.9838 13.1369 15.9938 13.1359 16.0028 13.1318C16.0117 13.1277 16.0191 13.1208 16.0237 13.1121C16.0267 13.1046 16.0276 13.0965 16.0264 13.0885C16.0253 13.0806 16.022 13.0731 16.017 13.0668ZM8.91882 9.71297L8.29622 9.35064V8.62372L8.91882 8.26139L9.54368 8.62372V9.35064L8.91882 9.71297ZM8.29622 5.8066C8.29111 5.7209 8.30345 5.63506 8.33249 5.55434C8.36152 5.47363 8.40664 5.39975 8.46506 5.33725C8.52348 5.27475 8.59397 5.22495 8.6722 5.19091C8.75042 5.15687 8.83474 5.13931 8.91995 5.13931C9.00516 5.13931 9.08947 5.15687 9.1677 5.19091C9.24593 5.22495 9.31641 5.27475 9.37484 5.33725C9.43325 5.39975 9.47837 5.47363 9.50741 5.55434C9.53644 5.63506 9.54878 5.7209 9.54368 5.8066V7.0657L8.91882 7.43029L8.29622 7.0657V5.8066ZM6.49808 11.1215C6.35522 11.1972 6.18884 11.2143 6.03377 11.1692C5.8787 11.124 5.74699 11.0202 5.66622 10.8794C5.58545 10.7386 5.56189 10.5718 5.60048 10.4138C5.63907 10.2559 5.73681 10.1192 5.87323 10.0323L6.96784 9.40273L7.5927 9.76732V10.492L6.49808 11.1215ZM12.1937 10.8951C12.1528 10.9666 12.0982 11.0292 12.0331 11.0793C11.9681 11.1294 11.8938 11.1661 11.8146 11.1871C11.7354 11.2082 11.6528 11.2132 11.5717 11.202C11.4905 11.1907 11.4124 11.1634 11.3418 11.1215L10.2584 10.492V9.76506L10.8833 9.40273L11.9667 10.0323C12.1096 10.1165 12.2137 10.2542 12.2562 10.4154C12.2987 10.5766 12.2763 10.7482 12.1937 10.8928V10.8951Z" fill="white"/>
<g opacity="0.6">
<path d="M16.017 13.0668L14.2188 11.1351C14.0916 11.188 13.9539 11.2107 13.8165 11.2015C13.6792 11.1924 13.5457 11.1515 13.4265 11.0822C13.3073 11.0128 13.2054 10.9168 13.1289 10.8015C13.0523 10.6862 13.003 10.5548 12.9849 10.4173C12.9609 10.2088 12.8888 10.0089 12.7745 9.83355C12.6601 9.65818 12.5066 9.51219 12.3263 9.40726L11.598 8.98831L14.8347 7.10193L14.4773 6.47918L10.881 8.57163L10.2562 8.2093V7.47332L13.8525 5.38086L13.4996 4.75584L10.2584 6.65128V5.8066C10.2587 5.59682 10.2103 5.38988 10.117 5.20232C10.0237 5.01476 9.88819 4.85178 9.72124 4.7264C9.61128 4.64187 9.52216 4.53291 9.46081 4.40801C9.39947 4.28311 9.36756 4.14563 9.36756 4.00627C9.36756 3.86692 9.39947 3.72944 9.46081 3.60454C9.52216 3.47964 9.61128 3.37068 9.72124 3.28614L8.96153 0.75436C8.9591 0.745377 8.95384 0.73743 8.94655 0.731713C8.93925 0.725997 8.93031 0.722819 8.92107 0.722656C8.91153 0.722694 8.90226 0.725786 8.89458 0.731485C8.8869 0.737184 8.88123 0.745195 8.87837 0.75436L8.11416 3.28614C8.22412 3.37068 8.31324 3.47964 8.37458 3.60454C8.43593 3.72944 8.46784 3.86692 8.46784 4.00627C8.46784 4.14563 8.43593 4.28311 8.37458 4.40801C8.31324 4.53291 8.22412 4.64187 8.11416 4.7264C7.94721 4.85178 7.81169 5.01476 7.71841 5.20232C7.62514 5.38988 7.5767 5.59682 7.57696 5.8066V6.65128L4.34031 4.76717L3.98293 5.38992L7.57921 7.48238V8.2093L6.96784 8.57163L3.37157 6.47918L3.01419 7.10193L6.25533 8.98831L5.52933 9.40952C5.34675 9.51266 5.19079 9.6576 5.07404 9.83265C4.9573 10.0077 4.88305 10.208 4.85728 10.4173C4.83962 10.5555 4.79052 10.6878 4.7138 10.8039C4.63708 10.9199 4.53482 11.0165 4.41497 11.0862C4.29512 11.1559 4.16093 11.1967 4.02284 11.2056C3.88474 11.2145 3.74648 11.1912 3.61881 11.1374L1.82067 13.0691C1.81535 13.0767 1.8125 13.0858 1.8125 13.0951C1.8125 13.1044 1.81535 13.1135 1.82067 13.1211C1.82534 13.1298 1.83269 13.1368 1.84162 13.1408C1.85055 13.1449 1.86056 13.146 1.87012 13.1438L4.42797 12.5437C4.44543 12.4055 4.49428 12.2732 4.57073 12.1572C4.64718 12.0411 4.74917 11.9444 4.86877 11.8745C4.98837 11.8046 5.12235 11.7634 5.26031 11.7542C5.39827 11.745 5.53648 11.7679 5.66419 11.8213C5.85571 11.9035 6.06353 11.94 6.27138 11.9278C6.47922 11.9157 6.68144 11.8552 6.8622 11.7511L7.58146 11.3231V15.0936H8.29622V10.9087L8.91882 10.5441L9.54368 10.9087V15.0936H10.2584V11.3231L10.9844 11.7466C11.1652 11.8506 11.3674 11.9111 11.5753 11.9233C11.7831 11.9355 11.9909 11.899 12.1824 11.8168C12.3102 11.7634 12.4484 11.7404 12.5863 11.7497C12.7243 11.7589 12.8583 11.8001 12.9779 11.8699C13.0975 11.9398 13.1995 12.0366 13.2759 12.1526C13.3524 12.2687 13.4012 12.401 13.4187 12.5391L15.9743 13.1347C15.9838 13.1369 15.9938 13.1359 16.0028 13.1318C16.0117 13.1277 16.0191 13.1208 16.0237 13.1121C16.0267 13.1046 16.0276 13.0965 16.0264 13.0885C16.0253 13.0806 16.022 13.0731 16.017 13.0668ZM8.91882 9.71297L8.29622 9.35064V8.62372L8.91882 8.26139L9.54368 8.62372V9.35064L8.91882 9.71297ZM8.29622 5.8066C8.29111 5.7209 8.30345 5.63506 8.33249 5.55434C8.36152 5.47363 8.40664 5.39975 8.46506 5.33725C8.52348 5.27475 8.59397 5.22495 8.6722 5.19091C8.75042 5.15687 8.83474 5.13931 8.91995 5.13931C9.00516 5.13931 9.08947 5.15687 9.1677 5.19091C9.24593 5.22495 9.31641 5.27475 9.37484 5.33725C9.43325 5.39975 9.47837 5.47363 9.50741 5.55434C9.53644 5.63506 9.54878 5.7209 9.54368 5.8066V7.0657L8.91882 7.43029L8.29622 7.0657V5.8066ZM6.49808 11.1215C6.35522 11.1972 6.18884 11.2143 6.03377 11.1692C5.8787 11.124 5.74699 11.0202 5.66622 10.8794C5.58545 10.7386 5.56189 10.5718 5.60048 10.4138C5.63907 10.2559 5.73681 10.1192 5.87323 10.0323L6.96784 9.40273L7.5927 9.76732V10.492L6.49808 11.1215ZM12.1937 10.8951C12.1528 10.9666 12.0982 11.0292 12.0331 11.0793C11.9681 11.1294 11.8938 11.1661 11.8146 11.1871C11.7354 11.2082 11.6528 11.2132 11.5717 11.202C11.4905 11.1907 11.4124 11.1634 11.3418 11.1215L10.2584 10.492V9.76506L10.8833 9.40273L11.9667 10.0323C12.1096 10.1165 12.2137 10.2542 12.2562 10.4154C12.2987 10.5766 12.2763 10.7482 12.1937 10.8928V10.8951Z" fill="#47474B"/>
</g>
</g>
<path d="M8.92086 0.360352C7.22704 0.359904 5.57113 0.865546 4.16255 1.81333C2.75397 2.76111 1.656 4.10846 1.0075 5.68498C0.358992 7.2615 0.189082 8.99637 0.519258 10.6702C0.849434 12.344 1.66486 13.8816 2.86242 15.0884C4.05997 16.2953 5.58586 17.1173 7.24711 17.4504C8.90835 17.7835 10.6303 17.6127 12.1953 16.9598C13.7602 16.3068 15.0978 15.2009 16.0389 13.782C16.9799 12.3631 17.4822 10.6949 17.4822 8.98834C17.4822 6.70045 16.5803 4.50623 14.9748 2.88823C13.3693 1.27024 11.1917 0.360952 8.92086 0.360352ZM14.9446 15.0574C13.5505 16.4626 11.7159 17.3374 9.75339 17.5325C7.79089 17.7276 5.82195 17.231 4.18211 16.1274C2.54227 15.0238 1.33301 13.3814 0.760405 11.4802C0.187796 9.57892 0.287275 7.53644 1.04189 5.7008C1.7965 3.86516 3.15955 2.34996 4.89875 1.41341C6.63796 0.47685 8.64569 0.176897 10.5798 0.564665C12.5139 0.952432 14.2547 2.00392 15.5056 3.53995C16.7564 5.07597 17.4399 7.00148 17.4395 8.98834C17.4409 10.1157 17.2212 11.2321 16.7931 12.2736C16.3649 13.3152 15.7367 14.2612 14.9446 15.0574Z" fill="url(#paint3_linear_138_910)"/>
<path d="M8.91873 7.47984V7.43002L8.29612 7.06543L8.25342 7.09034L8.91873 7.47984Z" fill="#EBEBEB"/>
<path d="M8.91893 5.17682V5.13379C8.74009 5.13379 8.56858 5.20537 8.44213 5.33277C8.31567 5.46018 8.24463 5.63298 8.24463 5.81316V7.09717L8.28733 7.07226V5.80636C8.28733 5.72312 8.30371 5.64069 8.33554 5.56387C8.36736 5.48704 8.41399 5.41734 8.47273 5.35879C8.53147 5.30024 8.60115 5.25401 8.67774 5.22277C8.75433 5.19154 8.83631 5.17592 8.91893 5.17682Z" fill="url(#paint4_linear_138_910)"/>
<path d="M8.91873 8.21191L8.25342 8.59916L8.29612 8.62407L8.91873 8.26173V8.21191Z" fill="#1A1A1A"/>
<path d="M8.91892 0.767948V0.722656C8.90939 0.722694 8.90011 0.725786 8.89244 0.731485C8.88476 0.737184 8.87908 0.745195 8.87622 0.75436L8.11426 3.28614L8.16371 3.27029L8.91892 0.767948Z" fill="white"/>
<path d="M7.62406 6.72588V5.80647C7.62317 5.6024 7.66991 5.40099 7.76049 5.21847C7.85107 5.03595 7.98296 4.87743 8.14552 4.75571C8.25964 4.66924 8.3526 4.55758 8.41725 4.4293C8.4819 4.30102 8.51653 4.15952 8.51849 4.01567C8.52044 3.87181 8.48966 3.72941 8.42852 3.5994C8.36737 3.46938 8.27748 3.35521 8.16575 3.26562L8.1163 3.28148C8.22626 3.36601 8.31538 3.47497 8.37672 3.59987C8.43807 3.72477 8.46998 3.86225 8.46998 4.00161C8.46998 4.14097 8.43807 4.27844 8.37672 4.40334C8.31538 4.52825 8.22626 4.6372 8.1163 4.72174C7.94935 4.84712 7.81383 5.01009 7.72055 5.19765C7.62728 5.38521 7.57884 5.59215 7.5791 5.80194V6.64662L7.62406 6.72588Z" fill="url(#paint5_linear_138_910)"/>
<path d="M3.98291 5.38988L7.58143 7.48233L7.62414 7.45742L4.04135 5.37402L3.98291 5.38988Z" fill="#808080"/>
<path d="M7.58154 8.20758L7.62425 8.23249V7.45801L7.58154 7.48292V8.20758Z" fill="#F2F2F2"/>
<path d="M4.04135 5.37448L4.35602 4.82646L4.34029 4.76758L3.98291 5.39033L4.04135 5.37448Z" fill="white"/>
<path d="M7.58148 6.6517L4.34033 4.76758L4.35607 4.82646L7.62418 6.72643L7.58148 6.6517Z" fill="#EBEBEB"/>
<path d="M8.91895 7.47984V7.43002L9.5438 7.06543L9.5865 7.09034L8.91895 7.47984Z" fill="#F2F2F2"/>
<path d="M8.91895 5.17682V5.13379C9.09778 5.13379 9.26929 5.20537 9.39575 5.33277C9.5222 5.46018 9.59325 5.63298 9.59325 5.81316V7.09717L9.55054 7.07226V5.80636C9.55025 5.7232 9.53366 5.64092 9.50173 5.56423C9.46981 5.48754 9.42316 5.41795 9.36449 5.35946C9.30581 5.30097 9.23624 5.25473 9.15979 5.22339C9.08333 5.19205 9.00149 5.17622 8.91895 5.17682Z" fill="url(#paint6_linear_138_910)"/>
<path d="M8.91895 8.21191L9.5865 8.59916L9.5438 8.62407L8.91895 8.26173V8.21191Z" fill="#808080"/>
<path d="M8.9209 0.765696V0.722669C8.93024 0.722434 8.93937 0.725464 8.94675 0.731243C8.95412 0.737022 8.95928 0.745194 8.96136 0.754373L9.72557 3.28615L9.67612 3.2703L8.9209 0.765696Z" fill="#F2F2F2"/>
<path d="M10.2156 6.72654V5.80713C10.2164 5.60332 10.1698 5.40216 10.0797 5.21971C9.98951 5.03726 9.85825 4.87859 9.69636 4.75637C9.58012 4.6692 9.48581 4.55577 9.42101 4.42519C9.3562 4.29461 9.32272 4.15053 9.32325 4.00454C9.32359 3.86306 9.35548 3.72348 9.41656 3.59609C9.47764 3.4687 9.56635 3.35676 9.67613 3.26855L9.72558 3.28441C9.61562 3.36894 9.5265 3.4779 9.46515 3.6028C9.40381 3.7277 9.3719 3.86518 9.3719 4.00454C9.3719 4.14389 9.40381 4.28137 9.46515 4.40627C9.5265 4.53118 9.61562 4.64013 9.72558 4.72467C9.89253 4.85005 10.028 5.01302 10.1213 5.20058C10.2146 5.38814 10.263 5.59508 10.2628 5.80487V6.64955L10.2156 6.72654Z" fill="url(#paint7_linear_138_910)"/>
<path d="M13.857 5.38988L10.2585 7.48233L10.2158 7.45742L13.7986 5.37402L13.857 5.38988Z" fill="#1A1A1A"/>
<path d="M10.2585 8.20984L10.2158 8.23475V7.45801L10.2585 7.48292V8.20984Z" fill="#4D4D4D"/>
<path d="M13.7986 5.37382L13.4839 4.82353L13.4996 4.76465L13.857 5.38967L13.7986 5.37382Z" fill="#B3B3B3"/>
<path d="M10.2585 6.65103L13.4997 4.76465L13.4839 4.82353L10.2158 6.72576L10.2585 6.65103Z" fill="#F2F2F2"/>
<path d="M7.62425 9.74023L7.58154 9.76514V10.4921L7.62425 10.5147V9.74023Z" fill="#F2F2F2"/>
<path d="M5.64612 10.8911L5.60791 10.9137C5.69793 11.0661 5.84354 11.177 6.01364 11.2227C6.18373 11.2684 6.36482 11.2453 6.51822 11.1583L7.62182 10.5151L7.57912 10.4902L6.49574 11.122C6.35251 11.2042 6.18286 11.2261 6.02373 11.1828C5.86459 11.1395 5.72887 11.0347 5.64612 10.8911Z" fill="url(#paint8_linear_138_910)"/>
<path d="M8.25342 9.37354L8.91873 9.76305V9.71323L8.29612 9.34863L8.25342 9.37354Z" fill="#EBEBEB"/>
<path d="M1.85413 13.0966L1.81592 13.1192C1.82152 13.1267 1.82929 13.1322 1.83814 13.135C1.847 13.1379 1.85651 13.1379 1.86537 13.1351L4.42322 12.5349L4.38276 12.501L1.85413 13.0966Z" fill="url(#paint9_linear_138_910)"/>
<path d="M7.62395 11.2461L6.83277 11.699C6.65871 11.8011 6.46331 11.8606 6.26228 11.8728C6.06124 11.885 5.86017 11.8495 5.67522 11.7692C5.54211 11.7122 5.39765 11.6872 5.25329 11.6962C5.10893 11.7053 4.96864 11.7481 4.84358 11.8213C4.72318 11.8937 4.62034 11.9922 4.54257 12.1098C4.4648 12.2273 4.41406 12.3608 4.39404 12.5007L4.4345 12.5346C4.45196 12.3964 4.50081 12.2642 4.57726 12.1481C4.65371 12.032 4.7557 11.9353 4.8753 11.8654C4.9949 11.7955 5.12888 11.7544 5.26684 11.7452C5.40479 11.7359 5.543 11.7589 5.67072 11.8122C5.86224 11.8945 6.07006 11.931 6.2779 11.9188C6.48575 11.9066 6.68797 11.8461 6.86873 11.742L7.58124 11.3231L7.62395 11.2461Z" fill="url(#paint10_linear_138_910)"/>
<path d="M8.29612 15.0917V10.9067L8.25342 10.8818V15.0486L8.29612 15.0917Z" fill="#4D4D4D"/>
<path d="M8.91873 10.544V10.4941L8.25342 10.8814L8.29612 10.9063L8.91873 10.544Z" fill="#1A1A1A"/>
<path d="M8.2536 15.0479H7.62425L7.58154 15.0909H8.2963L8.2536 15.0479Z" fill="#666666"/>
<path d="M7.58154 11.3208V15.0913L7.62425 15.0483V11.2461L7.58154 11.3208Z" fill="#F2F2F2"/>
<path d="M7.6241 9.73978L7.5814 9.76469L6.95654 9.40236V9.35254L7.6241 9.73978Z" fill="#808080"/>
<path d="M5.64609 10.8902L5.60788 10.9128C5.52516 10.7591 5.50446 10.5791 5.55009 10.4104C5.59572 10.2417 5.70418 10.0972 5.85288 10.007L6.96772 9.35254V9.40236L5.87536 10.0319C5.80425 10.073 5.7419 10.1278 5.69187 10.1932C5.64184 10.2586 5.60512 10.3333 5.58382 10.4131C5.56252 10.4928 5.55705 10.576 5.56774 10.6579C5.57843 10.7398 5.60505 10.8187 5.64609 10.8902Z" fill="url(#paint11_linear_138_910)"/>
<path d="M8.25342 9.37538V8.59863L8.29612 8.62354V9.35047L8.25342 9.37538Z" fill="#4D4D4D"/>
<path d="M1.85449 13.0965L1.81628 13.1169C1.81096 13.1093 1.80811 13.1002 1.80811 13.0908C1.80811 13.0815 1.81096 13.0724 1.81628 13.0648L3.61442 11.1309L3.62566 11.1829L1.85449 13.0965Z" fill="white"/>
<path d="M6.32934 8.98566L5.53816 9.43858C5.36346 9.54025 5.21477 9.68166 5.10394 9.85151C4.99311 10.0214 4.92321 10.215 4.89983 10.4169C4.88271 10.5596 4.8333 10.6965 4.75541 10.817C4.67752 10.9375 4.57323 11.0384 4.45055 11.1119C4.32788 11.1854 4.1901 11.2296 4.04782 11.241C3.90554 11.2524 3.76256 11.2308 3.62989 11.1778L3.61865 11.1257C3.74551 11.1794 3.88291 11.203 4.02027 11.1948C4.15762 11.1865 4.29127 11.1466 4.41091 11.0782C4.53055 11.0097 4.633 10.9145 4.71036 10.7998C4.78772 10.6852 4.83793 10.5541 4.85712 10.4169C4.881 10.2081 4.95324 10.0079 5.06803 9.83251C5.18282 9.65707 5.33693 9.51127 5.51794 9.40687L6.24393 8.9834L6.32934 8.98566Z" fill="url(#paint12_linear_138_910)"/>
<path d="M3.36035 6.47949L6.95663 8.57195V8.62177L3.37609 6.53611L3.36035 6.47949Z" fill="#EBEBEB"/>
<path d="M7.5814 8.20703L7.6241 8.23194L6.95654 8.62145V8.57163L7.5814 8.20703Z" fill="#F2F2F2"/>
<path d="M3.37604 6.53611L3.06137 7.0864L3.00293 7.10225L3.36031 6.47949L3.37604 6.53611Z" fill="white"/>
<path d="M6.24407 8.98591L3.00293 7.10179L3.06137 7.08594L6.32948 8.98591H6.24407Z" fill="#808080"/>
<path d="M10.2158 9.73978L10.2585 9.76469L10.8811 9.40236V9.35254L10.2158 9.73978Z" fill="#1A1A1A"/>
<path d="M12.1935 10.8902L12.2295 10.9128C12.3124 10.7594 12.3334 10.5796 12.2882 10.4109C12.243 10.2422 12.135 10.0976 11.9867 10.007L10.8809 9.35254V9.40236L11.9642 10.0319C12.1074 10.1153 12.2119 10.2524 12.2549 10.4133C12.2978 10.5742 12.2758 10.7457 12.1935 10.8902Z" fill="url(#paint13_linear_138_910)"/>
<path d="M9.58616 9.37538V8.59863L9.54346 8.62354V9.35047L9.58616 9.37538Z" fill="#F2F2F2"/>
<path d="M15.9855 13.0962L16.0237 13.1166C16.0291 13.1089 16.0319 13.0998 16.0319 13.0905C16.0319 13.0812 16.0291 13.0721 16.0237 13.0645L14.2256 11.1328L14.2144 11.1826L15.9855 13.0962Z" fill="#CCCCCC"/>
<path d="M11.5103 8.98828L12.3014 9.44119C12.4764 9.54225 12.6254 9.68315 12.7367 9.85263C12.8479 10.0221 12.9182 10.2155 12.942 10.4172C12.9591 10.56 13.0085 10.6969 13.0864 10.8174C13.1643 10.9379 13.2686 11.0388 13.3913 11.1123C13.514 11.1858 13.6517 11.2299 13.794 11.2413C13.9363 11.2528 14.0793 11.2311 14.212 11.1781L14.2232 11.1283C14.0961 11.1824 13.9583 11.2064 13.8205 11.1982C13.6827 11.19 13.5486 11.15 13.4286 11.0813C13.3087 11.0125 13.206 10.9169 13.1287 10.8017C13.0513 10.6865 13.0013 10.555 12.9825 10.4172C12.9585 10.2091 12.8864 10.0095 12.7721 9.83449C12.6577 9.65948 12.5042 9.51392 12.3239 9.40949L11.5979 8.98828H11.5103Z" fill="url(#paint14_linear_138_910)"/>
<path d="M14.4796 6.47949L10.8833 8.57195V8.62177L14.4661 6.53837L14.4796 6.47949Z" fill="#F2F2F2"/>
<path d="M10.2585 8.20898L10.2158 8.23389L10.8834 8.62113V8.57131L10.2585 8.20898Z" fill="#EBEBEB"/>
<path d="M14.4658 6.53837L14.7782 7.0864L14.8389 7.10225L14.4793 6.47949L14.4658 6.53837Z" fill="#B3B3B3"/>
<path d="M11.5981 8.98817L14.8392 7.10179L14.7786 7.08594L11.5127 8.98817H11.5981Z" fill="#1A1A1A"/>
<path d="M10.2158 9.74023L10.2585 9.76514V10.4921L10.2158 10.5147V9.74023Z" fill="#4D4D4D"/>
<path d="M12.1938 10.8911L12.2297 10.9137C12.1398 11.0631 11.9963 11.1719 11.8288 11.2175C11.6614 11.263 11.483 11.2418 11.3307 11.1583L10.2271 10.5151L10.2698 10.4902L11.3531 11.122C11.4955 11.2014 11.663 11.2217 11.82 11.1785C11.977 11.1354 12.1111 11.0323 12.1938 10.8911Z" fill="url(#paint15_linear_138_910)"/>
<path d="M9.5865 9.37354L8.91895 9.76305V9.71323L9.5438 9.34863L9.5865 9.37354Z" fill="white"/>
<path d="M15.9853 13.0989L16.0213 13.1215C16.0164 13.1294 16.0093 13.1355 16.0008 13.1392C15.9924 13.1428 15.9831 13.1438 15.9741 13.1419L13.4185 12.5418L13.4567 12.5078L15.9853 13.0989Z" fill="url(#paint16_linear_138_910)"/>
<path d="M10.2158 11.248L11.007 11.701C11.1818 11.8022 11.3776 11.861 11.5789 11.8728C11.7802 11.8846 11.9815 11.849 12.1668 11.7689C12.2983 11.7132 12.4407 11.6884 12.5832 11.6965C12.7256 11.7046 12.8644 11.7454 12.9888 11.8158C13.1132 11.8861 13.2201 11.9841 13.3012 12.1024C13.3824 12.2206 13.4356 12.356 13.457 12.4981L13.4188 12.5321C13.4018 12.3913 13.3523 12.2564 13.2743 12.1384C13.1962 12.0204 13.0917 11.9226 12.9692 11.8527C12.8496 11.7825 12.7152 11.7416 12.577 11.7333C12.4388 11.7251 12.3006 11.7497 12.1735 11.8051C11.9819 11.8871 11.7739 11.9231 11.5661 11.9106C11.3582 11.898 11.1561 11.8371 10.9755 11.7327L10.2585 11.3228L10.2158 11.248Z" fill="url(#paint17_linear_138_910)"/>
<path d="M9.54346 15.0917V10.9067L9.58616 10.8818V15.0486L9.54346 15.0917Z" fill="#F2F2F2"/>
<path d="M8.91895 10.544V10.4941L9.5865 10.8814L9.5438 10.9063L8.91895 10.544Z" fill="#808080"/>
<path d="M9.58616 15.0508H10.2155L10.2582 15.0938H9.54346L9.58616 15.0508Z" fill="#666666"/>
<path d="M10.2585 11.3228V15.0933L10.2158 15.0502V11.248L10.2585 11.3228Z" fill="#4D4D4D"/>
<path d="M9.08273 0.643602L9.45135 1.81212L9.48506 1.77135L9.12319 0.62775C9.10562 0.588366 9.07724 0.554864 9.0414 0.531192C9.00556 0.507519 8.96375 0.494664 8.9209 0.494141V0.537167C8.95519 0.537267 8.98873 0.547372 9.01745 0.56626C9.04616 0.585147 9.06884 0.61201 9.08273 0.643602Z" fill="url(#paint18_linear_138_910)"/>
<path d="M16.098 8.98802C16.0986 7.16812 15.4182 5.4149 14.1925 4.07805C12.9669 2.7412 11.2861 1.91898 9.48538 1.77539L9.45166 1.81162C10.6114 1.89945 11.7323 2.27134 12.7169 2.89495C13.7015 3.51856 14.52 4.37502 15.1013 5.38989C15.6826 6.40475 16.009 7.5473 16.0523 8.71822C16.0956 9.88914 15.8543 11.053 15.3496 12.1086H15.4012C15.8625 11.1341 16.1007 10.0677 16.098 8.98802Z" fill="url(#paint19_linear_138_910)"/>
<path d="M16.2077 12.9902L15.4008 12.1025H15.3491L16.174 13.0084C16.1945 13.0371 16.2065 13.0711 16.2085 13.1064C16.2105 13.1417 16.2024 13.1768 16.1853 13.2076L16.2212 13.228C16.2375 13.1996 16.2475 13.1679 16.2504 13.1352C16.2531 13.0834 16.238 13.0322 16.2077 12.9902Z" fill="url(#paint20_linear_138_910)"/>
<path d="M16.1833 13.2137C16.1655 13.2458 16.1381 13.2714 16.105 13.2869C16.0719 13.3023 16.0348 13.3069 15.999 13.2998L14.8145 13.0371L14.8347 13.0847L15.9922 13.3428H16.0282C16.067 13.3422 16.1051 13.3314 16.1385 13.3116C16.172 13.2917 16.1998 13.2635 16.2192 13.2296L16.1833 13.2137Z" fill="url(#paint21_linear_138_910)"/>
<path d="M14.8169 13.0371C14.1622 14.0048 13.2827 14.7968 12.2551 15.3441C11.2274 15.8914 10.0825 16.1775 8.92012 16.1775C7.7577 16.1775 6.61287 15.8914 5.58519 15.3441C4.5575 14.7968 3.67807 14.0048 3.02335 13.0371L3.00537 13.0847C3.66478 14.052 4.54794 14.843 5.57862 15.3896C6.6093 15.9361 7.75652 16.2217 8.92124 16.2217C10.086 16.2217 11.2332 15.9361 12.2639 15.3896C13.2945 14.843 14.1777 14.052 14.8371 13.0847L14.8169 13.0371Z" fill="url(#paint22_linear_138_910)"/>
<path d="M1.80922 13.3451H1.83844L3.00498 13.0847L3.02296 13.0371L1.83169 13.3021C1.79679 13.3062 1.76146 13.3 1.72995 13.2844C1.69844 13.2687 1.67211 13.2442 1.65413 13.2137L1.61816 13.2341C1.63786 13.2676 1.66579 13.2954 1.69925 13.3148C1.73272 13.3343 1.77059 13.3447 1.80922 13.3451Z" fill="url(#paint23_linear_138_910)"/>
<path d="M1.63397 12.9877C1.60479 13.0269 1.58902 13.0746 1.58902 13.1236C1.58747 13.1627 1.59766 13.2014 1.61824 13.2346L1.6542 13.2142C1.6356 13.1847 1.62572 13.1506 1.62572 13.1157C1.62572 13.0808 1.6356 13.0466 1.6542 13.0172L2.4791 12.1113H2.4274L1.63397 12.9877Z" fill="url(#paint24_linear_138_910)"/>
<path d="M1.74171 8.98865C1.74009 10.066 1.97818 11.13 2.43849 12.1024H2.49018C1.98684 11.0471 1.74674 9.88395 1.79073 8.71395C1.83473 7.54394 2.16147 6.40243 2.74262 5.38849C3.32376 4.37456 4.14174 3.51885 5.12555 2.89563C6.10936 2.27241 7.22927 1.90052 8.38807 1.81225L8.35661 1.77148C6.55589 1.91766 4.87571 2.74121 3.6501 4.07841C2.42449 5.41561 1.74321 7.16852 1.74171 8.98865Z" fill="url(#paint25_linear_138_910)"/>
<path d="M8.71656 0.627295L8.35693 1.77543L8.3884 1.81619L8.76601 0.645412C8.78001 0.612614 8.8032 0.584646 8.83275 0.564935C8.86229 0.545225 8.8969 0.534629 8.93234 0.534448V0.491421C8.88696 0.48945 8.84205 0.501377 8.80353 0.525633C8.76501 0.549888 8.73469 0.585332 8.71656 0.627295Z" fill="url(#paint26_linear_138_910)"/>
<path d="M77.8974 20.5465C77.8974 20.5465 77.1916 20.5963 76.4611 20.6642C76.5286 20.4853 76.623 20.3268 76.7129 20.1162C76.7129 20.1162 75.6408 20.3698 75.4677 20.7571L75.1822 20.7933C74.6495 20.8658 74.218 21.3934 74.218 21.3934C74.218 21.3934 74.6675 21.3459 75.2092 21.2825C74.8316 22.0954 74.209 23.3998 74.209 23.3998L75.2564 23.2707C75.6497 22.3649 75.9577 21.7195 76.2296 21.1602C76.4139 21.1375 76.5735 21.1149 76.6927 21.0968C77.1316 21.0052 77.5442 20.8148 77.8997 20.5397" fill="#231F20"/>
<path d="M47.2751 22.9742C47.861 22.9742 48.2588 23.11 48.4686 23.3818C48.6799 23.6558 48.6664 24.0181 48.4304 24.4733C48.1517 25.01 47.8977 25.4607 47.2279 25.8094C46.579 26.161 45.8517 26.3396 45.1151 26.328C44.5262 26.328 44.1328 26.1921 43.9373 25.9136C43.7417 25.635 43.7575 25.2772 43.9867 24.8311C44.3379 24.2127 44.8594 23.7101 45.4882 23.3841C46.0403 23.0878 46.6613 22.9462 47.2863 22.9742M46.2861 23.6535C45.8798 23.8863 45.5489 24.2323 45.3331 24.6499C44.8656 25.5558 45.2409 25.8841 45.5961 25.8592C46.1175 25.823 46.5266 25.4856 46.8525 24.9806C47.1245 24.5548 47.302 24.197 47.302 23.8845C47.302 23.572 47.0458 23.2754 46.2861 23.6581" fill="#231F20"/>
<path d="M35.4615 22.1133C35.4615 22.1133 34.6614 22.0975 34.2658 22.5549L32.4114 24.6995L32.081 22.4191C31.6708 22.4707 31.2666 22.5625 30.874 22.6931L31.2898 25.7434L32.3687 25.6212L35.4615 22.1133Z" fill="#231F20"/>
<path d="M33.7148 25.11C36.5784 25.3886 38.6957 24.4782 38.4237 23.7739C38.2934 23.4342 37.9382 23.2621 37.0751 22.9904C36.5312 22.8205 37.3741 22.2793 39.0486 22.3518L39.334 21.9668C39.334 21.9668 37.6033 21.9781 36.493 22.354C35.6456 22.6416 35.1196 23.2055 35.776 23.4637C36.4323 23.7218 36.9268 23.8011 37.0796 24.0615C37.3606 24.5461 35.7872 24.8564 34.0925 24.7137L33.7148 25.11Z" fill="#231F20"/>
<path d="M66.1848 23.2708C65.9188 23.4332 65.6416 23.5762 65.3554 23.6988C65.0295 23.8415 64.326 24.0521 64.063 23.9253C63.6629 23.7283 63.9866 23.2459 63.9866 23.2459C63.9866 23.2459 66.1151 22.8496 66.2342 22.793C66.441 22.6956 66.9872 21.8555 66.2657 21.5588C65.6071 21.2916 63.6966 21.8102 63.0785 23.2255C62.7211 24.0408 63.1122 24.3239 63.4404 24.4258C63.8603 24.532 64.2992 24.5365 64.7211 24.4389C65.1431 24.3413 65.536 24.1443 65.8679 23.8642L66.1848 23.2708ZM65.5981 21.9121C66.0207 21.86 65.6139 22.5575 65.4206 22.6277C65.0218 22.7523 64.6125 22.8395 64.1978 22.8881C64.1978 22.8881 64.8227 22.0072 65.5981 21.9121Z" fill="#231F20"/>
<path d="M30.031 24.7185C29.6849 24.9063 29.3258 25.069 28.9566 25.2054C28.5273 25.3662 27.5856 25.6017 27.19 25.4477C26.5921 25.2212 26.9652 24.6732 26.9652 24.6732C26.9652 24.6732 29.7815 24.3199 30.0108 24.1818C30.2401 24.0436 30.8829 23.1061 29.8153 22.7551C28.8443 22.4358 26.2729 23.0155 25.684 24.6483C25.3424 25.5881 25.9425 25.9187 26.4213 26.041C27.7699 26.3875 29.2399 25.8779 29.7051 25.4182L30.031 24.7185ZM28.9499 23.1333C29.5276 23.0789 29.1027 23.9055 28.8375 23.9599C28.2509 24.0821 27.1608 24.1863 27.1608 24.1863C27.1608 24.1863 27.8845 23.2375 28.9589 23.1356" fill="#231F20"/>
<path d="M70.1586 23.4208C69.6169 23.5748 69.3494 23.5907 69.5989 23.0042C69.7697 22.6056 70.5587 21.2129 70.5587 21.2129C70.5587 21.2129 69.9226 21.265 69.4955 21.3125C68.102 21.4643 67.3805 22.1527 67.0388 22.6984C66.5691 23.4525 66.6612 24.0074 67.113 24.1025C67.7873 24.2451 68.7538 23.3212 68.7538 23.3212C68.732 23.4005 68.7312 23.4842 68.7513 23.564C68.7714 23.6438 68.8118 23.7169 68.8686 23.7761C68.9253 23.8353 68.9964 23.8786 69.0748 23.9017C69.1532 23.9248 69.2363 23.9268 69.3157 23.9077C69.5538 23.8918 69.7848 23.8197 69.99 23.6971L70.1586 23.4208ZM67.9469 23.3393C67.6075 23.4073 67.7019 22.9136 67.9244 22.5762C68.3065 21.9919 68.8639 21.7949 69.509 21.7745C69.509 21.7745 68.9583 23.1332 67.9469 23.3393Z" fill="#231F20"/>
<path d="M54.7803 22.3677C55.7334 22.2862 55.7041 22.5784 55.7041 22.5784C56.326 22.1973 57.0621 22.0512 57.781 22.1662C57.5829 22.3395 57.363 22.4857 57.1269 22.601C56.4773 22.9226 56.0772 22.3745 55.4614 23.2215C55.1782 23.611 54.3825 25.2052 54.3825 25.2052L53.1553 25.3841C53.7419 24.3402 54.7803 22.3677 54.7803 22.3677Z" fill="#231F20"/>
<path d="M71.6107 21.1238C72.5232 21.006 72.3906 21.3842 72.3906 21.3842C72.9758 20.9887 73.6823 20.8176 74.382 20.9019C74.1931 21.0792 73.9824 21.2315 73.755 21.3548C73.1323 21.6922 72.7255 21.1691 72.1344 22.0228C71.8438 22.5506 71.5907 23.0985 71.3769 23.6624L70.3228 23.7937C70.9611 22.478 71.6107 21.1261 71.6107 21.1261" fill="#231F20"/>
<path d="M49.9838 25.7819C48.6891 25.7932 48.8285 25.1138 48.9858 24.7175C49.1942 24.2667 49.4291 23.8289 49.6894 23.4064C49.8194 23.2209 49.9816 23.0605 50.1681 22.9331C50.4929 22.7986 50.8325 22.7036 51.1796 22.65C51.1796 22.65 50.5255 23.8095 50.249 24.4617C50.0243 24.9848 49.9276 25.3222 50.6491 25.2316C51.1459 25.1705 51.3729 24.9327 51.755 24.3258C52.0337 23.8729 52.3484 23.2592 52.5034 22.9512C52.6585 22.6432 53.0676 22.5141 53.8408 22.4824C53.8408 22.4824 53.1283 23.7664 52.7844 24.4186C52.2877 25.3584 51.1369 25.7774 49.9838 25.7774" fill="#231F20"/>
<path d="M41.2493 27.5984C42.6249 25.3135 43.7847 23.3116 45.4165 21.4524C45.4165 21.4524 44.0544 21.4977 43.8611 21.783L42.1911 24.1925C42.1911 24.1925 41.6179 22.4443 41.4718 21.8034C41.1232 21.8163 40.7781 21.8788 40.4469 21.9891C40.4469 21.9891 41.1571 24.2536 41.4583 25.087C41.4694 25.1452 41.4664 25.2052 41.4495 25.2619C41.4327 25.3187 41.4026 25.3705 41.3617 25.4131L41.1504 25.7279C39.622 25.8909 28.3252 27.1093 26.817 27.1727C25.5522 27.2101 24.2963 26.9471 23.151 26.405C22.0879 25.8864 21.6496 25.4425 20.9034 25.0259C21.7187 24.8764 22.5169 24.6442 23.2859 24.3329C25.7381 23.3976 27.3722 21.4886 24.0209 20.97C21.4383 20.5692 13.4883 22.0797 13.4883 22.0797C13.6862 22.2232 13.9109 22.3251 14.1488 22.3792C14.3866 22.4332 14.6329 22.4384 14.8729 22.3944C15.8528 22.1974 17.0464 21.9732 18.2444 21.7966C17.5408 22.8813 15.0167 26.7582 13.4658 29.0002C13.4658 29.0002 15.7405 28.9096 16.0799 28.3593C16.2372 28.1057 17.0621 26.6292 17.9274 25.0847C19.0378 25.6984 21.6496 27.3923 22.198 27.6346C22.8116 27.9086 23.5062 27.9653 24.3693 27.9109C28.6781 27.6346 37.5339 26.4072 40.8807 26.1287C39.9636 27.4874 39.2893 28.4952 39.2893 28.4952C43.4857 27.9109 77.7762 24.1925 77.7762 24.1925L79.3136 23.7079C79.3136 23.7079 49.6443 26.9394 41.2493 27.5984ZM19.9099 21.5883C21.2383 21.4569 22.4228 21.4365 23.1218 21.6471C24.92 22.1884 22.8746 23.4588 21.5282 24.0181C20.3679 24.4652 19.1714 24.8107 17.9522 25.0508C18.7276 23.6694 19.5255 22.2404 19.9099 21.5883Z" fill="#231F20"/>
<path d="M62.6671 20.6081C62.4289 21.0203 62.1255 21.6385 61.8333 22.2771L59.8666 22.5172C60.2059 21.7336 60.4981 21.0565 60.7184 20.5629C60.4403 20.582 60.1634 20.6168 59.889 20.667C59.6758 20.7065 59.4667 20.7657 59.2642 20.8437C59.3856 20.8948 59.4895 20.9806 59.5631 21.0905C58.8641 22.4085 57.5762 25.178 57.5762 25.178L58.7472 25.058C59.0574 24.3786 59.3518 23.6766 59.6216 23.0584C60.1273 22.9542 61.0286 22.8319 61.6107 22.7436C61.1207 23.8329 60.7117 24.8451 60.7117 24.8451L61.7479 24.7364C62.3383 23.203 63.0298 21.7111 63.818 20.2707C63.818 20.2707 62.8987 20.2118 62.6694 20.6036" fill="#231F20"/>
<defs>
<radialGradient id="paint0_radial_138_910" cx="0" cy="0" r="1" gradientUnits="userSpaceOnUse" gradientTransform="translate(6.05512 5.87029) scale(10.2642 10.3414)">
<stop stop-color="#F48385"/>
<stop offset="0.14" stop-color="#F47E80"/>
<stop offset="0.3" stop-color="#F37072"/>
<stop offset="0.48" stop-color="#F15A5B"/>
<stop offset="0.66" stop-color="#EF3A3A"/>
<stop offset="0.72" stop-color="#EE2D2D"/>
<stop offset="1" stop-color="#ED1C24"/>
</radialGradient>
<radialGradient id="paint1_radial_138_910" cx="0" cy="0" r="1" gradientUnits="userSpaceOnUse" gradientTransform="translate(-5.28973 -5.32941) scale(29.7694 29.9931)">
<stop offset="0.21" stop-color="#9DA5BD"/>
<stop offset="0.34" stop-color="#CED2E0"/>
<stop offset="0.45" stop-color="#F4F4FA"/>
<stop offset="0.53" stop-color="#F4F4FA"/>
<stop offset="0.54" stop-color="#F4F4FA"/>
<stop offset="0.64" stop-color="#A9B3C9"/>
<stop offset="0.74" stop-color="#343B53"/>
<stop offset="0.76" stop-color="#3B425A"/>
<stop offset="0.79" stop-color="#4F566D"/>
<stop offset="0.83" stop-color="#70778C"/>
<stop offset="0.87" stop-color="#9DA4B7"/>
<stop offset="0.9" stop-color="#C2C9D9"/>
<stop offset="0.93" stop-color="#E6E8F1"/>
<stop offset="0.95" stop-color="#F4F4FA"/>
</radialGradient>
<radialGradient id="paint2_radial_138_910" cx="0" cy="0" r="1" gradientUnits="userSpaceOnUse" gradientTransform="translate(-1.4291 -1.44) scale(22.8862 23.0582)">
<stop offset="0.21" stop-color="#9AA2B8"/>
<stop offset="0.35" stop-color="#CED2DE"/>
<stop offset="0.46" stop-color="#F4F4FA"/>
<stop offset="0.54" stop-color="#F4F4FA"/>
<stop offset="0.55" stop-color="#F4F4FA"/>
<stop offset="0.63" stop-color="#A2ACC2"/>
<stop offset="0.74" stop-color="#48536F"/>
<stop offset="0.76" stop-color="#4F5A75"/>
<stop offset="0.79" stop-color="#636C86"/>
<stop offset="0.83" stop-color="#848BA1"/>
<stop offset="0.87" stop-color="#B1B5C6"/>
<stop offset="0.88" stop-color="#CACCDB"/>
<stop offset="0.92" stop-color="#E6E7F0"/>
<stop offset="0.94" stop-color="#F4F4FA"/>
</radialGradient>
<linearGradient id="paint3_linear_138_910" x1="2.89485" y1="2.91704" x2="15.0348" y2="14.9665" gradientUnits="userSpaceOnUse">
<stop stop-color="#EDEDED"/>
<stop offset="0.64" stop-color="#666666"/>
<stop offset="1" stop-color="#E6E6E6"/>
</linearGradient>
<linearGradient id="paint4_linear_138_910" x1="9.57975" y1="6.11208" x2="8.24688" y2="6.11208" gradientUnits="userSpaceOnUse">
<stop stop-color="white"/>
<stop offset="0.18" stop-color="#CDCDCD"/>
<stop offset="0.37" stop-color="#9F9F9F"/>
<stop offset="0.55" stop-color="#7C7C7C"/>
<stop offset="0.72" stop-color="#626262"/>
<stop offset="0.88" stop-color="#525252"/>
<stop offset="1" stop-color="#4D4D4D"/>
</linearGradient>
<linearGradient id="paint5_linear_138_910" x1="8.04887" y1="3.35621" x2="8.04887" y2="6.51074" gradientUnits="userSpaceOnUse">
<stop stop-color="#BDBFC1"/>
<stop offset="0.11" stop-color="#C6C7C9"/>
<stop offset="0.28" stop-color="#DDDEDF"/>
<stop offset="0.48" stop-color="white"/>
<stop offset="1" stop-color="#E8E7E8"/>
</linearGradient>
<linearGradient id="paint6_linear_138_910" x1="9.57976" y1="6.11208" x2="8.24689" y2="6.11208" gradientUnits="userSpaceOnUse">
<stop stop-color="#F2F2F2"/>
<stop offset="0.05" stop-color="#E6E6E6"/>
<stop offset="0.27" stop-color="#B8B8B8"/>
<stop offset="0.48" stop-color="#959595"/>
<stop offset="0.68" stop-color="#7B7B7B"/>
<stop offset="0.86" stop-color="#6B6B6B"/>
<stop offset="1" stop-color="#666666"/>
</linearGradient>
<linearGradient id="paint7_linear_138_910" x1="9.79076" y1="3.27082" x2="9.79076" y2="6.9145" gradientUnits="userSpaceOnUse">
<stop stop-color="#4D4D4D"/>
<stop offset="0.07" stop-color="#525252"/>
<stop offset="0.15" stop-color="#616161"/>
<stop offset="0.24" stop-color="#7A7A7A"/>
<stop offset="0.34" stop-color="#9C9C9C"/>
<stop offset="0.44" stop-color="#C8C8C8"/>
<stop offset="0.54" stop-color="white"/>
<stop offset="0.63" stop-color="#CBCBCB"/>
<stop offset="0.71" stop-color="#9E9E9E"/>
<stop offset="0.8" stop-color="#7B7B7B"/>
<stop offset="0.87" stop-color="#616161"/>
<stop offset="0.94" stop-color="#525252"/>
<stop offset="1" stop-color="#4D4D4D"/>
</linearGradient>
<linearGradient id="paint8_linear_138_910" x1="6.5789" y1="10.6488" x2="6.46294" y2="10.4366" gradientUnits="userSpaceOnUse">
<stop stop-color="white"/>
<stop offset="1" stop-color="#666666"/>
</linearGradient>
<linearGradient id="paint9_linear_138_910" x1="2.64306" y1="12.3311" x2="2.69518" y2="12.3874" gradientUnits="userSpaceOnUse">
<stop stop-color="white"/>
<stop offset="0.08" stop-color="#E5E5E5"/>
<stop offset="0.25" stop-color="#AFAFAF"/>
<stop offset="0.43" stop-color="#838383"/>
<stop offset="0.59" stop-color="#606060"/>
<stop offset="0.74" stop-color="#474747"/>
<stop offset="0.88" stop-color="#383838"/>
<stop offset="1" stop-color="#333333"/>
</linearGradient>
<linearGradient id="paint10_linear_138_910" x1="7.51606" y1="11.0106" x2="4.62924" y2="12.3347" gradientUnits="userSpaceOnUse">
<stop stop-color="#1A1A1A"/>
<stop offset="0.12" stop-color="#1E1E1E"/>
<stop offset="0.23" stop-color="#292929"/>
<stop offset="0.33" stop-color="#3C3C3C"/>
<stop offset="0.43" stop-color="#565656"/>
<stop offset="0.53" stop-color="#787878"/>
<stop offset="0.63" stop-color="#9C9C9C"/>
<stop offset="0.76" stop-color="#646464"/>
<stop offset="0.86" stop-color="#3C3C3C"/>
<stop offset="0.95" stop-color="#232323"/>
<stop offset="1" stop-color="#1A1A1A"/>
</linearGradient>
<linearGradient id="paint11_linear_138_910" x1="6.43952" y1="10.5007" x2="6.21647" y2="9.99464" gradientUnits="userSpaceOnUse">
<stop stop-color="#666666"/>
<stop offset="1" stop-color="#333333"/>
</linearGradient>
<linearGradient id="paint12_linear_138_910" x1="6.48893" y1="9.44311" x2="3.52135" y2="11.0009" gradientUnits="userSpaceOnUse">
<stop stop-color="#E0E0E0"/>
<stop offset="0.15" stop-color="#D6D6D6"/>
<stop offset="0.41" stop-color="#BCBCBC"/>
<stop offset="0.59" stop-color="#A6A6A6"/>
<stop offset="0.62" stop-color="#BFBFBF"/>
<stop offset="0.68" stop-color="#DBDBDB"/>
<stop offset="0.73" stop-color="#EFEFEF"/>
<stop offset="0.78" stop-color="#FBFBFB"/>
<stop offset="0.83" stop-color="white"/>
<stop offset="1" stop-color="#ADADAD"/>
</linearGradient>
<linearGradient id="paint13_linear_138_910" x1="12.4183" y1="10.6615" x2="11.8922" y2="10.3163" gradientUnits="userSpaceOnUse">
<stop stop-color="#FEFEFE"/>
<stop offset="0.25" stop-color="#C8C8C8"/>
<stop offset="0.49" stop-color="#9E9E9E"/>
<stop offset="0.7" stop-color="#7F7F7F"/>
<stop offset="0.87" stop-color="#6D6D6D"/>
<stop offset="1" stop-color="#666666"/>
</linearGradient>
<linearGradient id="paint14_linear_138_910" x1="11.5103" y1="10.1183" x2="14.2232" y2="10.1183" gradientUnits="userSpaceOnUse">
<stop stop-color="#E0E0E0"/>
<stop offset="0.15" stop-color="#D6D6D6"/>
<stop offset="0.41" stop-color="#BCBCBC"/>
<stop offset="0.59" stop-color="#A6A6A6"/>
<stop offset="0.65" stop-color="#BFBFBF"/>
<stop offset="0.74" stop-color="#DBDBDB"/>
<stop offset="0.83" stop-color="#EFEFEF"/>
<stop offset="0.91" stop-color="#FBFBFB"/>
<stop offset="1" stop-color="white"/>
</linearGradient>
<linearGradient id="paint15_linear_138_910" x1="12.0319" y1="11.2534" x2="11.5058" y2="10.9083" gradientUnits="userSpaceOnUse">
<stop stop-color="white"/>
<stop offset="0.12" stop-color="#F8F8F8"/>
<stop offset="0.31" stop-color="#E5E5E5"/>
<stop offset="0.52" stop-color="#C5C5C5"/>
<stop offset="0.76" stop-color="#999999"/>
<stop offset="1" stop-color="#666666"/>
</linearGradient>
<linearGradient id="paint16_linear_138_910" x1="15.6639" y1="12.3878" x2="15.6008" y2="12.4169" gradientUnits="userSpaceOnUse">
<stop stop-color="#CCCCCC"/>
<stop offset="0.12" stop-color="#BABABA"/>
<stop offset="0.32" stop-color="#A1A1A1"/>
<stop offset="0.53" stop-color="#8E8E8E"/>
<stop offset="0.75" stop-color="#848484"/>
<stop offset="1" stop-color="#808080"/>
</linearGradient>
<linearGradient id="paint17_linear_138_910" x1="10.2158" y1="11.8957" x2="13.457" y2="11.8957" gradientUnits="userSpaceOnUse">
<stop stop-color="#999999"/>
<stop offset="0.09" stop-color="#949494"/>
<stop offset="0.19" stop-color="#868686"/>
<stop offset="0.3" stop-color="#6F6F6F"/>
<stop offset="0.41" stop-color="#4F4F4F"/>
<stop offset="0.52" stop-color="#262626"/>
<stop offset="0.55" stop-color="#1A1A1A"/>
<stop offset="0.6" stop-color="#202020"/>
<stop offset="0.66" stop-color="#313131"/>
<stop offset="0.73" stop-color="#4E4E4E"/>
<stop offset="0.8" stop-color="#767676"/>
<stop offset="0.88" stop-color="#A9A9A9"/>
<stop offset="0.97" stop-color="#E6E6E6"/>
<stop offset="1" stop-color="white"/>
</linearGradient>
<linearGradient id="paint18_linear_138_910" x1="9.4536" y1="1.15539" x2="8.36572" y2="1.15539" gradientUnits="userSpaceOnUse">
<stop stop-color="#CCCCCC"/>
<stop offset="1" stop-color="#3D3D3D"/>
</linearGradient>
<linearGradient id="paint19_linear_138_910" x1="17.3005" y1="10.6389" x2="7.12387" y2="0.538136" gradientUnits="userSpaceOnUse">
<stop stop-color="white"/>
<stop offset="1" stop-color="#231A16"/>
</linearGradient>
<linearGradient id="paint20_linear_138_910" x1="15.5087" y1="13.2552" x2="15.759" y2="12.7358" gradientUnits="userSpaceOnUse">
<stop stop-color="white"/>
<stop offset="0.14" stop-color="#FAFAFA"/>
<stop offset="0.31" stop-color="#ECECEC"/>
<stop offset="0.48" stop-color="#D5D5D5"/>
<stop offset="0.67" stop-color="#B4B4B4"/>
<stop offset="0.86" stop-color="#8B8B8B"/>
<stop offset="1" stop-color="#666666"/>
</linearGradient>
<linearGradient id="paint21_linear_138_910" x1="15.473" y1="13.2364" x2="15.7233" y2="12.717" gradientUnits="userSpaceOnUse">
<stop stop-color="white"/>
<stop offset="0.14" stop-color="#FAFAFA"/>
<stop offset="0.31" stop-color="#ECECEC"/>
<stop offset="0.48" stop-color="#D5D5D5"/>
<stop offset="0.67" stop-color="#B4B4B4"/>
<stop offset="0.86" stop-color="#8B8B8B"/>
<stop offset="1" stop-color="#666666"/>
</linearGradient>
<linearGradient id="paint22_linear_138_910" x1="11.8634" y1="16.1192" x2="1.68678" y2="6.01842" gradientUnits="userSpaceOnUse">
<stop stop-color="white"/>
<stop offset="1" stop-color="#231A16"/>
</linearGradient>
<linearGradient id="paint23_linear_138_910" x1="2.39136" y1="13.2862" x2="2.08191" y2="12.6335" gradientUnits="userSpaceOnUse">
<stop stop-color="#F2F2F2"/>
<stop offset="1" stop-color="#1A1A1A"/>
</linearGradient>
<linearGradient id="paint24_linear_138_910" x1="2.34873" y1="13.307" x2="2.03929" y2="12.6543" gradientUnits="userSpaceOnUse">
<stop stop-color="#F2F2F2"/>
<stop offset="1" stop-color="#1A1A1A"/>
</linearGradient>
<linearGradient id="paint25_linear_138_910" x1="13.1869" y1="14.7859" x2="3.00794" y2="4.68519" gradientUnits="userSpaceOnUse">
<stop stop-color="white"/>
<stop offset="1" stop-color="#231A16"/>
</linearGradient>
<linearGradient id="paint26_linear_138_910" x1="9.4538" y1="1.15494" x2="8.36592" y2="1.15494" gradientUnits="userSpaceOnUse">
<stop stop-color="#CCCCCC"/>
<stop offset="1" stop-color="#3D3D3D"/>
</linearGradient>
</defs>
</svg>
