<svg width="115" height="38" viewBox="0 0 115 38" fill="none" xmlns="http://www.w3.org/2000/svg">
<g clip-path="url(#clip0_138_1049)">
<path d="M3.53359 2.55508L1.33359 4.45508L1.13359 18.6068L0.933594 32.693L3.26693 35.1827L5.53359 37.6723H54.2003C107.2 37.6723 105.4 37.8034 107.4 33.9378C108.134 32.562 108.334 29.024 108.334 18.6068V5.11026L106.067 2.88267L103.8 0.655083H54.7336H5.66693L3.53359 2.55508ZM105.334 3.60336C107 5.17577 107 5.17577 107 18.9344C107 32.4965 107 32.693 105.4 34.5275L103.8 36.362L55.8669 36.5585C20.8003 36.6896 7.53359 36.493 6.13359 35.9689C2.53359 34.462 2.33359 33.6758 2.33359 18.9344C2.33359 5.50336 2.33359 5.43784 4.00026 3.66888L5.60026 1.96543H54.6669H103.734L105.334 3.60336Z" fill="black"/>
<path d="M4.93333 4.52039L3 6.42039V18.9997C3 32.8238 3.26667 34.0031 7.13333 35.3135C8.53333 35.8376 24.0667 36.0342 55.1333 36.0342C104.333 36.0342 103.867 36.0342 105.667 32.8238C106.067 32.0376 106.333 26.2721 106.333 18.8031V6.0928L104.6 4.32384L102.8 2.62039H54.8667H6.86667L4.93333 4.52039ZM25.6667 10.81C27.4 11.6618 29 13.5618 29 14.6756C29 15.5273 26.4667 15.0031 25.6 14.0204C23.2 11.2031 19.1333 11.6618 17.3333 15.0031C15.6667 18.279 16 22.079 18.2667 24.3066C20.8667 26.7962 22.6667 26.7307 25.4 23.9135C26.6 22.6687 28.0667 21.6204 28.6 21.6204C29.9333 21.6204 29.9333 21.8825 28.6667 24.2411C25.9333 29.4169 17.4 29.4169 14.6667 24.2411C13.4 21.7514 13.4 16.8376 14.7333 14.0859C16.5333 10.3514 21.6667 8.77901 25.6667 10.81ZM75.9333 12.579C77.9333 14.6756 77.9333 14.7411 76.4667 14.9376C75.6 15.0687 74.1333 14.479 72.9333 13.4963C70.3333 11.3342 69.5333 11.3342 67 13.5618C63.2 16.9031 63.8667 23.979 68.1333 25.6169C70.4 26.4687 71.9333 25.879 73.9333 23.5204C75.6667 21.4894 77.6667 20.9652 77.6667 22.6031C77.6667 23.1273 76.8 24.5031 75.8 25.6169C73.5333 28.1721 69 28.8928 65.8667 27.2549C61.7333 25.2238 60.4667 17.2307 63.5333 13.1687C65.4 10.6135 67.6 9.76177 71 10.0894C73.3333 10.2859 74.4 10.81 75.9333 12.579ZM33 19.3273C33 26.7307 32.8667 28.1721 32 28.1721C31.1333 28.1721 31 26.7307 31 19.3273C31 11.9238 31.1333 10.4825 32 10.4825C32.8667 10.4825 33 11.9238 33 19.3273ZM48.3333 13.1031C48.3333 15.6583 48.4 15.6583 50.1333 15.0031C52.2 14.2169 55.4 15.1342 56.7333 16.8376C57.2 17.4928 57.6667 19.5894 57.6667 21.4894C57.6667 24.3066 57.3333 25.2238 56 26.5342C54.6 27.9756 53.8667 28.1721 50 28.0411L45.6667 27.91V19.1962C45.6667 10.9411 45.7333 10.4825 47 10.4825C48.1333 10.4825 48.3333 10.9411 48.3333 13.1031ZM87.8 16.1825C89.4 17.6238 89.6 28.1721 88 28.1721C87.4667 28.1721 87 27.8445 87 27.5169C87 27.0583 86.6 27.0583 85.7333 27.5169C83.9333 28.4342 80.1333 28.3687 79.1333 27.3859C78.2 26.4687 78.0667 23.6514 78.9333 22.3411C79.2667 21.8825 80.9333 21.2273 82.7333 20.8997C86.4 20.179 87.2 19.6549 86.6 18.148C86.0667 16.7066 81.8 16.6411 81.2667 18.0169C81 18.5411 80.2667 18.9997 79.6 18.9997C78.2 18.9997 78.5333 17.2307 80.2 15.8549C81.7333 14.6756 86.3333 14.8721 87.8 16.1825ZM96.3333 15.8549C96.3333 16.3135 95.4 17.2307 94.3333 17.8204C92.4 18.8687 92.3333 19.1307 92.3333 23.5859C92.3333 27.2549 92.1333 28.1721 91.3333 28.1721C90.5333 28.1721 90.3333 27.0583 90.3333 21.8825C90.3333 15.9204 90.4 15.5928 91.6667 15.9204C92.4 16.1169 93.2 15.9859 93.4 15.6583C93.9333 14.7411 96.3333 14.9376 96.3333 15.8549ZM36.4667 20.7687C36.6667 25.5514 36.7333 25.879 38.2 26.0756C41.0667 26.4687 42.3333 24.5031 42.3333 19.8514C42.3333 16.6411 42.5333 15.7238 43.3333 15.7238C44.1333 15.7238 44.3333 16.8376 44.3333 21.8169V27.91L40.6 28.0411C34.7333 28.1721 34.3333 27.779 34.3333 21.2928C34.3333 16.8376 34.5333 15.7238 35.3333 15.7238C36.0667 15.7238 36.3333 16.9031 36.4667 20.7687Z" fill="black"/>
<path d="M49.0669 18.1486C47.6002 20.9658 47.9335 23.9796 50.0002 25.29C51.4002 26.1417 52.0669 26.2727 53.3335 25.6831C55.4669 24.7003 56.2669 20.9658 54.7335 18.6727C53.4002 16.7072 50.0669 16.3796 49.0669 18.1486Z" fill="black"/>
<path d="M84.2666 22.0796C81.6666 22.4727 79.8666 24.5693 81 25.8796C82.7333 27.9107 87 26.0762 87 23.1934C87 22.3417 86.8 21.6865 86.5333 21.6865C86.2 21.752 85.2 21.9486 84.2666 22.0796Z" fill="black"/>
<path d="M110.067 33.1517C109.467 33.6759 109 34.5931 109 35.0517C109 36.1655 110.8 38 111.933 38C112.933 38 115 35.9034 115 34.8552C115 33.8724 113.067 32.1034 112 32.1034C111.533 32.1034 110.6 32.5621 110.067 33.1517ZM113.933 34.2C114.467 35.1172 114.4 35.5759 113.533 36.4276C111.533 38.3931 108.533 35.8379 110.333 33.6759C111.4 32.4966 112.933 32.6931 113.933 34.2Z" fill="black"/>
<path d="M111.067 35.1828C111.067 36.2311 111.267 36.6242 111.467 36.1001C111.8 35.3794 111.934 35.3794 112.4 36.1001C112.8 36.7553 113 36.4932 113 35.1828C113 34.069 112.667 33.4139 112 33.4139C111.334 33.4139 111 34.0035 111.067 35.1828Z" fill="black"/>
</g>
<defs>
<clipPath id="clip0_138_1049">
<rect width="115" height="38" fill="white"/>
</clipPath>
</defs>
</svg>
