<?xml version="1.0" encoding="UTF-8"?>
<!DOCTYPE svg PUBLIC "-//W3C//DTD SVG 1.1//EN" "http://www.w3.org/Graphics/SVG/1.1/DTD/svg11.dtd">
<!-- Creator: CorelDRAW -->
<svg xmlns="http://www.w3.org/2000/svg" xml:space="preserve" width="42.3332mm" height="42.3332mm" version="1.1" style="shape-rendering:geometricPrecision; text-rendering:geometricPrecision; image-rendering:optimizeQuality; fill-rule:evenodd; clip-rule:evenodd"
viewBox="0 0 4233.32 4233.32"
 xmlns:xlink="http://www.w3.org/1999/xlink"
 xmlns:xodm="http://www.corel.com/coreldraw/odm/2003">
 <defs>
  <style type="text/css">
   <![CDATA[
    .fil1 {fill:#8EC74B}
    .fil0 {fill:white}
   ]]>
  </style>
 </defs>
 <g id="Layer_x0020_1">
  <metadata id="CorelCorpID_0Corel-Layer"/>
  <g id="_2569645461984">
   <path class="fil0" d="M1713.97 1948.29l0 633.82c0,33.33 28.87,24.38 83.58,24.38 9.41,0 9.6,-1.66 17.41,-3.48 11.78,-50.56 -6.52,-247.01 6.97,-275.12 9.8,3.95 5.68,-2.57 14.7,30.57l32.75 110.04c7.84,24.07 15.36,50.57 21.46,72.56 4.12,14.84 7.48,23.82 11.1,37.66 9.39,35.93 12.94,27.77 87.15,27.77 19.14,0 26.61,-45.65 31.33,-62.7l43.28 -144.78c4.25,-14.88 15.71,-63.3 26.39,-71.12 9.85,20.54 3.48,225.53 3.48,268.16 25.28,16.93 16.89,10.44 83.58,10.44 9.4,0 9.6,-1.66 17.41,-3.48 1.82,-7.81 3.49,-8.01 3.49,-17.41l0 -637.31c0,-24.34 -52.03,-17.41 -80.11,-17.41 -27.48,0 -26.15,23.95 -33.51,46.57l-126.68 434.02 -10.03 -28.29c-40.85,-130.01 -78.62,-271.66 -119.26,-403.12 -17.94,-58.05 0.21,-49.18 -90.11,-49.18 -11.74,0 -24.38,6.15 -24.38,17.41z"/>
   <path class="fil1" d="M596.06 2463.71l0 17.41c0,33.49 54.95,72.89 96.74,30.57l409.04 -451.16c10.23,-10.34 19.12,-24.68 34.02,-28.66 0,45.78 -5.7,635.59 3.63,665.02 21.92,69.05 111.3,42.1 111.3,-6.81l0 -825.38c0,-17.81 -19.99,-44.55 -47.66,-48.75l-14.95 0c-14.62,2.2 -30.57,11.08 -46.41,30.29 -6.2,7.51 -12.2,12.37 -19.04,19.27l-146.22 163.72c-51.56,58.54 -114.44,121.55 -165.56,182.71l-201.85 223.01c-6.57,7.89 -13.04,15.66 -13.04,28.76z"/>
   <path class="fil0" d="M3744.31 2279.13l-41.79 0 0 -240.29c97.59,0 83.58,-5.25 83.58,191.54 0,26.11 -16.98,48.75 -41.79,48.75zm146.26 -212.73l0 185.38c-0.19,32.86 -18.06,59.76 -31.34,79.59 11.81,22.32 31.14,43.24 31.34,82.96l0 158.14c-0.72,12.79 -1.83,23.45 -3.48,30.54 -7.81,1.82 -8,3.48 -17.41,3.48 -66.69,0 -58.3,6.49 -83.58,-10.44 0,-45.28 -0.11,-90.56 0,-135.83 0.1,-39.07 2.2,-76.61 -59.21,-76.61 -26.05,0 -24.87,-1.4 -24.67,24.08l0.3 94.33c0,56.48 10.06,104.47 -24.38,104.47 -31.54,0 -50.21,2.67 -76.62,-3.48 -4.04,-8.42 -6.97,-15.24 -6.97,-27.86l0 -619.9c0,-9.4 1.67,-9.6 3.49,-17.41 24.69,-12.24 101.33,-6.96 139.3,-6.96 90.51,0 153.05,67.21 153.23,135.52z"/>
   <path class="fil0" d="M3312.47 2216.44c7.13,30.61 13.49,62.99 20.9,94.03 3.46,14.56 6.54,32.38 9.75,45.97 2.97,12.59 6.99,39.43 11.14,48.06l-83.58 0c0.34,-15.6 5.63,-31.69 8.97,-46.74 4.3,-19.3 24.21,-128.93 32.82,-141.32zm-184.58 386.57c26.77,6.24 51.51,3.48 83.58,3.48 33.24,0 19.12,-104.47 48.76,-104.47 131.29,0 112.29,-16.14 126.26,54.83 11.34,57.56 2.49,49.64 96.62,49.64 29.46,0 12.14,-48.91 10.13,-58.88l-126.25 -591.15c-7.95,-33.35 -18.75,-25.58 -85.86,-25.58 -19.31,0 -21.89,9.39 -25.4,26.83l-128.73 602.66c-4.28,20.67 -8.03,24.05 0.89,42.64z"/>
   <path class="fil0" d="M2727.4 2070.18l0 400.49c0,94.12 112.17,168.41 212.48,121.95 50.04,-23.18 83.53,-80.17 83.53,-149.81 0,-76.08 3.92,-69.65 -76.61,-69.65 -12.63,0 -19.44,2.92 -27.86,6.97 -9.01,38.65 7.5,88.43 -18.17,110.69 -27.94,24.22 -68.9,4.17 -68.9,-37.56l0 -362.19c0,-67.61 59.83,-58.03 75.41,-37.09 23.73,31.89 -15.29,110.22 32.55,110.22 31.54,0 50.22,2.67 76.62,-3.47 10.2,-21.25 6.96,-41.46 6.96,-69.66 0,-93.72 -65.02,-160.19 -149.74,-160.19 -77.06,0 -146.27,61.52 -146.27,139.3z"/>
   <path class="fil0" d="M2358.24 1955.25l0 626.86c0,16.26 8.12,24.38 24.38,24.38l191.54 0c25.31,0 17.42,-47.88 17.42,-83.58 0,-9.41 -1.67,-9.6 -3.49,-17.41 -53.28,-12.41 -121.89,9.57 -121.89,-13.93 0,-189.78 -12.44,-171.35 34.77,-170.71 16.24,0.22 32.56,0.06 48.82,0.06 16.09,-24.05 10.44,-33.09 10.44,-80.1 0,-34.17 -31.36,-24.38 -94.03,-24.38l0 -177.6c64.01,-14.92 125.38,17.44 125.38,-24.38 0,-49.35 8.47,-83.58 -24.38,-83.58l-184.58 0c-16.26,0 -24.38,8.11 -24.38,24.37z"/>
   <path class="fil1" d="M307.01 2529.88c27.28,0 36.5,-9.94 53.29,-30.29 6.42,-7.77 12.26,-12.01 19.02,-19.3l496.19 -548.57c29.31,-33.25 30.5,-32.83 30.5,-67.02 0,-31.09 -45.18,-65.85 -87.98,-39.22l-388.21 426.71c-16.04,15.91 -26.06,29.24 -41.91,45.16l-121.85 135.85c-40.03,44.02 -1.88,96.68 40.95,96.68z"/>
   <path class="fil0" d="M1456.26 1948.29l0 640.79c0,25.57 49.62,17.41 87.06,17.41 8.12,0 17.42,-9.29 17.42,-17.41l0 -633.83c0,-33.18 -35.44,-24.37 -87.07,-24.37 -8.12,0 -17.41,9.29 -17.41,17.41z"/>
  </g>
 </g>
</svg>
