<svg width="725" height="184" viewBox="0 0 725 184" fill="none" xmlns="http://www.w3.org/2000/svg">
<path fill-rule="evenodd" clip-rule="evenodd" d="M291.531 26.9368V152.901C291.531 159.525 297.269 157.746 308.142 157.746C310.012 157.746 310.05 157.416 311.602 157.055C313.943 147.006 310.306 107.964 312.987 102.378C314.935 103.163 314.116 101.867 315.908 108.453L322.417 130.322C323.975 135.106 325.47 140.372 326.682 144.743C327.501 147.692 328.168 149.477 328.888 152.227C330.754 159.368 331.46 157.746 346.208 157.746C350.012 157.746 351.496 148.674 352.434 145.285L361.036 116.512C361.88 113.555 364.158 103.932 366.281 102.378C368.238 106.46 366.972 147.199 366.972 155.671C371.996 159.036 370.329 157.746 383.583 157.746C385.451 157.746 385.491 157.416 387.043 157.055C387.404 155.502 387.736 155.463 387.736 153.594V26.9368C387.736 22.0995 377.396 23.4767 371.815 23.4767C366.354 23.4767 366.618 28.2365 365.156 32.7319L339.979 118.988L337.986 113.366C329.868 87.528 322.361 59.3768 314.285 33.2507C310.719 21.7139 314.326 23.4767 296.376 23.4767C294.043 23.4767 291.531 24.699 291.531 26.9368Z" fill="white"/>
<path fill-rule="evenodd" clip-rule="evenodd" d="M69.3599 129.369V132.829C69.3599 139.485 80.2806 147.315 88.5858 138.904L169.878 49.2416C171.911 47.1867 173.678 44.3368 176.639 43.5458C176.639 52.644 175.506 169.862 177.36 175.711C181.716 189.433 199.48 184.077 199.48 174.357V10.3228C199.48 6.78323 195.507 1.46898 190.008 0.634277H187.037C184.131 1.0715 180.961 2.8363 177.813 6.65406C176.581 8.14658 175.389 9.11245 174.029 10.4837L144.97 43.0211C134.723 54.6553 122.226 67.1777 112.067 79.3326L71.9515 123.653C70.6458 125.221 69.3599 126.765 69.3599 129.369Z" fill="#8EC74B"/>
<path fill-rule="evenodd" clip-rule="evenodd" d="M695.037 92.6846H686.732V44.9299C706.127 44.9299 703.342 43.8865 703.342 82.9961C703.342 88.1852 699.968 92.6846 695.037 92.6846ZM724.104 50.4071V87.2492C724.067 93.7797 720.515 99.1258 717.876 103.067C720.223 107.503 724.065 111.66 724.104 119.554V150.982C723.961 153.524 723.741 155.643 723.413 157.052C721.861 157.414 721.823 157.744 719.953 157.744C706.699 157.744 708.366 159.033 703.342 155.669C703.342 146.67 703.32 137.671 703.342 128.674C703.362 120.909 703.779 113.449 691.575 113.449C686.398 113.449 686.632 113.171 686.672 118.234L686.732 136.981C686.732 148.206 688.731 157.744 681.886 157.744C675.618 157.744 671.908 158.274 666.659 157.052C665.856 155.379 665.274 154.023 665.274 151.515V28.3174C665.274 26.4492 665.606 26.4095 665.968 24.8573C670.874 22.4248 686.106 23.4741 693.652 23.4741C711.64 23.4741 724.069 36.8313 724.104 50.4071Z" fill="white"/>
<path fill-rule="evenodd" clip-rule="evenodd" d="M609.214 80.226C610.631 86.3094 611.895 92.7445 613.367 98.9133C614.055 101.807 614.667 105.348 615.305 108.049C615.895 110.551 616.694 115.886 617.519 117.601H600.909C600.976 114.5 602.027 111.303 602.691 108.312C603.546 104.476 607.503 82.6884 609.214 80.226ZM572.531 157.052C577.851 158.292 582.768 157.744 589.141 157.744C595.747 157.744 592.941 136.982 598.832 136.982C624.924 136.982 621.148 133.774 623.924 147.878C626.178 159.318 624.419 157.744 643.127 157.744C648.981 157.744 645.539 148.024 645.14 146.042L620.049 28.5581C618.469 21.9302 616.323 23.4744 602.985 23.4744C599.148 23.4744 598.635 25.3405 597.937 28.8065L572.354 148.578C571.503 152.686 570.758 153.358 572.531 157.052Z" fill="white"/>
<path fill-rule="evenodd" clip-rule="evenodd" d="M492.938 51.1593V130.752C492.938 149.457 515.231 164.221 535.166 154.988C545.111 150.381 551.767 139.055 551.767 125.215C551.767 110.095 552.546 111.373 536.541 111.373C534.031 111.373 532.678 111.953 531.004 112.758C529.214 120.439 532.495 130.333 527.393 134.756C521.841 139.57 513.7 135.585 513.7 127.292V55.311C513.7 41.8743 525.591 43.7782 528.687 47.9397C533.403 54.2775 525.648 69.8446 535.156 69.8446C541.424 69.8446 545.137 70.3753 550.383 69.155C552.411 64.9318 551.767 60.9154 551.767 55.311C551.767 36.6852 538.845 23.4751 522.008 23.4751C506.693 23.4751 492.938 35.7014 492.938 51.1593Z" fill="white"/>
<path fill-rule="evenodd" clip-rule="evenodd" d="M419.572 28.3183V152.899C419.572 156.131 421.186 157.744 424.417 157.744H462.484C467.514 157.744 465.946 148.229 465.946 141.134C465.946 139.264 465.614 139.226 465.252 137.674C454.663 135.208 441.028 139.576 441.028 134.906C441.028 97.189 438.556 100.852 447.938 100.979C451.165 101.023 454.409 100.991 457.64 100.991C460.838 96.2112 459.715 94.4146 459.715 85.072C459.715 78.2811 453.483 80.2267 441.028 80.2267V44.9308C453.749 41.9657 465.946 48.3968 465.946 40.0856C465.946 30.2779 467.629 23.4751 461.1 23.4751H424.417C421.186 23.4751 419.572 25.0869 419.572 28.3183Z" fill="white"/>
<path fill-rule="evenodd" clip-rule="evenodd" d="M11.9147 142.519C17.3363 142.519 19.1686 140.544 22.5054 136.5C23.7813 134.955 24.942 134.113 26.2854 132.664L124.897 23.6422C130.722 17.0341 130.959 17.1176 130.959 10.3228C130.959 4.14399 121.98 -2.76414 113.474 2.52826L36.3217 87.3318C33.1339 90.4937 31.1426 93.1429 27.9926 96.3068L3.77636 123.305C-4.17912 132.054 3.40274 142.519 11.9147 142.519Z" fill="#8EC74B"/>
<path fill-rule="evenodd" clip-rule="evenodd" d="M240.314 26.9348V154.284C240.314 159.366 250.176 157.744 257.617 157.744C259.23 157.744 261.079 155.898 261.079 154.284V28.318C261.079 21.7239 254.035 23.4748 243.774 23.4748C242.161 23.4748 240.314 25.3211 240.314 26.9348Z" fill="white"/>
</svg>
