<svg width="176" height="100" viewBox="0 0 176 100" fill="none" xmlns="http://www.w3.org/2000/svg">
<path d="M42.2953 20.006C38.5926 20.0921 35.0329 21.5488 32.784 23.7918C31.8259 24.7125 31.2116 25.7996 30.4232 26.8028C27.462 30.8195 24.4789 34.8274 21.5312 38.8495C20.5208 40.342 20.0001 42.0228 20.0003 43.7031C20.0025 43.9785 20.0006 44.3665 20.0013 44.6852C20.0063 51.1631 19.9913 57.6412 20.0088 64.1191C20.1098 66.2028 21.9954 68.1894 24.621 68.7982C25.9658 69.1323 27.395 68.9729 28.7819 69.0104C29.5664 69.0104 30.3508 69.0104 31.1352 69.0104C31.3611 70.1305 31.675 71.2458 32.2342 72.2988C32.2982 72.412 32.4288 72.6652 32.5286 72.8304C34.4011 76.052 38.1411 78.6415 42.6015 79.5799C46.6156 80.4559 51.0898 79.9389 54.6003 78.2127C57.3777 76.8722 59.567 74.8498 60.834 72.5335C60.9125 72.3825 61.0085 72.2119 61.102 72.0123C61.5827 71.0458 61.8484 70.0289 62.0589 69.0104C79.3501 69.0104 96.6414 69.0104 113.933 69.0104C114.225 70.5346 114.756 72.0431 115.695 73.4118C117.761 76.5328 121.634 78.9582 126.116 79.7185C130.084 80.4222 134.401 79.7873 137.764 78.031C141.512 76.1161 144.067 72.9421 144.74 69.5377C144.851 69.368 144.697 68.9561 145.053 69.0104C146.518 68.994 147.987 69.0455 149.45 68.9802C152.211 68.7697 154.622 67.1989 155.531 65.2127C156.005 64.2735 156.018 63.257 155.992 62.2651C155.984 59.0388 156.008 55.8122 155.98 52.5861C155.817 49.3942 153.64 46.2832 150.171 44.4921C148.499 43.6034 146.535 43.0765 144.526 42.8691C137.008 41.8711 129.49 40.8727 121.972 39.8749C115.462 34.4398 108.939 29.0132 102.436 23.5731C100.095 21.3568 96.4358 19.9812 92.7037 20.0002C92.2078 20.0019 91.5814 20.0004 91.0354 20.0009C74.9324 20.0009 58.8295 20.0009 42.7265 20.0009C42.6579 20.0007 42.4221 20.0046 42.2953 20.006ZM42.7265 22.8575C50.7913 22.8575 58.8561 22.8575 66.9209 22.8575C66.9209 28.4986 66.9209 34.1396 66.9209 39.7806C52.9239 39.7806 38.9269 39.7806 24.9299 39.7806C28.1014 35.4782 31.2962 31.1853 34.4558 26.8782C35.7526 24.8169 38.39 23.2695 41.3586 22.9382C41.8111 22.8839 42.2687 22.8598 42.7265 22.8575ZM71.4372 22.8575C78.6208 22.8616 85.8048 22.8495 92.9882 22.8636C95.6651 22.908 98.2458 23.944 99.8967 25.5491C105.58 30.2931 111.265 35.036 116.948 39.7806C101.443 39.7806 85.938 39.7806 70.433 39.7806C70.433 34.1396 70.433 28.4986 70.433 22.8575C70.7678 22.8575 71.1025 22.8575 71.4372 22.8575ZM24.5382 42.6372C56.6825 42.6372 88.8267 42.6372 120.971 42.6372C129.008 43.709 137.05 44.7627 145.084 45.8444C148.147 46.3249 150.753 48.1031 151.833 50.3407C152.402 51.4339 152.528 52.6225 152.481 53.7888C152.473 56.9825 152.496 60.1769 152.47 63.3703C152.407 64.7079 151.017 65.938 149.273 66.1207C148.178 66.1931 147.074 66.1338 145.976 66.1531C145.604 66.1531 145.233 66.1531 144.861 66.1531C144.567 64.6166 144.027 63.0968 143.077 61.7187C141.033 58.6576 137.254 56.2708 132.865 55.478C128.893 54.7336 124.545 55.3315 121.148 57.0719C117.352 58.9743 114.749 62.1623 114.062 65.5894C113.95 65.7587 114.091 66.1586 113.788 66.1531C96.5451 66.1531 79.302 66.1531 62.0589 66.1531C61.833 65.033 61.519 63.9177 60.9599 62.8646C60.8876 62.7353 60.7931 62.55 60.6884 62.373C58.8232 59.133 55.0713 56.5258 50.5925 55.5835C46.5784 54.7079 42.1042 55.2244 38.5937 56.9507C35.7162 58.3395 33.4704 60.4599 32.2266 62.8811C32.1609 63.0067 32.0306 63.274 31.951 63.457C31.5484 64.3298 31.3288 65.242 31.1351 66.1531C29.449 66.1426 27.7605 66.1742 26.0759 66.1372C24.6935 66.0386 23.5693 65.0793 23.5223 64.0254C23.4993 59.3535 23.519 54.6808 23.5124 50.0086C23.5227 47.8262 23.4919 45.643 23.5278 43.4612C23.5515 43.1866 23.5752 42.9119 23.5989 42.6372C23.912 42.6372 24.2251 42.6372 24.5382 42.6372ZM46.6097 58.0222C50.0997 58.0055 53.5322 59.2715 55.7358 61.3388C58.3034 63.6762 59.2209 66.9659 58.2795 69.9215C57.405 72.799 54.6934 75.3323 51.1085 76.4527C47.6729 77.568 43.5534 77.3112 40.395 75.7899C37.1882 74.2812 35.036 71.5846 34.6406 68.7256C34.1978 65.8998 35.4189 62.932 37.9985 60.8704C40.2065 59.07 43.3804 58.0057 46.6097 58.0222ZM129.41 58.0222C132.883 58.006 136.3 59.2588 138.504 61.3096C141.083 63.6392 142.018 66.9265 141.091 69.885C140.247 72.7022 137.651 75.195 134.186 76.3628C130.739 77.5591 126.543 77.3636 123.317 75.8454C120.029 74.3452 117.824 71.5978 117.434 68.6905C117.01 65.8876 118.217 62.948 120.766 60.8976C122.973 59.0801 126.165 58.0057 129.41 58.0222Z" fill="#CCCFD7"/>
<path d="M112.299 59.1819L111.652 57.4867L65.9841 58.8477L66.6309 60.5429L112.299 59.1819Z" fill="#8FC74A" stroke="#8FC574" stroke-width="0.512843"/>
</svg>
