<svg width="176" height="100" viewBox="0 0 176 100" fill="none" xmlns="http://www.w3.org/2000/svg">
<g clip-path="url(#clip0_193_1840)">
<path d="M146.265 53.2343L146.123 52.6652C146.062 52.4231 145.922 52.2082 145.725 52.0544C145.529 51.9007 145.286 51.8169 145.037 51.8164H57.4482C46.0224 51.8164 38.9866 56.6088 35.0957 60.6293C32.5798 63.1676 30.6108 66.1945 29.3103 69.5234C29.2543 69.6917 29.239 69.8709 29.2657 70.0462C29.2924 70.2216 29.3603 70.3881 29.4637 70.5322C29.5672 70.6763 29.7033 70.7938 29.8609 70.8751C30.0186 70.9564 30.1933 70.9992 30.3707 70.9999H119.2C125.643 70.9999 132.445 65.572 132.746 65.3293L145.896 54.3629C146.057 54.2281 146.177 54.0509 146.242 53.8514C146.307 53.652 146.315 53.4381 146.265 53.2343Z" stroke="#CCCFD7" stroke-width="2" stroke-miterlimit="10"/>
<path d="M129.159 48.0499L95.1167 29.571C91.5936 27.6713 88.7544 26.4961 85.056 26.1438C84.4049 26.046 83.7475 25.9967 83.089 25.9961H59.1701C59.0517 25.9963 58.9348 26.0236 58.8286 26.0758C58.7223 26.128 58.6294 26.2038 58.5569 26.2975L55.4173 30.3732C55.3304 30.488 55.2771 30.6248 55.2634 30.7682C55.2497 30.9116 55.2761 31.0559 55.3397 31.1852C55.4033 31.3144 55.5016 31.4235 55.6235 31.5001C55.7455 31.5767 55.8863 31.618 56.0303 31.6192H61.9022L56.9803 36.5817H49.5602C49.4581 36.5819 49.3571 36.6023 49.2628 36.6415C49.1686 36.6808 49.083 36.7382 49.011 36.8106L43.6331 42.2256C43.5269 42.3346 43.4551 42.4723 43.4265 42.6217C43.3979 42.7711 43.4136 42.9257 43.472 43.0661C43.5304 43.2066 43.6288 43.3269 43.7548 43.412C43.8809 43.4971 44.0293 43.5434 44.1814 43.545H58.449L53.6134 48.4255C53.5075 48.5345 53.4359 48.6722 53.4075 48.8215C53.379 48.9707 53.395 49.1251 53.4533 49.2654C53.5117 49.4057 53.6099 49.5258 53.7358 49.6109C53.8617 49.696 54.0098 49.7423 54.1618 49.7441H54.502C54.6677 49.8691 54.8694 49.937 55.077 49.9375H70.9042L128.701 49.8632C128.916 49.8632 129.125 49.7915 129.295 49.6593C129.465 49.5271 129.585 49.3421 129.638 49.1335C129.691 48.9249 129.673 48.7047 129.586 48.5076C129.5 48.3106 129.35 48.148 129.161 48.0456L129.159 48.0499ZM72.9895 30.3715H92.0089C92.112 30.3697 92.2137 30.3471 92.3078 30.305C92.92 30.6029 93.5452 30.925 94.1971 31.2764L97.2383 32.9274H66.4588C67.3244 32.0911 68.3471 31.4346 69.4679 30.9959C70.5887 30.5571 71.7862 30.3449 72.9895 30.3715ZM64.3977 43.5459C65.6188 42.2672 67.0919 41.2559 68.7238 40.5757C70.3558 39.8956 72.1112 39.5615 73.8789 39.5945H78.5781L74.6534 43.5459H64.3977ZM79.8483 43.5459L83.7738 39.5945H109.208C109.29 39.5938 109.37 39.5801 109.447 39.5539L116.802 43.5459H79.8483Z" stroke="#CCCFD7" stroke-width="2" stroke-miterlimit="10"/>
<path d="M72.7193 65.8679H60.2132C60.1014 65.8679 59.9907 65.8458 59.8874 65.8031C59.7841 65.7603 59.6902 65.6976 59.6112 65.6185C59.5321 65.5394 59.4694 65.4456 59.4266 65.3423C59.3838 65.239 59.3618 65.1283 59.3618 65.0164V62.8974C59.362 62.6718 59.4518 62.4554 59.6115 62.2959C59.7711 62.1365 59.9876 62.0469 60.2132 62.0469H72.7193C72.945 62.0469 73.1614 62.1365 73.321 62.2959C73.4807 62.4554 73.5705 62.6718 73.5707 62.8974V65.013C73.5707 65.1248 73.5487 65.2355 73.5059 65.3388C73.4631 65.4421 73.4004 65.536 73.3213 65.615C73.2423 65.6941 73.1484 65.7568 73.0451 65.7996C72.9418 65.8424 72.8311 65.8644 72.7193 65.8644" fill="#8FC74B"/>
<path d="M88.1356 65.7707H75.6295C75.4037 65.7707 75.1871 65.681 75.0274 65.5213C74.8678 65.3616 74.7781 65.1451 74.7781 64.9193V62.8037C74.7783 62.578 74.8681 62.3617 75.0278 62.2022C75.1874 62.0427 75.4038 61.9531 75.6295 61.9531H88.1356C88.3612 61.9531 88.5777 62.0427 88.7373 62.2022C88.8969 62.3617 88.9868 62.578 88.987 62.8037V64.9193C88.987 65.1451 88.8973 65.3616 88.7376 65.5213C88.5779 65.681 88.3614 65.7707 88.1356 65.7707Z" fill="#8FC74B"/>
<path d="M103.554 65.7707H91.0479C90.8221 65.7707 90.6056 65.681 90.4459 65.5213C90.2862 65.3616 90.1965 65.1451 90.1965 64.9193V62.8037C90.1968 62.578 90.2866 62.3617 90.4462 62.2022C90.6059 62.0427 90.8223 61.9531 91.0479 61.9531H103.554C103.78 61.9531 103.996 62.0427 104.156 62.2022C104.315 62.3617 104.405 62.578 104.405 62.8037V64.9193C104.405 65.1451 104.316 65.3616 104.156 65.5213C103.996 65.681 103.78 65.7707 103.554 65.7707Z" fill="#8FC74B"/>
</g>
<defs>
<clipPath id="clip0_193_1840">
<rect width="176" height="100" fill="white"/>
</clipPath>
</defs>
</svg>
