<svg width="176" height="100" viewBox="0 0 176 100" fill="none" xmlns="http://www.w3.org/2000/svg">
<g clip-path="url(#clip0_193_1850)">
<path d="M55.7963 58.8516C54.4492 58.8607 53.1348 59.2679 52.0185 60.022C50.9022 60.7761 50.0338 61.8435 49.5226 63.0899C49.0113 64.3362 48.8799 65.7059 49.1451 67.0267C49.4102 68.3476 50.0599 69.5605 51.0126 70.513C51.9652 71.4655 53.1783 72.1151 54.4991 72.38C55.82 72.6449 57.1897 72.5134 58.4359 72.0019C59.6822 71.4905 60.7495 70.6219 61.5034 69.5055C62.2574 68.3891 62.6644 67.0747 62.6733 65.7276C62.6733 64.8245 62.4954 63.9303 62.1498 63.096C61.8042 62.2617 61.2976 61.5037 60.659 60.8651C60.0204 60.2266 59.2623 59.7202 58.428 59.3747C57.5936 59.0292 56.6994 58.8514 55.7963 58.8516ZM55.7963 69.3026C55.0459 69.306 54.3133 69.0744 53.7013 68.6402C53.0893 68.2059 52.6286 67.591 52.384 66.8815C52.1394 66.1721 52.1231 65.4039 52.3374 64.6848C52.5517 63.9656 52.9858 63.3316 53.5789 62.8718C54.1719 62.4121 54.8941 62.1495 55.6439 62.1212C56.3938 62.0928 57.1337 62.3 57.7598 62.7136C58.3859 63.1273 58.8667 63.7266 59.1348 64.4275C59.4028 65.1284 59.4446 65.8957 59.2543 66.6216C59.0564 67.3884 58.6095 68.0678 57.9836 68.5531C57.3577 69.0383 56.5883 69.302 55.7963 69.3026Z" fill="#CCCFD7"/>
<path d="M132.64 67.735H129.881L130.014 66.617C130.052 66.3218 130.073 66.0246 130.075 65.727C130.075 63.6509 129.251 61.6598 127.783 60.1918C126.315 58.7237 124.323 57.899 122.247 57.899C120.171 57.899 118.18 58.7237 116.712 60.1918C115.244 61.6598 114.419 63.6509 114.419 65.727C114.422 66.0246 114.443 66.3218 114.481 66.617L114.614 67.735H63.5603L63.6953 66.615C63.7335 66.3202 63.7539 66.0233 63.7563 65.726C63.7563 63.6499 62.9316 61.6588 61.4636 60.1908C59.9955 58.7227 58.0045 57.898 55.9283 57.898C53.8522 57.898 51.8611 58.7227 50.3931 60.1908C48.9251 61.6588 48.1003 63.6499 48.1003 65.726C48.103 66.0236 48.1234 66.3208 48.1613 66.616L48.2943 67.734H43.3463C41.2403 67.7314 39.2212 66.8935 37.732 65.4043C36.2428 63.9151 35.405 61.8961 35.4023 59.79V29.945C35.4047 27.8388 36.2424 25.8195 37.7317 24.33C39.2209 22.8406 41.2401 22.0026 43.3463 22H98.3703C99.8364 22.0125 101.291 22.2547 102.682 22.718C105.211 23.5398 107.492 24.9841 109.316 26.918L123.762 41.969L135.544 47.092C137.019 47.6584 138.289 48.6564 139.188 49.9557C140.087 51.2549 140.574 52.795 140.584 54.375V59.79C140.582 61.8962 139.744 63.9155 138.255 65.405C136.766 66.8944 134.747 67.7324 132.64 67.735ZM132.075 65.735H132.64C134.216 65.7331 135.728 65.1062 136.842 63.9917C137.957 62.8772 138.583 61.3661 138.585 59.79V54.376C138.57 53.191 138.199 52.038 137.518 51.0676C136.838 50.0973 135.88 49.3547 134.771 48.937L134.755 48.93L122.602 43.644L107.872 28.298C105.429 25.6751 102.045 24.1287 98.4623 23.998H43.3463C41.7699 23.9999 40.2587 24.6271 39.1443 25.7421C38.0299 26.857 37.4034 28.3686 37.4023 29.945V59.79C37.4039 61.3661 38.0307 62.8771 39.145 63.9916C40.2593 65.1062 41.7703 65.7331 43.3463 65.735H46.1023C46.1023 65.735 46.1023 65.73 46.1023 65.727C46.1023 63.1205 47.1378 60.6207 48.9809 58.7776C50.824 56.9344 53.3238 55.899 55.9303 55.899C58.5369 55.899 61.0367 56.9344 62.8798 58.7776C64.7229 60.6207 65.7583 63.1205 65.7583 65.727C65.7583 65.727 65.7583 65.732 65.7583 65.735H112.419V65.726C112.419 63.1194 113.455 60.6197 115.298 58.7766C117.141 56.9334 119.641 55.898 122.247 55.898C124.854 55.898 127.354 56.9334 129.197 58.7766C131.04 60.6197 132.075 63.1194 132.075 65.726C132.075 65.726 132.075 65.733 132.075 65.735ZM114.149 45.206H95.2763C94.2078 45.2047 93.1833 44.7795 92.4278 44.0238C91.6723 43.2681 91.2474 42.2436 91.2463 41.175V33.075C91.2474 32.0064 91.6723 30.9819 92.4278 30.2262C93.1833 29.4705 94.2078 29.0453 95.2763 29.044H102.908C103.207 29.0449 103.503 29.1058 103.778 29.2231C104.053 29.3404 104.301 29.5118 104.508 29.727L115.751 41.448C116.053 41.762 116.255 42.1576 116.334 42.5856C116.412 43.0137 116.363 43.4554 116.193 43.8558C116.022 44.2563 115.738 44.5978 115.375 44.838C115.012 45.0782 114.587 45.2065 114.151 45.207L114.149 45.206ZM95.2763 31.05C94.738 31.0508 94.222 31.2651 93.8414 31.6458C93.4609 32.0265 93.2469 32.5427 93.2463 33.081V41.181C93.2469 41.7193 93.4609 42.2355 93.8414 42.6162C94.222 42.9969 94.738 43.2112 95.2763 43.212H114.149C114.193 43.2119 114.235 43.1991 114.271 43.1752C114.307 43.1513 114.335 43.1173 114.352 43.0775C114.369 43.0376 114.374 42.9937 114.366 42.9511C114.358 42.9086 114.338 42.8692 114.308 42.838L103.068 31.118C103.048 31.0966 103.023 31.0796 102.996 31.0679C102.968 31.0562 102.939 31.0501 102.909 31.05H95.2763Z" fill="#CCCFD7"/>
<path d="M122.401 58.8516C121.054 58.8607 119.74 59.2679 118.624 60.022C117.507 60.7761 116.639 61.8435 116.128 63.0899C115.616 64.3362 115.485 65.7059 115.75 67.0267C116.015 68.3476 116.665 69.5605 117.618 70.513C118.57 71.4655 119.783 72.1151 121.104 72.38C122.425 72.6449 123.795 72.5134 125.041 72.0019C126.287 71.4905 127.354 70.6219 128.108 69.5055C128.862 68.3891 129.269 67.0747 129.278 65.7276C129.278 64.8245 129.101 63.9302 128.755 63.0958C128.41 62.2615 127.903 61.5034 127.264 60.8648C126.626 60.2263 125.868 59.7199 125.033 59.3744C124.199 59.029 123.304 58.8513 122.401 58.8516ZM122.401 69.3026C121.651 69.3062 120.918 69.0748 120.306 68.6407C119.694 68.2066 119.233 67.5917 118.988 66.8823C118.743 66.1729 118.727 65.4046 118.941 64.6854C119.155 63.9661 119.589 63.3321 120.182 62.8722C120.775 62.4123 121.498 62.1496 122.248 62.1212C122.997 62.0927 123.737 62.2999 124.364 62.7135C124.99 63.1271 125.471 63.7265 125.739 64.4274C126.007 65.1284 126.049 65.8956 125.858 66.6216C125.661 67.3883 125.214 68.0677 124.588 68.553C123.962 69.0383 123.193 69.3019 122.401 69.3026Z" fill="#CCCFD7"/>
<path d="M87.0403 63.1535H72.5573C72.4278 63.1535 72.2996 63.128 72.18 63.0785C72.0603 63.0289 71.9516 62.9563 71.8601 62.8647C71.7685 62.7732 71.6959 62.6645 71.6463 62.5448C71.5968 62.4252 71.5713 62.297 71.5713 62.1675V59.7135C71.5716 59.4522 71.6756 59.2016 71.8604 59.017C72.0453 58.8323 72.296 58.7285 72.5573 58.7285H87.0403C87.3016 58.7285 87.5523 58.8323 87.7371 59.017C87.922 59.2016 88.026 59.4522 88.0263 59.7135V62.1635C88.0263 62.293 88.0008 62.4212 87.9512 62.5408C87.9017 62.6605 87.8291 62.7692 87.7375 62.8607C87.6459 62.9523 87.5372 63.0249 87.4176 63.0745C87.298 63.124 87.1698 63.1495 87.0403 63.1495" fill="#8FC74B"/>
<path d="M104.895 63.0401H90.4123C90.1508 63.0401 89.9 62.9363 89.7151 62.7514C89.5301 62.5664 89.4263 62.3156 89.4263 62.0541V59.6041C89.4265 59.3428 89.5305 59.0923 89.7154 58.9076C89.9003 58.7229 90.1509 58.6191 90.4123 58.6191H104.895C105.157 58.6191 105.407 58.7229 105.592 58.9076C105.777 59.0923 105.881 59.3428 105.881 59.6041V62.0541C105.881 62.3156 105.777 62.5664 105.592 62.7514C105.408 62.9363 105.157 63.0401 104.895 63.0401Z" fill="#8FC74B"/>
</g>
<defs>
<clipPath id="clip0_193_1850">
<rect width="176" height="100" fill="white"/>
</clipPath>
</defs>
</svg>
