<svg width="176" height="100" viewBox="0 0 176 100" fill="none" xmlns="http://www.w3.org/2000/svg">
<path d="M125.41 75.6105L124.405 73.9108L53.4712 75.3867L54.4759 77.0864L125.41 75.6105Z" fill="#8FC74A" stroke="#8FC574" stroke-width="0.226572"/>
<path d="M79.0446 11.0049C75.2594 11.0255 71.4128 11.0861 67.6066 11.1872C63.7573 11.2921 59.9024 11.4381 56.0414 11.6289C51.2835 11.8687 46.4974 12.1729 41.7417 12.5716C39.7461 12.7417 37.8206 12.9138 35.8353 13.123C35.1465 13.2065 34.2861 13.1956 33.8618 13.6434C33.3389 14.1142 33.5904 14.863 34.3836 15.1155C35.0063 15.3581 35.714 15.1443 36.3721 15.1157C38.7895 14.8831 41.2093 14.6628 43.6288 14.4398C43.6288 21.5835 43.6288 28.7273 43.6288 35.8711C38.0823 35.8711 32.5358 35.8711 26.9892 35.8711C26.9892 36.5154 26.9892 37.1597 26.9892 37.8041C32.5358 37.8041 38.0823 37.8041 43.6288 37.8041C43.6288 42.643 43.6288 47.4818 43.6288 52.3207C41.5024 52.1804 39.3904 52.0431 37.2468 51.9634C36.7028 51.9445 36.0425 51.9223 35.4536 51.912C35.008 51.9007 34.4614 51.8974 34.079 51.8926C33.521 51.8949 32.9539 51.8902 32.4416 51.8991C31.3059 51.9181 30.1299 51.949 29.0419 52.0209C26.7067 52.1796 24.3096 52.5069 22.3109 53.3822C20.7809 54.0591 19.6393 55.0577 18.6797 56.0954C18.4357 56.3664 18.1453 56.7133 17.9135 57.0251C16.1495 59.3871 15.2984 62.0019 14.6767 64.5983C14.614 64.8904 14.5469 65.1624 14.4979 65.4277C14.4002 65.9056 14.3302 66.3258 14.2496 66.8099C14.1658 67.3349 14.0849 67.9458 14.0172 68.506C13.8715 69.8066 13.7801 71.067 13.7304 72.3754C13.6929 73.3998 13.6655 74.407 13.6919 75.4197C13.7923 75.9486 14.6043 76.3237 15.3695 76.2434C17.2634 76.2434 19.1574 76.2434 21.0513 76.2434C20.8419 76.9766 20.6093 77.6537 20.4671 78.3916C20.3412 78.992 20.3117 79.6131 20.3421 80.1913C20.4924 83.2231 22.8342 86.1516 26.4679 87.9173C29.6261 89.4772 33.7241 90.1346 37.5751 89.6647C41.7423 89.1776 45.5234 87.4058 47.6938 84.9484C48.7424 83.7962 49.3752 82.4898 49.7186 81.1614C50.0335 80.8584 50.5841 80.7056 51.1225 80.7667C78.5585 80.7647 105.998 80.7664 133.436 80.7659C133.772 82.0102 134.229 83.2553 135.109 84.3799C137.302 87.2709 141.666 89.3632 146.442 89.7379C147.181 89.8003 147.928 89.8234 148.672 89.8074C148.834 89.8016 149.188 89.7925 149.422 89.7771C152.202 89.6171 154.917 88.9158 157.124 87.7556C157.383 87.6231 157.743 87.4234 158.026 87.2518C158.685 86.8547 159.357 86.3541 159.849 85.9195C161.941 84.0818 163.118 81.7369 162.912 79.4094C162.897 78.9272 162.583 78.4434 162.835 77.9678C163.048 77.5859 162.904 77.1697 162.946 76.7717C162.94 72.479 162.959 68.1851 162.931 63.8933C162.736 63.1143 162.261 62.3829 161.742 61.6807C161.67 61.5928 161.509 61.3883 161.394 61.2593C159.459 59.0457 156.493 57.3541 153.408 55.9048C150.128 54.3836 146.654 53.0617 143.119 51.8339C142.232 51.5303 141.313 51.2249 140.449 50.9532C138.973 50.4834 137.473 50.0499 135.96 49.6379C128.272 37.7211 120.586 25.8037 112.897 13.8868C118.019 14.2736 123.142 14.6697 128.229 15.2345C129.213 15.2614 130.018 14.5085 129.637 13.8853C129.42 13.4699 128.803 13.2101 128.167 13.1986C121.72 12.5062 115.088 12.0446 108.548 11.6947C104.847 11.4988 101.173 11.352 97.4606 11.2368C92.7393 11.0959 87.9431 11.0133 83.2141 11.0018C81.8242 10.9986 80.4344 10.9996 79.0446 11.0049ZM81.653 12.9313C91.0922 12.9331 100.532 13.1843 109.94 13.7107C110.219 14.4501 110.651 15.1545 111.129 15.8438C118.528 27.3662 125.943 38.884 133.347 50.4046C132.377 51.9099 131.407 53.4152 130.438 54.9205C121.528 48.8939 112.618 42.8669 103.708 36.8406C105.662 35.4946 107.666 34.1802 109.592 32.8165C110.128 32.2872 109.65 31.4458 108.695 31.3439C108.017 31.2441 107.317 31.4636 106.91 31.8322C104.972 33.1718 103.033 34.5112 101.096 35.8511C100.577 35.9663 100.213 36.2523 99.945 36.56C97.9064 37.9521 95.8488 39.3321 93.8201 40.7303C93.1416 41.2502 93.5875 42.1735 94.5802 42.3314C95.2163 42.4543 95.8774 42.2368 96.2655 41.8949C98.0495 40.6829 99.8337 39.471 101.618 38.2589C110.803 44.449 119.99 50.6388 129.176 56.8287C126.333 61.1487 123.489 65.4686 120.646 69.7884C110.341 69.7884 100.035 69.7884 89.7301 69.7884C89.7173 67.9849 89.7465 66.1805 89.715 64.3913C89.631 62.7524 88.0429 61.2849 86.0137 60.4605C84.9903 60.0455 83.8789 59.8048 82.7886 59.521C80.3316 58.8752 77.7976 58.2641 75.3406 57.6851C71.3581 56.7588 67.3372 55.9095 63.2878 55.1276C61.1354 50.4142 58.915 45.712 56.3866 41.0842C55.6771 39.7662 54.464 38.5641 52.8169 37.7049C51.2077 36.8431 49.2677 36.3027 47.2784 36.0059C46.7184 35.9026 46.3764 35.5002 46.4642 35.1191C46.4642 28.1418 46.4642 21.1646 46.4642 14.1873C58.1048 13.3392 69.8129 12.9392 81.5196 12.9316C81.5641 12.9315 81.6085 12.9313 81.653 12.9313ZM47.8296 38.1257C49.1456 38.5603 50.5527 38.9198 51.6437 39.6051C52.7695 40.2501 53.4453 41.1641 53.9285 42.0907C56.051 45.9968 57.8787 49.9715 59.7021 53.9452C59.7117 54.08 60.0197 54.402 59.8361 54.4155C57.0421 53.9805 54.2896 53.5381 51.454 53.2049C49.7918 53.0086 48.1279 52.8188 46.4642 52.6284C46.4642 47.6474 46.4642 42.6664 46.4642 37.6854C46.9193 37.8322 47.3745 37.9789 47.8296 38.1257ZM136.424 52.0095C139.414 52.7941 142.37 53.6541 145.165 54.7238C149.403 56.3024 153.421 58.2114 156.747 60.604C158.149 61.634 159.47 62.7867 160.049 64.1528C160.183 64.6858 160.071 65.2298 160.109 65.7679C160.109 68.3083 160.109 70.8488 160.109 73.3892C158.477 72.5973 156.928 71.7194 155.193 71.03C152.565 70.0187 149.456 69.6108 146.459 69.8586C146.301 69.8735 145.959 69.9028 145.732 69.9308C142.98 70.2498 140.382 71.1264 138.318 72.3985C138.192 72.4801 137.921 72.6496 137.748 72.7705C135.604 74.2314 134.141 76.1522 133.652 78.1855C133.572 78.6402 132.851 78.91 132.218 78.8311C104.759 78.8353 77.2999 78.8319 49.8411 78.8331C49.4861 77.5092 48.9865 76.1825 47.9972 75.0044C45.9461 72.4635 42.2192 70.5713 38.0255 69.9927C37.7322 69.9509 37.4367 69.9168 37.1404 69.886C37.0109 69.8757 36.6608 69.8432 36.4484 69.8314C32.5867 69.5785 28.6012 70.4149 25.6384 72.1145C24.5093 72.7478 23.5477 73.5053 22.6955 74.3105C20.6879 74.3105 18.6803 74.3105 16.6727 74.3105C16.842 70.2999 16.8052 66.2367 18.2142 62.3137C18.9957 60.1558 20.0585 57.9885 22.0173 56.1797C22.6887 55.5543 23.5826 55.0295 24.6605 54.756C27.3806 53.9763 30.3821 53.8423 33.3011 53.8307C39.4456 53.8127 45.5615 54.3839 51.5779 55.1927C61.6779 56.5679 71.5394 58.6594 81.1728 61.1165C82.3042 61.4206 83.4667 61.6816 84.5572 62.049C85.9575 62.5653 86.9828 63.6008 86.8892 64.7035C86.9111 66.7831 86.8621 68.8642 86.918 70.9428C87.0563 71.444 87.8212 71.7918 88.5586 71.7214C99.6147 71.7179 110.671 71.7287 121.727 71.7138C122.403 71.6735 122.868 71.2673 123.054 70.8554C127.226 64.4961 131.398 58.1371 135.57 51.7776C135.854 51.855 136.139 51.9321 136.424 52.0095ZM35.0968 71.722C38.8415 71.7077 42.5392 72.9831 44.7102 75.0531C46.9919 77.1767 47.5762 80.0669 46.2663 82.5359C45.0362 84.9072 42.0758 86.8344 38.5075 87.5365C34.7165 88.3187 30.3627 87.729 27.3554 85.969C24.6041 84.4002 23.0251 81.9489 23.1754 79.5154C23.279 76.9324 25.3364 74.4198 28.5546 73.0252C30.4867 72.1716 32.7912 71.7151 35.0968 71.722ZM148.25 71.722C152.011 71.7076 155.725 72.9954 157.893 75.0809C160.169 77.2178 160.73 80.122 159.389 82.5923C158.138 84.9476 155.176 86.8529 151.62 87.5449C147.848 88.3122 143.526 87.7262 140.531 85.9818C137.752 84.4058 136.162 81.9311 136.329 79.4793C136.45 77.1392 138.142 74.8545 140.885 73.4229C142.968 72.3179 145.606 71.7126 148.25 71.722Z" fill="#CCCFD7"/>
</svg>
